<svg width="24" height="24" viewBox="0 0 24 24" fill="none" xmlns="http://www.w3.org/2000/svg">
<g clip-path="url(#clip0_1728_54050)">
<rect width="24" height="24" rx="12" fill="#E8F7EF"/>
<path fill-rule="evenodd" clip-rule="evenodd" d="M7.52083 5.75H13.25V9.39583C13.25 9.53397 13.3049 9.66644 13.4025 9.76412C13.5002 9.86179 13.6327 9.91667 13.7708 9.91667H17.4167V17.7292C17.4167 17.8673 17.3618 17.9998 17.2641 18.0975C17.1664 18.1951 17.034 18.25 16.8958 18.25H7.52083C7.3827 18.25 7.25022 18.1951 7.15255 18.0975C7.05487 17.9998 7 17.8673 7 17.7292V6.27083C7 6.1327 7.05487 6.00022 7.15255 5.90255C7.25022 5.80487 7.3827 5.75 7.52083 5.75ZM14.2917 8.875H17.1115L14.2917 6.05521V8.875ZM10.125 14.2514L11.561 15.75L14.5 12.6829L13.8456 12L11.561 14.3866L10.7794 13.5685L10.125 14.2514Z" fill="#39AC6D"/>
</g>
<defs>
<clipPath id="clip0_1728_54050">
<rect width="24" height="24" rx="4" fill="white"/>
</clipPath>
</defs>
</svg>
