<svg width="24" height="24" viewBox="0 0 24 24" fill="none" xmlns="http://www.w3.org/2000/svg">
<g clip-path="url(#clip0_1315_133753)">
<rect width="24" height="24" rx="12" fill="#F2ECFD"/>
<path d="M18.1405 15.2461C18.1461 15.2406 18.1515 15.2349 18.1569 15.2292C18.2033 15.1793 18.239 15.123 18.2641 15.0634C18.2928 14.9955 18.3086 14.921 18.3086 14.8427L18.3086 14.841C18.3082 14.6961 18.2527 14.5514 18.1422 14.4409L15.8694 12.1682C15.6476 11.9463 15.2878 11.9463 15.0659 12.1682C14.844 12.3901 14.844 12.7498 15.0659 12.9717L16.3687 14.2745H9.21768C8.90389 14.2745 8.6495 14.5289 8.6495 14.8427C8.6495 15.1565 8.90389 15.4109 9.21768 15.4109H16.3687L15.0659 16.7136C14.844 16.9355 14.844 17.2953 15.0659 17.5172C15.2878 17.7391 15.6476 17.7391 15.8694 17.5172L18.1405 15.2461Z" fill="#6F2CED"/>
<path d="M16.0356 9.16085C16.0356 8.84705 15.7813 8.59267 15.4675 8.59267H7.7482L9.05099 7.28988C9.27288 7.068 9.27288 6.70824 9.05099 6.48635C8.8291 6.26446 8.46935 6.26446 8.24746 6.48635L5.97473 8.75908C5.75284 8.98097 5.75284 9.34072 5.97473 9.56261L8.24746 11.8353C8.46935 12.0572 8.8291 12.0572 9.05099 11.8353C9.27288 11.6134 9.27288 11.2537 9.05099 11.0318L7.74822 9.72903H15.4675C15.7813 9.72903 16.0356 9.47465 16.0356 9.16085Z" fill="#6F2CED"/>
</g>
<defs>
<clipPath id="clip0_1315_133753">
<rect width="24" height="24" rx="4" fill="white"/>
</clipPath>
</defs>
</svg>
