<svg width="24" height="24" viewBox="0 0 24 24" fill="none" xmlns="http://www.w3.org/2000/svg">
<g clip-path="url(#clip0_432_76755)">
<rect width="24" height="24" rx="12" fill="#E8F7EF"/>
<path d="M18.0837 8.18919L15.8108 5.91636C15.7043 5.80984 15.5598 5.75 15.4091 5.75C15.2584 5.75 15.1139 5.80984 15.0074 5.91636L13.4204 7.50337L16.4966 10.5796L18.0837 8.99264C18.1902 8.88608 18.25 8.74158 18.25 8.59091C18.25 8.44025 18.1902 8.29575 18.0837 8.18919Z" fill="#39AC6D"/>
<path d="M12.6169 8.30681L7.05247 13.8713C6.9902 13.9337 6.94332 14.0098 6.91553 14.0934L5.77912 17.5027C5.75068 17.588 5.74293 17.679 5.7565 17.7679C5.77007 17.8569 5.80457 17.9413 5.85717 18.0143C5.90976 18.0874 5.97895 18.1468 6.05903 18.1879C6.13911 18.2289 6.22779 18.2504 6.31778 18.2504C6.37884 18.2504 6.43949 18.2404 6.49733 18.2209L9.90657 17.0845C9.99025 17.0567 10.0663 17.0098 10.1287 16.9475L15.6932 11.3831L12.6169 8.30681Z" fill="#39AC6D"/>
</g>
<defs>
<clipPath id="clip0_432_76755">
<rect width="24" height="24" rx="4" fill="white"/>
</clipPath>
</defs>
</svg>
