<svg xmlns="http://www.w3.org/2000/svg" width="24" height="24" viewBox="0 0 24 24" fill="none">
    <rect width="24" height="24" rx="12" fill="#F2ECFD"/>
    <path d="M11.7825 5.79311C11.7168 5.82031 11.6551 5.86038 11.6014 5.91332L11.5978 5.91681L8.18914 9.32551C7.96726 9.5474 7.96726 9.90715 8.18914 10.129C8.41103 10.3509 8.77079 10.3509 8.99267 10.129L11.4318 7.68989V14.8409C11.4318 15.1547 11.6862 15.4091 12 15.4091C12.3138 15.4091 12.5682 15.1547 12.5682 14.8409V7.68989L15.0073 10.129C15.2292 10.3509 15.589 10.3509 15.8109 10.129C16.0327 9.90715 16.0327 9.5474 15.8109 9.32551L12.4022 5.91681L12.3986 5.91332C12.2963 5.81251 12.1558 5.75023 12.0009 5.75L12 5.75L11.9991 5.75C11.9224 5.75011 11.8493 5.76544 11.7825 5.79311Z" fill="#7F43EF"/>
    <path d="M6.31818 13.7045C6.63198 13.7045 6.88636 13.9589 6.88636 14.2727V17.1136H17.1136V14.2727C17.1136 13.9589 17.368 13.7045 17.6818 13.7045C17.9956 13.7045 18.25 13.9589 18.25 14.2727V17.6818C18.25 17.9956 17.9956 18.25 17.6818 18.25H6.31818C6.00438 18.25 5.75 17.9956 5.75 17.6818V14.2727C5.75 13.9589 6.00438 13.7045 6.31818 13.7045Z" fill="#7F43EF"/>
</svg>
