<svg width="21" height="22" viewBox="0 0 21 22" fill="none" xmlns="http://www.w3.org/2000/svg">
<g clip-path="url(#clip0_16673_96795)">
<rect x="0.5" y="1" width="20" height="20" rx="4" fill="#6F2CED"/>
<path d="M13.1044 8.39714C13.1044 9.83538 11.9385 11.0013 10.5003 11.0013C9.06202 11.0013 7.8961 9.83538 7.8961 8.39714C7.8961 6.95889 9.06202 5.79297 10.5003 5.79297C11.9385 5.79297 13.1044 6.95889 13.1044 8.39714Z" fill="#F2ECFD"/>
<path d="M6.16016 14.7628C6.16016 13.6977 7.57075 11.8695 10.5004 11.8695C13.4301 11.8695 14.8407 13.6977 14.8407 14.7628V15.3417C14.8407 15.572 14.7493 15.7928 14.5865 15.9556C14.4237 16.1183 14.2029 16.2098 13.9727 16.2098H7.02821C6.79799 16.2098 6.5772 16.1183 6.4144 15.9556C6.25161 15.7928 6.16016 15.572 6.16016 15.3417V14.7628Z" fill="#F2ECFD"/>
</g>
<defs>
<clipPath id="clip0_16673_96795">
<rect x="0.5" width="20" height="22" rx="4" fill="white"/>
</clipPath>
</defs>
</svg>
