<svg width="14" height="14" viewBox="0 0 14 14" fill="none" xmlns="http://www.w3.org/2000/svg">
<path d="M1.79167 11.7355C1.79167 11.7997 1.80445 11.8609 1.8276 11.9167C1.85062 11.9724 1.8847 12.0245 1.92985 12.0698L1.93085 12.0708C2.01649 12.1562 2.13466 12.209 2.26515 12.209L6.05303 12.209C6.31453 12.209 6.52652 11.997 6.52652 11.7355C6.52652 11.474 6.31453 11.262 6.05303 11.262L3.40825 11.262L6.38784 8.28242C6.57274 8.09752 6.57274 7.79772 6.38784 7.61282C6.20293 7.42791 5.90313 7.42791 5.71823 7.61282L2.73864 10.5924L2.73864 7.94762C2.73864 7.68612 2.52665 7.47414 2.26515 7.47414C2.00365 7.47414 1.79167 7.68612 1.79167 7.94762L1.79167 11.7355Z" fill="#00204D" fill-opacity="0.7" style="mix-blend-mode:multiply"/>
<path d="M7.61217 5.71888C7.42726 5.90378 7.42726 6.20358 7.61217 6.38849C7.79707 6.57339 8.09687 6.57339 8.28177 6.38849L11.2614 3.4089L11.2614 6.05368C11.2614 6.31518 11.4734 6.52717 11.7348 6.52717C11.9963 6.52717 12.2083 6.31518 12.2083 6.05368L12.2083 2.2658C12.2083 2.2016 12.1956 2.14039 12.1724 2.08456C12.1493 2.02871 12.115 1.97639 12.0697 1.931C12.0243 1.8856 11.9719 1.85135 11.9161 1.82824C11.8653 1.80723 11.8116 1.79544 11.7576 1.79286C11.75 1.7925 11.7424 1.79232 11.7348 1.79232L7.94697 1.79232C7.68547 1.79232 7.47349 2.0043 7.47349 2.2658C7.47349 2.5273 7.68547 2.73929 7.94697 2.73929L10.5918 2.73929L7.61217 5.71888Z" fill="#00204D" fill-opacity="0.7" style="mix-blend-mode:multiply"/>
</svg>
