<svg width="20" height="20" viewBox="0 0 20 20" fill="none" xmlns="http://www.w3.org/2000/svg">
<path fill-rule="evenodd" clip-rule="evenodd" d="M3.62346 17.7036C3.63199 17.7109 3.64067 17.7181 3.6495 17.7251C5.37657 19.1465 7.58861 20 10 20C12.4095 20 14.6199 19.1479 16.3464 17.7285L16.3507 17.7251C16.3608 17.717 16.3707 17.7088 16.3805 17.7003C18.5917 15.8661 20 13.0975 20 10C20 4.47715 15.5228 0 10 0C4.47715 0 0 4.47715 0 10C0 13.0993 1.40997 15.8693 3.62346 17.7036ZM1.66667 10C1.66667 5.39763 5.39763 1.66667 10 1.66667C14.6024 1.66667 18.3333 5.39763 18.3333 10C18.3333 12.0013 17.6279 13.8378 16.4521 15.2744C16.1824 14.5599 15.6706 13.9473 14.9866 13.5565L13.2745 12.5768C13.8333 11.8677 14.1667 10.9728 14.1667 10V8.33333C14.1667 6.03226 12.3011 4.16667 10 4.16667C7.69893 4.16667 5.83333 6.03226 5.83333 8.33333V10C5.83333 10.972 6.1662 11.8663 6.72416 12.5751L5.01268 13.5567C4.32875 13.9475 3.8173 14.5599 3.54778 15.2742C2.37206 13.8376 1.66667 12.0012 1.66667 10ZM15 16.6673C13.6072 17.7134 11.876 18.3333 10 18.3333C8.12399 18.3333 6.39277 17.7134 5 16.6673V16.4508C5 15.8523 5.32055 15.3002 5.83995 15.0036L8.09825 13.7083C8.6684 14.0013 9.3149 14.1667 10 14.1667C10.6839 14.1667 11.3294 14.0019 11.8988 13.7098L14.16 15.0037C14.6794 15.3004 15 15.8525 15 16.4509V16.6673ZM10 5.83333C8.6194 5.83333 7.5 6.95274 7.5 8.33333V10C7.5 10.8511 7.92547 11.603 8.5753 12.0545L8.58521 12.0614C8.98753 12.338 9.47487 12.5 10 12.5C10.518 12.5 10.9992 12.3424 11.3983 12.0726C11.4108 12.0635 11.4235 12.0547 11.4364 12.0464C12.0796 11.594 12.5 10.846 12.5 10V8.33333C12.5 6.95274 11.3806 5.83333 10 5.83333Z" fill="#00204D" fill-opacity="0.7" style="mix-blend-mode:multiply"/>
</svg>
