<svg width="22" height="22" viewBox="0 0 22 22" fill="none" xmlns="http://www.w3.org/2000/svg">
<path fill-rule="evenodd" clip-rule="evenodd" d="M6.83208 3.62313C7.97828 2.47694 9.53286 1.83301 11.1538 1.83301C12.7748 1.83301 14.3294 2.47694 15.4756 3.62313C16.6218 4.76933 17.2657 6.32391 17.2657 7.94488V10.2368C17.2657 11.2187 17.6913 11.8246 18.2206 12.4244C18.2818 12.4938 18.349 12.5678 18.4193 12.6452C18.6322 12.8796 18.8729 13.1445 19.0572 13.4026C19.3224 13.7738 19.5577 14.2387 19.5577 14.8207C19.5577 15.4688 19.1803 15.9728 18.7263 16.3283C18.2722 16.6839 17.6565 16.9642 16.9472 17.1836C15.5206 17.6249 13.5275 17.8767 11.1538 17.8767C8.7802 17.8767 6.78707 17.6249 5.36051 17.1836C4.65112 16.9642 4.03545 16.6839 3.58134 16.3283C3.12738 15.9728 2.75 15.4688 2.75 14.8207C2.75 14.2387 2.98527 13.7738 3.25042 13.4026C3.43476 13.1445 3.67546 12.8796 3.88832 12.6452C3.95863 12.5678 4.0259 12.4938 4.0871 12.4244C4.61635 11.8246 5.04195 11.2187 5.04195 10.2368V7.94488C5.04195 6.32391 5.68588 4.76933 6.83208 3.62313ZM11.1538 3.36098C9.9381 3.36098 8.77217 3.84392 7.91252 4.70357C7.05287 5.56322 6.56992 6.72916 6.56992 7.94488V10.2368C6.56992 11.7761 5.84955 12.7364 5.23283 13.4354C5.13359 13.5478 5.04346 13.6471 4.96088 13.738C4.77174 13.9463 4.62222 14.1109 4.49378 14.2907C4.3292 14.5211 4.27797 14.677 4.27797 14.8207C4.2779 14.8242 4.27564 14.9313 4.52337 15.1253C4.77356 15.3212 5.19404 15.5327 5.81208 15.7239C7.04036 16.1039 8.86716 16.3487 11.1538 16.3487C13.4405 16.3487 15.2673 16.1039 16.4956 15.7239C17.1136 15.5327 17.5341 15.3212 17.7843 15.1253C18.032 14.9313 18.0298 14.8243 18.0297 14.8208C18.0297 14.677 17.9785 14.5211 17.8139 14.2907C17.6854 14.1109 17.5359 13.9463 17.3468 13.738C17.2642 13.6471 17.1741 13.5478 17.0748 13.4354C16.4581 12.7364 15.7377 11.7761 15.7377 10.2368V7.94488C15.7377 6.72916 15.2548 5.56322 14.3951 4.70357C13.5355 3.84392 12.3696 3.36098 11.1538 3.36098Z" fill="white"/>
<path d="M11.1538 18.6407C10.3815 18.6407 9.65567 18.6147 8.97267 18.5643C9.11828 19.0288 9.40837 19.4347 9.80069 19.7228C10.193 20.011 10.6671 20.1664 11.1538 20.1664C11.6406 20.1664 12.1147 20.011 12.507 19.7228C12.8993 19.4347 13.1894 19.0288 13.335 18.5643C12.652 18.6147 11.9262 18.6407 11.1538 18.6407Z" fill="white"/>
</svg>
