<svg width="23" height="22" viewBox="0 0 23 22" fill="none" xmlns="http://www.w3.org/2000/svg">
<path d="M17.5157 9.47285V7.94488C17.5157 6.32391 16.8718 4.76933 15.7256 3.62314C14.5794 2.47694 13.0248 1.83301 11.4038 1.83301C9.78286 1.83301 8.22828 2.47694 7.08208 3.62314C5.93588 4.76933 5.29195 6.32391 5.29195 7.94488V9.47285C5.27319 9.93886 5.15856 10.396 4.9552 10.8157C4.75185 11.2354 4.46415 11.6087 4.11007 11.9123C3.47382 12.4544 3.07532 13.2243 3 14.0568C3 15.9667 6.1415 17.1127 11.4038 17.1127C16.6662 17.1127 19.8077 15.9667 19.8077 14.0568C19.7323 13.2243 19.3338 12.4544 18.6976 11.9123C18.3435 11.6087 18.0558 11.2354 17.8525 10.8157C17.6491 10.396 17.5345 9.93886 17.5157 9.47285Z" fill="#6F2CED"/>
<path d="M9.22266 18.5643C9.36827 19.0288 9.65835 19.4346 10.0507 19.7228C10.443 20.0109 10.9171 20.1663 11.4038 20.1663C11.8906 20.1663 12.3647 20.0109 12.757 19.7228C13.1493 19.4346 13.4394 19.0288 13.585 18.5643C12.902 18.6147 12.1762 18.6407 11.4038 18.6407C10.6314 18.6407 9.90566 18.6162 9.22266 18.5643Z" fill="#6F2CED"/>
</svg>
