<svg width="23" height="22" viewBox="0 0 23 22" fill="none" xmlns="http://www.w3.org/2000/svg">
<path fill-rule="evenodd" clip-rule="evenodd" d="M7.08208 3.62313C8.22828 2.47694 9.78286 1.83301 11.4038 1.83301C13.0248 1.83301 14.5794 2.47694 15.7256 3.62313C16.8718 4.76933 17.5157 6.32391 17.5157 7.94488V10.2368C17.5157 11.2187 17.9413 11.8246 18.4706 12.4244C18.5318 12.4938 18.599 12.5678 18.6693 12.6452C18.8822 12.8796 19.1229 13.1445 19.3072 13.4026C19.5724 13.7738 19.8077 14.2387 19.8077 14.8207C19.8077 15.4688 19.4303 15.9728 18.9763 16.3283C18.5222 16.6839 17.9065 16.9642 17.1972 17.1836C15.7706 17.6249 13.7775 17.8767 11.4038 17.8767C9.0302 17.8767 7.03707 17.6249 5.61051 17.1836C4.90112 16.9642 4.28545 16.6839 3.83134 16.3283C3.37738 15.9728 3 15.4688 3 14.8207C3 14.2387 3.23527 13.7738 3.50042 13.4026C3.68476 13.1445 3.92546 12.8796 4.13832 12.6452C4.20863 12.5678 4.2759 12.4938 4.3371 12.4244C4.86635 11.8246 5.29195 11.2187 5.29195 10.2368V7.94488C5.29195 6.32391 5.93588 4.76933 7.08208 3.62313ZM11.4038 3.36098C10.1881 3.36098 9.02217 3.84392 8.16252 4.70357C7.30287 5.56322 6.81992 6.72916 6.81992 7.94488V10.2368C6.81992 11.7761 6.09955 12.7364 5.48283 13.4354C5.38359 13.5478 5.29346 13.6471 5.21088 13.738C5.02174 13.9463 4.87222 14.1109 4.74378 14.2907C4.5792 14.5211 4.52797 14.677 4.52797 14.8207C4.5279 14.8242 4.52564 14.9313 4.77337 15.1253C5.02356 15.3212 5.44404 15.5327 6.06208 15.7239C7.29036 16.1039 9.11716 16.3487 11.4038 16.3487C13.6905 16.3487 15.5173 16.1039 16.7456 15.7239C17.3636 15.5327 17.7841 15.3212 18.0343 15.1253C18.282 14.9313 18.2798 14.8243 18.2797 14.8208C18.2797 14.677 18.2285 14.5211 18.0639 14.2907C17.9354 14.1109 17.7859 13.9463 17.5968 13.738C17.5142 13.6471 17.4241 13.5478 17.3248 13.4354C16.7081 12.7364 15.9877 11.7761 15.9877 10.2368V7.94488C15.9877 6.72916 15.5048 5.56322 14.6451 4.70357C13.7855 3.84392 12.6196 3.36098 11.4038 3.36098Z" fill="#00204D" fill-opacity="0.7" style="mix-blend-mode:multiply"/>
<path d="M11.4038 18.6407C10.6315 18.6407 9.90567 18.6147 9.22267 18.5643C9.36828 19.0288 9.65837 19.4347 10.0507 19.7228C10.443 20.011 10.9171 20.1664 11.4038 20.1664C11.8906 20.1664 12.3647 20.011 12.757 19.7228C13.1493 19.4347 13.4394 19.0288 13.585 18.5643C12.902 18.6147 12.1762 18.6407 11.4038 18.6407Z" fill="#00204D" fill-opacity="0.7" style="mix-blend-mode:multiply"/>
</svg>
