<svg width="23" height="22" viewBox="0 0 23 22" fill="none" xmlns="http://www.w3.org/2000/svg">
<path fill-rule="evenodd" clip-rule="evenodd" d="M11.75 3.36176C7.53117 3.36176 4.11112 6.78181 4.11112 11.0007C4.11112 15.2195 7.53117 18.6395 11.75 18.6395C15.9689 18.6395 19.3889 15.2195 19.3889 11.0007C19.3889 6.78181 15.9689 3.36176 11.75 3.36176ZM2.58334 11.0007C2.58334 5.93804 6.6874 1.83398 11.75 1.83398C16.8126 1.83398 20.9167 5.93804 20.9167 11.0007C20.9167 16.0633 16.8126 20.1673 11.75 20.1673C6.6874 20.1673 2.58334 16.0633 2.58334 11.0007Z" fill="#00204D" fill-opacity="0.7" style="mix-blend-mode:multiply"/>
<path fill-rule="evenodd" clip-rule="evenodd" d="M11.75 9.47287C12.1719 9.47287 12.5139 9.81488 12.5139 10.2368V14.8201C12.5139 15.242 12.1719 15.584 11.75 15.584C11.3281 15.584 10.9861 15.242 10.9861 14.8201V10.2368C10.9861 9.81488 11.3281 9.47287 11.75 9.47287Z" fill="#00204D" fill-opacity="0.7" style="mix-blend-mode:multiply"/>
<path d="M11.75 7.9451C12.1719 7.9451 12.5139 7.60309 12.5139 7.18121C12.5139 6.75932 12.1719 6.41732 11.75 6.41732C11.3281 6.41732 10.9861 6.75932 10.9861 7.18121C10.9861 7.60309 11.3281 7.9451 11.75 7.9451Z" fill="#00204D" fill-opacity="0.7" style="mix-blend-mode:multiply"/>
</svg>
