<svg width="23" height="22" viewBox="0 0 23 22" fill="none" xmlns="http://www.w3.org/2000/svg">
<path d="M11.75 1.83398C9.93699 1.83398 8.16471 2.3716 6.65726 3.37885C5.14981 4.38609 3.97489 5.81773 3.28109 7.49272C2.58728 9.16771 2.40575 11.0108 2.75945 12.789C3.11315 14.5671 3.98619 16.2005 5.26817 17.4825C6.55015 18.7644 8.1835 19.6375 9.96165 19.9912C11.7398 20.3449 13.5829 20.1633 15.2579 19.4695C16.9329 18.7757 18.3645 17.6008 19.3718 16.0934C20.379 14.5859 20.9166 12.8136 20.9166 11.0006C20.914 8.5703 19.9474 6.24025 18.2289 4.52174C16.5104 2.80323 14.1803 1.83661 11.75 1.83398V1.83398ZM12.5353 16.137H10.9578V9.47287H12.5353V16.137ZM12.4046 7.37905C12.3176 7.45882 12.2154 7.52022 12.1041 7.5596C11.9928 7.59897 11.8747 7.61551 11.7569 7.60822C11.6369 7.6162 11.5165 7.60003 11.4029 7.56067C11.2892 7.52131 11.1847 7.45955 11.0953 7.37905C11.0164 7.29408 10.9555 7.19407 10.9161 7.085C10.8767 6.97593 10.8597 6.86004 10.8662 6.74426C10.8582 6.62579 10.8744 6.50692 10.9138 6.3949C10.9532 6.28289 11.0149 6.18005 11.0953 6.09266C11.1849 6.01253 11.2895 5.951 11.4031 5.91166C11.5167 5.87232 11.6369 5.85595 11.7569 5.8635C11.8747 5.85664 11.9926 5.87338 12.1039 5.91274C12.2151 5.95209 12.3174 6.01326 12.4046 6.09266C12.485 6.18005 12.5468 6.28289 12.5862 6.3949C12.6256 6.50692 12.6418 6.62579 12.6338 6.74426C12.6402 6.86004 12.6233 6.97593 12.5839 7.085C12.5445 7.19407 12.4835 7.29408 12.4046 7.37905Z" fill="#62248F"/>
</svg>
