<svg width="16" height="16" viewBox="0 0 16 16" fill="none" xmlns="http://www.w3.org/2000/svg">
<path d="M11.8889 2.99967V1.88856C11.8889 1.74122 11.8304 1.59991 11.7262 1.49573C11.622 1.39154 11.4807 1.33301 11.3334 1.33301C11.186 1.33301 11.0447 1.39154 10.9405 1.49573C10.8364 1.59991 10.7778 1.74122 10.7778 1.88856V2.99967H11.8889Z" fill="#00204D" fill-opacity="0.7" style="mix-blend-mode:multiply"/>
<path d="M5.22226 2.99967V1.88856C5.22226 1.74122 5.16373 1.59991 5.05954 1.49573C4.95536 1.39154 4.81405 1.33301 4.66671 1.33301C4.51937 1.33301 4.37806 1.39154 4.27387 1.49573C4.16968 1.59991 4.11115 1.74122 4.11115 1.88856V2.99967H5.22226Z" fill="#00204D" fill-opacity="0.7" style="mix-blend-mode:multiply"/>
<path d="M13 14.1108H3.00004C2.55801 14.1108 2.13409 13.9352 1.82153 13.6226C1.50897 13.3101 1.33337 12.8861 1.33337 12.4441V5.2219C1.33337 4.77987 1.50897 4.35595 1.82153 4.04339C2.13409 3.73082 2.55801 3.55523 3.00004 3.55523H13C13.4421 3.55523 13.866 3.73082 14.1786 4.04339C14.4911 4.35595 14.6667 4.77987 14.6667 5.2219V12.4441C14.6667 12.8861 14.4911 13.3101 14.1786 13.6226C13.866 13.9352 13.4421 14.1108 13 14.1108ZM13.5556 6.33301H2.44449V12.4441C2.44449 12.5915 2.50302 12.7328 2.6072 12.837C2.71139 12.9411 2.8527 12.9997 3.00004 12.9997H13C13.1474 12.9997 13.2887 12.9411 13.3929 12.837C13.4971 12.7328 13.5556 12.5915 13.5556 12.4441V6.33301Z" fill="#00204D" fill-opacity="0.7" style="mix-blend-mode:multiply"/>
<path d="M5.77782 7.44412H3.5556V9.11079H5.77782V7.44412Z" fill="#00204D" fill-opacity="0.7" style="mix-blend-mode:multiply"/>
<path d="M9.11115 7.44412H6.88893V9.11079H9.11115V7.44412Z" fill="#00204D" fill-opacity="0.7" style="mix-blend-mode:multiply"/>
<path d="M5.77782 10.2219H3.5556V11.8886H5.77782V10.2219Z" fill="#00204D" fill-opacity="0.7" style="mix-blend-mode:multiply"/>
<path d="M9.11115 10.2219H6.88893V11.8886H9.11115V10.2219Z" fill="#00204D" fill-opacity="0.7" style="mix-blend-mode:multiply"/>
<path d="M12.4445 7.44412H10.2223V9.11079H12.4445V7.44412Z" fill="#00204D" fill-opacity="0.7" style="mix-blend-mode:multiply"/>
</svg>
