<svg width="16" height="16" viewBox="0 0 16 16" fill="none" xmlns="http://www.w3.org/2000/svg">
<path fill-rule="evenodd" clip-rule="evenodd" d="M11.6254 4.1576C11.652 4.20422 11.6987 4.23751 11.7587 4.23751C13.3587 4.23751 14.6654 5.54273 14.6654 7.14095V11.0966C14.6654 12.6948 13.3587 14 11.7587 14H4.2387C2.63203 14 1.33203 12.6948 1.33203 11.0966V7.14095C1.33203 5.54273 2.63203 4.23751 4.2387 4.23751C4.29203 4.23751 4.34536 4.21088 4.36536 4.1576L4.40536 4.07769C4.42835 4.02932 4.45194 3.97963 4.47588 3.92919C4.64643 3.56996 4.83511 3.17253 4.95203 2.93896C5.2587 2.33962 5.7787 2.00666 6.42536 2H9.56536C10.212 2.00666 10.7387 2.33962 11.0454 2.93896C11.1504 3.14872 11.3103 3.48661 11.4645 3.81228C11.4963 3.87948 11.5279 3.94617 11.5587 4.0111L11.6254 4.1576ZM11.1387 6.71476C11.1387 7.04772 11.4054 7.3141 11.7387 7.3141C12.072 7.3141 12.3454 7.04772 12.3454 6.71476C12.3454 6.3818 12.072 6.10877 11.7387 6.10877C11.4054 6.10877 11.1387 6.3818 11.1387 6.71476ZM6.84536 7.74695C7.1587 7.43396 7.56536 7.26748 7.9987 7.26748C8.43203 7.26748 8.8387 7.43396 9.14536 7.74029C9.45203 8.04661 9.6187 8.45283 9.6187 8.88568C9.61203 9.77802 8.89203 10.5039 7.9987 10.5039C7.56536 10.5039 7.1587 10.3374 6.85203 10.0311C6.54536 9.72475 6.3787 9.31853 6.3787 8.88568V8.87902C6.37203 8.45949 6.5387 8.05327 6.84536 7.74695ZM9.84536 10.737C9.37203 11.2098 8.7187 11.5028 7.9987 11.5028C7.2987 11.5028 6.64536 11.2297 6.14536 10.737C5.65203 10.2375 5.3787 9.58491 5.3787 8.88568C5.37203 8.19312 5.64536 7.54051 6.1387 7.04107C6.6387 6.54162 7.2987 6.26859 7.9987 6.26859C8.6987 6.26859 9.3587 6.54162 9.85203 7.03441C10.3454 7.53385 10.6187 8.19312 10.6187 8.88568C10.612 9.61154 10.3187 10.2642 9.84536 10.737Z" fill="#6F2CED"/>
</svg>
