<svg width="57" height="56" viewBox="0 0 57 56" fill="none" xmlns="http://www.w3.org/2000/svg">
<rect x="0.5" width="56" height="56" rx="28" fill="#F2F5F8"/>
<path d="M28.5001 13.416C25.6158 13.416 22.7962 14.2713 20.398 15.8737C17.9998 17.4762 16.1306 19.7538 15.0268 22.4185C13.9231 25.0833 13.6343 28.0155 14.197 30.8444C14.7597 33.6733 16.1486 36.2718 18.1881 38.3113C20.2276 40.3508 22.8261 41.7398 25.655 42.3025C28.4839 42.8652 31.4161 42.5764 34.0809 41.4726C36.7456 40.3688 39.0232 38.4996 40.6257 36.1014C42.2281 33.7032 43.0834 30.8837 43.0834 27.9993C43.0722 24.1351 41.5321 20.4322 38.7997 17.6998C36.0672 14.9673 32.3644 13.4272 28.5001 13.416V13.416ZM34.5157 32.2966L32.7973 34.015L28.5001 29.7177L24.2029 34.015L22.4845 32.2966L26.7817 27.9993L22.4845 23.7021L24.2029 21.9837L28.5001 26.2809L32.7973 21.9837L34.5157 23.7021L30.2185 27.9993L34.5157 32.2966Z" fill="#E14337"/>
</svg>
