<svg width="18" height="18" viewBox="0 0 18 18" fill="none" xmlns="http://www.w3.org/2000/svg">
<path d="M1.5922 1.58301H0.00648499V9.7386H1.5922V1.58301Z" fill="#F06E28"/>
<path d="M11.1187 11.1084H9.533V17.9982H11.1187V11.1084Z" fill="#50B946"/>
<path d="M18.0001 1.58008H16.4502V3.49178H18.0001V1.58008Z" fill="#0A52A0"/>
<path d="M11.1082 14.8105V16.4076H15.3464V14.8105H11.1082Z" fill="#50B946"/>
<path d="M8.47104 1.57995V1.58054H0.00648499V0H6.89297L8.47104 1.57995Z" fill="#F06E28"/>
<path d="M1.58571 9.53125H0V16.421H1.58571V9.53125Z" fill="#F06E28"/>
<path d="M10.5876 8.95423L9.46635 7.83203L7.00444 10.296L8.12566 11.4181L10.5876 8.95423Z" fill="#0A52A0"/>
<path d="M8.1248 11.4217L9.24602 10.2995L4.37826 5.42773L3.257 6.54993L8.1248 11.4217Z" fill="#0A52A0"/>
<path d="M17.9964 9.52832H17.997V17.9992H16.4178V11.1071L17.9964 9.52832Z" fill="#50B946"/>
<path d="M11.1165 0.00195312H9.53075V6.89171H11.1165V0.00195312Z" fill="#0A52A0"/>
<path d="M9.53075 6.89219V6.8916H17.9953V8.47214H11.1088L9.53075 6.89219Z" fill="#0A52A0"/>
<path d="M17.9953 1.57995V1.58054H9.53075V0H16.4172L17.9953 1.57995Z" fill="#0A52A0"/>
<path d="M12.1747 3.46484V5.01599H18.0003V3.46484H12.1747Z" fill="#0A52A0"/>
<path d="M9.53366 11.1083V11.1089H17.9976V9.52832H11.1111L9.53366 11.1083Z" fill="#50B946"/>
<path d="M0.000213623 16.3984V17.9954H8.48654V16.3984H0.000213623Z" fill="#F06E28"/>
</svg>
