<svg width="140" height="172" viewBox="0 0 140 172" fill="none" xmlns="http://www.w3.org/2000/svg">
<g filter="url(#filter0_di_16693_99253)">
<rect x="12.1211" width="83.6061" height="155" rx="15.0303" fill="#F6EEFC"/>
</g>
<rect x="15.8789" y="3.75781" width="76.0909" height="129.636" rx="11.2727" fill="white"/>
<rect x="39.3633" y="139.969" width="30.0606" height="5.63636" rx="2.81818" fill="white"/>
<path d="M135.961 23.4844H55.4977C53.3329 23.4844 51.5781 25.2393 51.5781 27.404V57.6507C51.5781 59.8153 53.3329 61.5703 55.4977 61.5703H135.961C138.126 61.5703 139.881 59.8155 139.881 57.6507V27.404C139.881 25.2393 138.126 23.4844 135.961 23.4844Z" fill="url(#paint0_linear_16693_99253)"/>
<path d="M132.043 28.207H59.4193C57.643 28.207 56.2031 29.6469 56.2031 31.4232V53.6327C56.2031 55.409 57.643 56.8488 59.4193 56.8488H132.043C133.819 56.8488 135.259 55.409 135.259 53.6327V31.4232C135.259 29.6469 133.82 28.207 132.043 28.207Z" fill="url(#paint1_linear_16693_99253)"/>
<path d="M93.5637 56.8489H69.8665L62.132 49.1146C61.5865 48.7799 61.3217 48.257 61.3217 47.5773C61.3217 47.0856 61.5098 46.6702 61.7743 46.3663L62.9997 44.7956L59.8652 41.5786C59.1978 41.2955 59.0508 40.6074 59.0508 39.7436C59.0508 38.76 59.7475 37.834 60.9585 37.834C61.0721 37.834 61.2622 37.834 61.5267 37.9476L65.6737 39.2349L65.4836 35.2017C65.5229 33.9516 66.2959 33.5586 67.3538 33.5586C68.1494 33.5586 68.8602 33.7035 69.1805 34.3918L73.003 38.082C73.003 38.082 73.6005 37.834 73.7885 37.834C74.4704 37.834 75.0242 38.0844 75.3672 38.6526L81.5891 44.8745L93.5637 56.8489Z" fill="url(#paint2_linear_16693_99253)"/>
<path d="M112.509 56.8464H88.8118L81.0773 49.112C80.5318 48.7773 80.267 48.2544 80.267 47.5746C80.267 47.0829 80.4551 46.6675 80.7196 46.3637L81.945 44.7929L78.8106 41.5759C78.1431 41.2928 77.9961 40.6048 77.9961 39.741C77.9961 38.7573 78.6928 37.8314 79.9036 37.8314C80.0172 37.8314 80.2073 37.8314 80.4719 37.945L84.6188 39.2323L84.4287 35.1991C84.468 33.949 85.2411 33.3828 86.2992 33.3828C87.0948 33.3828 87.8034 33.7011 88.1258 34.3891L91.775 37.906L92.1656 37.7716C92.3557 37.6972 92.5458 37.6581 92.7338 37.6581C93.4157 37.6581 93.9696 38.0817 94.3126 38.65L112.509 56.8464Z" fill="url(#paint3_linear_16693_99253)"/>
<path d="M131.448 56.8466H107.753L100.018 49.1121C99.4728 48.7775 99.0327 48.2546 99.0327 47.5748C99.0327 47.0831 99.2228 46.6677 99.4873 46.3639L100.535 44.8719L100.713 44.6198L97.7495 41.5761C97.0841 41.293 96.7617 40.605 96.7617 39.7411C96.7617 38.7575 97.6337 37.6582 98.8446 37.6582C98.9582 37.6582 99.1462 37.6582 99.4129 37.7718L103.387 39.0591L103.196 35.1991C103.236 33.949 104.18 33.3828 105.24 33.3828C106.036 33.3828 106.744 33.7011 107.067 34.3891L110.716 37.906L111.106 37.7716C111.296 37.6972 111.484 37.6581 111.675 37.6581C112.356 37.6581 112.908 38.0817 113.253 38.65L119.475 44.8719L131.448 56.8466Z" fill="url(#paint4_linear_16693_99253)"/>
<path d="M135.257 41.7167V53.6293C135.257 55.4064 133.817 56.8466 132.042 56.8466H126.688L118.953 49.1121C118.41 48.7775 117.97 48.2546 117.97 47.5748C117.97 47.0831 118.16 46.6677 118.424 46.3639L119.472 44.8719L119.65 44.6198L116.687 41.5761C116.021 41.293 115.699 40.605 115.699 39.7411C115.699 38.7575 116.571 37.6582 117.782 37.6582C117.896 37.6582 118.084 37.6582 118.348 37.7718L122.324 39.0591L122.134 35.1991C122.171 33.949 123.118 33.3828 124.178 33.3828C124.973 33.3828 125.682 33.7011 126.004 34.3891L129.651 37.906L130.044 37.7716C130.234 37.6972 130.422 37.6581 130.612 37.6581C131.294 37.6581 131.846 38.0817 132.191 38.65L135.257 41.7167Z" fill="url(#paint5_linear_16693_99253)"/>
<path d="M73.2612 46.4025C73.4504 46.6294 73.5638 47.0838 73.5638 47.5C73.5638 48.7111 72.3527 49.5438 71.2552 49.5438C70.8389 49.5438 70.2334 49.4681 69.817 48.8247L67.3568 45.0398L64.8589 48.8625C64.5183 49.4302 64.0642 49.5438 63.5342 49.5438C62.6257 49.5438 61.1498 48.8247 61.1498 47.5757C61.1498 47.0838 61.3391 46.6674 61.604 46.3645L64.1019 42.8068L60.1659 41.6713C59.2953 41.4821 58.8789 40.7251 58.8789 39.7411C58.8789 38.757 59.7495 37.6594 60.9606 37.6594C61.0742 37.6594 61.2634 37.6594 61.5283 37.773L65.5025 39.0598L65.3131 35.1994C65.351 33.9505 66.2972 33.3828 67.3568 33.3828C68.4167 33.3828 69.325 33.9505 69.3629 35.1994L69.2114 39.1357L73.2233 37.773C73.4125 37.6974 73.6018 37.6594 73.791 37.6594C74.9644 37.6594 75.7591 38.9085 75.7591 40.006C75.7591 40.763 75.3806 41.4821 74.4723 41.6713L70.6118 42.5796L73.2612 46.4025Z" fill="white"/>
<path d="M92.1987 46.4025C92.3879 46.6294 92.5013 47.0838 92.5013 47.5C92.5013 48.7111 91.2902 49.5438 90.1927 49.5438C89.7764 49.5438 89.1709 49.4681 88.7545 48.8247L86.2943 45.0398L83.7964 48.8625C83.4558 49.4302 83.0017 49.5438 82.4717 49.5438C81.5632 49.5438 80.0873 48.8247 80.0873 47.5757C80.0873 47.0838 80.2766 46.6674 80.5415 46.3645L83.0394 42.8068L79.1034 41.6713C78.2328 41.4821 77.8164 40.7251 77.8164 39.7411C77.8164 38.757 78.687 37.6594 79.8981 37.6594C80.0117 37.6594 80.2009 37.6594 80.4658 37.773L84.44 39.0598L84.2506 35.1994C84.2885 33.9505 85.2347 33.3828 86.2943 33.3828C87.3542 33.3828 88.2625 33.9505 88.3004 35.1994L88.1489 39.1357L92.1608 37.773C92.35 37.6974 92.5393 37.6594 92.7285 37.6594C93.9019 37.6594 94.6966 38.9085 94.6966 40.006C94.6966 40.763 94.3181 41.4821 93.4098 41.6713L89.5493 42.5796L92.1987 46.4025Z" fill="white"/>
<path d="M111.144 46.4025C111.333 46.6294 111.447 47.0838 111.447 47.5C111.447 48.7111 110.236 49.5438 109.138 49.5438C108.722 49.5438 108.116 49.4681 107.7 48.8247L105.24 45.0398L102.742 48.8625C102.401 49.4302 101.947 49.5438 101.417 49.5438C100.509 49.5438 99.0327 48.8247 99.0327 47.5757C99.0327 47.0838 99.2219 46.6674 99.4868 46.3645L101.985 42.8068L98.0487 41.6713C97.1781 41.4821 96.7617 40.7251 96.7617 39.7411C96.7617 38.757 97.6323 37.6594 98.8434 37.6594C98.957 37.6594 99.1462 37.6594 99.4112 37.773L103.385 39.0598L103.196 35.1994C103.234 33.9505 104.18 33.3828 105.24 33.3828C106.299 33.3828 107.208 33.9505 107.246 35.1994L107.094 39.1357L111.106 37.773C111.295 37.6974 111.485 37.6594 111.674 37.6594C112.847 37.6594 113.642 38.9085 113.642 40.006C113.642 40.763 113.263 41.4821 112.355 41.6713L108.495 42.5796L111.144 46.4025Z" fill="white"/>
<path d="M130.082 46.4025C130.271 46.6294 130.384 47.0838 130.384 47.5C130.384 48.7111 129.173 49.5438 128.075 49.5438C127.659 49.5438 127.054 49.4681 126.637 48.8247L124.177 45.0398L121.679 48.8625C121.339 49.4302 120.885 49.5438 120.355 49.5438C119.446 49.5438 117.97 48.8247 117.97 47.5757C117.97 47.0838 118.159 46.6674 118.424 46.3645L120.922 42.8068L116.986 41.6713C116.116 41.4821 115.699 40.7251 115.699 39.7411C115.699 38.757 116.57 37.6594 117.781 37.6594C117.894 37.6594 118.084 37.6594 118.349 37.773L122.323 39.0598L122.133 35.1994C122.171 33.9505 123.118 33.3828 124.177 33.3828C125.237 33.3828 126.145 33.9505 126.183 35.1994L126.032 39.1357L130.044 37.773C130.233 37.6974 130.422 37.6594 130.611 37.6594C131.785 37.6594 132.579 38.9085 132.579 40.006C132.579 40.763 132.201 41.4821 131.293 41.6713L127.432 42.5796L130.082 46.4025Z" fill="white"/>
<path d="M67.5469 70.6022V61.0605C67.5469 60.5417 67.9675 60.1211 68.4863 60.1211H83.1658C84.1009 60.1211 84.4618 61.3385 83.6778 61.8481L68.9982 71.3898C68.3733 71.796 67.5469 71.3476 67.5469 70.6022Z" fill="#835AF2"/>
<defs>
<filter id="filter0_di_16693_99253" x="0.848366" y="-11.2727" width="111.787" height="183.182" filterUnits="userSpaceOnUse" color-interpolation-filters="sRGB">
<feFlood flood-opacity="0" result="BackgroundImageFix"/>
<feColorMatrix in="SourceAlpha" type="matrix" values="0 0 0 0 0 0 0 0 0 0 0 0 0 0 0 0 0 0 127 0" result="hardAlpha"/>
<feOffset dx="2.81818" dy="2.81818"/>
<feGaussianBlur stdDeviation="7.04545"/>
<feColorMatrix type="matrix" values="0 0 0 0 0.426497 0 0 0 0 0.266417 0 0 0 0 0.766667 0 0 0 0.15 0"/>
<feBlend mode="normal" in2="BackgroundImageFix" result="effect1_dropShadow_16693_99253"/>
<feBlend mode="normal" in="SourceGraphic" in2="effect1_dropShadow_16693_99253" result="shape"/>
<feColorMatrix in="SourceAlpha" type="matrix" values="0 0 0 0 0 0 0 0 0 0 0 0 0 0 0 0 0 0 127 0" result="hardAlpha"/>
<feOffset dx="-1.87879" dy="-9.39394"/>
<feGaussianBlur stdDeviation="9.39394"/>
<feComposite in2="hardAlpha" operator="arithmetic" k2="-1" k3="1"/>
<feColorMatrix type="matrix" values="0 0 0 0 0.581432 0 0 0 0 0.575611 0 0 0 0 0.866667 0 0 0 0.4 0"/>
<feBlend mode="normal" in2="shape" result="effect2_innerShadow_16693_99253"/>
</filter>
<linearGradient id="paint0_linear_16693_99253" x1="84.3314" y1="-10.5836" x2="99.0175" y2="56.3632" gradientUnits="userSpaceOnUse">
<stop stop-color="#BDA4F4"/>
<stop offset="1" stop-color="#835AF2"/>
</linearGradient>
<linearGradient id="paint1_linear_16693_99253" x1="95.7313" y1="31.1704" x2="95.7313" y2="61.3506" gradientUnits="userSpaceOnUse">
<stop stop-color="#DBD0FB"/>
<stop offset="1" stop-color="#CDB8F9"/>
</linearGradient>
<linearGradient id="paint2_linear_16693_99253" x1="76.1935" y1="49.6605" x2="31.9136" y2="22.0131" gradientUnits="userSpaceOnUse">
<stop stop-color="#4173E2" stop-opacity="0"/>
<stop offset="1" stop-color="#4173E2"/>
</linearGradient>
<linearGradient id="paint3_linear_16693_99253" x1="93.978" y1="48.9037" x2="49.6981" y2="21.2561" gradientUnits="userSpaceOnUse">
<stop stop-color="#4173E2" stop-opacity="0"/>
<stop offset="1" stop-color="#4173E2"/>
</linearGradient>
<linearGradient id="paint4_linear_16693_99253" x1="113.539" y1="49.291" x2="69.1112" y2="21.5511" gradientUnits="userSpaceOnUse">
<stop stop-color="#4173E2" stop-opacity="0"/>
<stop offset="1" stop-color="#4173E2"/>
</linearGradient>
<linearGradient id="paint5_linear_16693_99253" x1="128.079" y1="46.546" x2="99.7476" y2="28.8565" gradientUnits="userSpaceOnUse">
<stop stop-color="#4173E2" stop-opacity="0"/>
<stop offset="1" stop-color="#4173E2"/>
</linearGradient>
</defs>
</svg>
