<svg width="16" height="16" viewBox="0 0 16 16" fill="none" xmlns="http://www.w3.org/2000/svg">
<g clip-path="url(#clip0_14775_39122)">
<path d="M1.88845 5.21612C1.77859 5.21609 1.6712 5.1835 1.57986 5.12245C1.48852 5.0614 1.41733 4.97464 1.37529 4.87314C1.33325 4.77164 1.32225 4.65995 1.34368 4.5522C1.3651 4.44444 1.418 4.34546 1.49567 4.26777L4.2735 1.48994C4.37828 1.38874 4.51862 1.33274 4.66428 1.33401C4.80995 1.33527 4.94929 1.3937 5.0523 1.49671C5.15531 1.59971 5.21373 1.73905 5.215 1.88472C5.21627 2.03039 5.16027 2.17073 5.05907 2.27551L2.28124 5.05333C2.17708 5.15753 2.03579 5.21608 1.88845 5.21612Z" fill="#E14337"/>
<path d="M14.1109 5.21612C13.9636 5.21608 13.8223 5.15753 13.7181 5.05333L10.9403 2.27551C10.8391 2.17073 10.7831 2.03039 10.7844 1.88472C10.7856 1.73905 10.844 1.59971 10.9471 1.49671C11.0501 1.3937 11.1894 1.33527 11.3351 1.33401C11.4807 1.33274 11.6211 1.38874 11.7259 1.48994L14.5037 4.26777C14.5814 4.34546 14.6343 4.44444 14.6557 4.5522C14.6771 4.65995 14.6661 4.77164 14.6241 4.87314C14.582 4.97464 14.5108 5.0614 14.4195 5.12245C14.3282 5.1835 14.2208 5.21609 14.1109 5.21612Z" fill="#E14337"/>
<path d="M11.9997 11.8423C12.757 11.0578 13.2667 10.0677 13.4652 8.99548C13.6638 7.92326 13.5424 6.81633 13.1162 5.81263C12.69 4.80892 11.9779 3.95283 11.0685 3.35103C10.1592 2.74923 9.09287 2.42833 8.00244 2.42833C6.912 2.42833 5.84567 2.74923 4.93633 3.35103C4.027 3.95283 3.31486 4.80892 2.88868 5.81263C2.46249 6.81633 2.3411 7.92326 2.53964 8.99548C2.73817 10.0677 3.24784 11.0578 4.00514 11.8423L2.55512 13.7718C2.51134 13.8302 2.47949 13.8966 2.46138 13.9673C2.44328 14.038 2.43927 14.1115 2.44959 14.1837C2.4599 14.256 2.48435 14.3254 2.52152 14.3882C2.55869 14.451 2.60786 14.5058 2.66623 14.5496C2.7246 14.5934 2.79101 14.6252 2.86169 14.6433C2.93236 14.6615 3.00591 14.6655 3.07814 14.6551C3.15036 14.6448 3.21985 14.6204 3.28263 14.5832C3.3454 14.546 3.40025 14.4969 3.44402 14.4385L4.84905 12.5646C5.77451 13.2059 6.87368 13.5496 7.99966 13.5496C9.12564 13.5496 10.2248 13.2059 11.1503 12.5646L12.5553 14.4385C12.5991 14.4969 12.6539 14.546 12.7167 14.5832C12.7795 14.6204 12.849 14.6448 12.9212 14.6551C12.9934 14.6655 13.067 14.6615 13.1376 14.6433C13.2083 14.6252 13.2747 14.5934 13.3331 14.5496C13.3915 14.5058 13.4406 14.451 13.4778 14.3882C13.515 14.3254 13.5394 14.256 13.5497 14.1837C13.56 14.1115 13.556 14.038 13.5379 13.9673C13.5198 13.8966 13.488 13.8302 13.4442 13.7718L11.9997 11.8423ZM10.7775 8.54951H7.99966C7.85231 8.54951 7.711 8.49098 7.60681 8.38679C7.50263 8.2826 7.44409 8.14129 7.44409 7.99394V5.21612C7.44409 5.06877 7.50263 4.92746 7.60681 4.82327C7.711 4.71908 7.85231 4.66055 7.99966 4.66055C8.147 4.66055 8.28831 4.71908 8.3925 4.82327C8.49669 4.92746 8.55522 5.06877 8.55522 5.21612V7.43838H10.7775C10.9248 7.43838 11.0661 7.49691 11.1703 7.6011C11.2745 7.70529 11.3331 7.8466 11.3331 7.99394C11.3331 8.14129 11.2745 8.2826 11.1703 8.38679C11.0661 8.49098 10.9248 8.54951 10.7775 8.54951Z" fill="#E14337"/>
</g>
<defs>
<clipPath id="clip0_14775_39122">
<rect width="16" height="16" rx="4" fill="white"/>
</clipPath>
</defs>
</svg>
