<svg width="23" height="22" viewBox="0 0 23 22" fill="none" xmlns="http://www.w3.org/2000/svg">
<path d="M18.8889 1.83398H3.61109C3.2059 1.83398 2.8173 1.99495 2.53079 2.28146C2.24427 2.56797 2.08331 2.95657 2.08331 3.36176L2.08331 13.2923C2.08331 13.6975 2.24427 14.0861 2.53079 14.3726C2.8173 14.6591 3.2059 14.8201 3.61109 14.8201H5.90276V19.4034L12.0139 14.8201H18.8889C19.2941 14.8201 19.6827 14.6591 19.9692 14.3726C20.2557 14.0861 20.4166 13.6975 20.4166 13.2923V3.36176C20.4166 2.95657 20.2557 2.56797 19.9692 2.28146C19.6827 1.99495 19.2941 1.83398 18.8889 1.83398Z" fill="#62248F"/>
</svg>
