<svg width="16" height="16" viewBox="0 0 16 16" fill="none" xmlns="http://www.w3.org/2000/svg">
<path d="M4.11176 7.44436C3.80494 7.44436 3.55621 7.69309 3.55621 7.99992V8.55547C3.55621 8.8623 3.80494 9.11103 4.11176 9.11103H5.22287C5.5297 9.11103 5.77843 8.8623 5.77843 8.55547V7.99992C5.77843 7.69309 5.5297 7.44436 5.22287 7.44436H4.11176Z" fill="#00204D" fill-opacity="0.7" style="mix-blend-mode:multiply"/>
<path d="M7.4451 7.44436C7.13827 7.44436 6.88954 7.69309 6.88954 7.99992V8.55547C6.88954 8.8623 7.13827 9.11103 7.4451 9.11103H8.55621C8.86303 9.11103 9.11176 8.8623 9.11176 8.55547V7.99992C9.11176 7.69309 8.86303 7.44436 8.55621 7.44436H7.4451Z" fill="#00204D" fill-opacity="0.7" style="mix-blend-mode:multiply"/>
<path d="M3.55621 10.7777C3.55621 10.4709 3.80494 10.2221 4.11176 10.2221H5.22287C5.5297 10.2221 5.77843 10.4709 5.77843 10.7777V11.3333C5.77843 11.6401 5.5297 11.8888 5.22287 11.8888H4.11176C3.80494 11.8888 3.55621 11.6401 3.55621 11.3333V10.7777Z" fill="#00204D" fill-opacity="0.7" style="mix-blend-mode:multiply"/>
<path d="M7.4451 10.2221C7.13827 10.2221 6.88954 10.4709 6.88954 10.7777V11.3333C6.88954 11.6401 7.13827 11.8888 7.4451 11.8888H8.55621C8.86303 11.8888 9.11176 11.6401 9.11176 11.3333V10.7777C9.11176 10.4709 8.86303 10.2221 8.55621 10.2221H7.4451Z" fill="#00204D" fill-opacity="0.7" style="mix-blend-mode:multiply"/>
<path d="M10.2229 7.99992C10.2229 7.69309 10.4716 7.44436 10.7784 7.44436H11.8895C12.1964 7.44436 12.4451 7.69309 12.4451 7.99992V8.55547C12.4451 8.8623 12.1964 9.11103 11.8895 9.11103H10.7784C10.4716 9.11103 10.2229 8.8623 10.2229 8.55547V7.99992Z" fill="#00204D" fill-opacity="0.7" style="mix-blend-mode:multiply"/>
<path fill-rule="evenodd" clip-rule="evenodd" d="M5.22287 1.88881C5.22287 1.58198 4.97414 1.33325 4.66732 1.33325C4.36049 1.33325 4.11176 1.58198 4.11176 1.88881V2.44436H3.00065C2.08018 2.44436 1.33398 3.19056 1.33398 4.11103V12.4444C1.33398 13.3648 2.08018 14.111 3.00065 14.111H13.0007C13.9211 14.111 14.6673 13.3648 14.6673 12.4444V4.11103C14.6673 3.19056 13.9211 2.44436 13.0007 2.44436H11.8895V1.88881C11.8895 1.58198 11.6408 1.33325 11.334 1.33325C11.0272 1.33325 10.7784 1.58198 10.7784 1.88881V2.44436H5.22287V1.88881ZM3.00065 3.55547C2.69383 3.55547 2.4451 3.8042 2.4451 4.11103V5.22214H13.5562V4.11103C13.5562 3.8042 13.3075 3.55547 13.0007 3.55547H11.8895C11.8895 3.8623 11.6408 4.11103 11.334 4.11103C11.0272 4.11103 10.7784 3.8623 10.7784 3.55547H5.22287C5.22287 3.8623 4.97414 4.11103 4.66732 4.11103C4.36049 4.11103 4.11176 3.8623 4.11176 3.55547H3.00065ZM3.00065 12.9999C2.69383 12.9999 2.4451 12.7512 2.4451 12.4444V6.33325H13.5562V12.4444C13.5562 12.7512 13.3075 12.9999 13.0007 12.9999H3.00065Z" fill="#00204D" fill-opacity="0.7" style="mix-blend-mode:multiply"/>
</svg>
