<svg width="29" height="29" viewBox="0 0 29 29" fill="none" xmlns="http://www.w3.org/2000/svg">
<path d="M10.4706 1.45375H3.17191C1.82826 1.45375 0.739014 2.54299 0.739014 3.88664V11.1853C0.739014 12.529 1.82826 13.6182 3.17191 13.6182H10.4706C11.8142 13.6182 12.9035 12.529 12.9035 11.1853V3.88664C12.9035 2.54299 11.8142 1.45375 10.4706 1.45375Z" fill="#366AE2"/>
<path d="M28.0215 5.85485L23.0985 0.933107C22.6524 0.488746 22.0483 0.239258 21.4186 0.239258C20.7889 0.239258 20.1849 0.488746 19.7387 0.933107L14.8157 5.85485C14.3712 6.30143 14.1217 6.90588 14.1217 7.53598C14.1217 8.16608 14.3712 8.77053 14.8157 9.21711L19.7387 14.1401C20.1849 14.5844 20.7889 14.8339 21.4186 14.8339C22.0483 14.8339 22.6524 14.5844 23.0985 14.1401L28.0215 9.21833C28.4664 8.7717 28.7162 8.16699 28.7162 7.53659C28.7162 6.9062 28.4664 6.30148 28.0215 5.85485Z" fill="#366AE2"/>
<path d="M25.068 16.0511H17.7693C16.4256 16.0511 15.3364 17.1404 15.3364 18.484V25.7827C15.3364 27.1263 16.4256 28.2156 17.7693 28.2156H25.068C26.4116 28.2156 27.5009 27.1263 27.5009 25.7827V18.484C27.5009 17.1404 26.4116 16.0511 25.068 16.0511Z" fill="#366AE2"/>
<path d="M10.4706 16.0511H3.17191C1.82826 16.0511 0.739014 17.1404 0.739014 18.484V25.7827C0.739014 27.1263 1.82826 28.2156 3.17191 28.2156H10.4706C11.8142 28.2156 12.9035 27.1263 12.9035 25.7827V18.484C12.9035 17.1404 11.8142 16.0511 10.4706 16.0511Z" fill="#366AE2"/>
</svg>
