<svg xmlns="http://www.w3.org/2000/svg" width="20" height="20" viewBox="0 0 20 20" fill="none">
  <g clip-path="url(#clip0_1219_32374)">
    <path fill-rule="evenodd" clip-rule="evenodd" d="M6.13628 0.833252H13.8636V3.86355H19.1666V5.53022H0.833252V3.86355H6.13628V0.833252ZM7.80295 3.86355H12.1969V2.49992H7.80295V3.86355ZM4.71118 6.83662L5.42735 16.8663C5.43959 17.0383 5.51658 17.1995 5.64278 17.317C5.76897 17.4346 5.93502 17.4999 6.10749 17.4999H13.8924C14.0648 17.4999 14.2309 17.4346 14.3571 17.317C14.4833 17.1995 14.5602 17.0385 14.5725 16.8665L15.2887 6.83662L16.9511 6.95533L16.2349 16.9848C16.2349 16.9849 16.2349 16.9848 16.2349 16.9848C16.1927 17.5773 15.9276 18.1319 15.4929 18.5367C15.0583 18.9415 14.4863 19.1666 13.8923 19.1666H6.10751C5.51351 19.1666 4.94157 18.9415 4.50689 18.5367C4.07225 18.1319 3.80713 17.5775 3.76491 16.985C3.76491 16.985 3.76492 16.9851 3.76491 16.985L3.04874 6.95533L4.71118 6.83662Z" fill="#00204D" fill-opacity="0.7" style="mix-blend-mode:multiply"/>
  </g>
  <defs>
    <clipPath id="clip0_1219_32374">
      <rect width="20" height="20" fill="white"/>
    </clipPath>
  </defs>
</svg>