<svg width="21" height="20" viewBox="0 0 21 20" fill="none" xmlns="http://www.w3.org/2000/svg">
<g clip-path="url(#clip0_14877_18383)">
<path d="M5.62001 0H12.3136L17.9801 5.90882V17.3995C17.9801 18.8344 16.8145 20 15.3758 20H5.62004C4.18513 20 3.01953 18.8344 3.01953 17.3995V2.6005C3.01951 1.1656 4.18511 0 5.62001 0Z" fill="#00204D" fill-opacity="0.7" style="mix-blend-mode:multiply"/>
<path opacity="0.302" fill-rule="evenodd" clip-rule="evenodd" d="M12.3075 0V5.86268H17.9817L12.3075 0Z" fill="white"/>
<path d="M13.1379 10.4044H7.86385C7.62149 10.4044 7.42145 10.2082 7.42145 9.96588C7.42145 9.72354 7.62149 9.52734 7.86385 9.52734H13.1379C13.3803 9.52734 13.5765 9.72354 13.5765 9.96588C13.5765 10.2082 13.3803 10.4044 13.1379 10.4044ZM11.3799 15.6785H7.86385C7.62149 15.6785 7.42145 15.4823 7.42145 15.24C7.42145 14.9976 7.62149 14.8014 7.86385 14.8014H11.3799C11.6223 14.8014 11.8184 14.9976 11.8184 15.24C11.8184 15.4823 11.6223 15.6785 11.3799 15.6785ZM13.1379 13.9205H7.86385C7.62149 13.9205 7.42145 13.7243 7.42145 13.4819C7.42145 13.2396 7.62149 13.0434 7.86385 13.0434H13.1379C13.3803 13.0434 13.5765 13.2396 13.5765 13.4819C13.5765 13.7243 13.3803 13.9205 13.1379 13.9205ZM13.1379 12.1624H7.86385C7.62149 12.1624 7.42145 11.9662 7.42145 11.7239C7.42145 11.4816 7.62149 11.2854 7.86385 11.2854H13.1379C13.3803 11.2854 13.5765 11.4816 13.5765 11.7239C13.5765 11.9662 13.3803 12.1624 13.1379 12.1624Z" fill="white"/>
</g>
<defs>
<clipPath id="clip0_14877_18383">
<rect width="20" height="20" fill="white" transform="translate(0.5)"/>
</clipPath>
</defs>
</svg>
