<svg width="32" height="32" viewBox="0 0 32 32" fill="none" xmlns="http://www.w3.org/2000/svg">
<g clip-path="url(#clip0_16490_47679)">
<path d="M6.39459 6.40311C6.3946 4.63581 7.82729 3.20312 9.59459 3.20312H18.566C19.4147 3.20312 20.2286 3.54027 20.8287 4.14038L21.3585 4.67018L23.119 6.43065L23.9992 7.31088L25.1729 8.48452L25.5166 8.82827C26.048 9.35965 26.3465 10.0803 26.3465 10.8318L26.3465 13.7659V19.0473V25.8233C26.3465 27.5906 24.9138 29.0233 23.1465 29.0233H9.59454C7.82722 29.0233 6.39454 27.5906 6.39454 25.8233L6.39459 6.40311Z" fill="#4D7AE5"/>
<path d="M13.3737 21.8047L11.376 14.8229H12.9885L14.1442 19.674H14.2021L15.4771 14.8229H16.8578L18.1294 19.6842H18.1908L19.3464 14.8229H20.9589L18.9612 21.8047H17.5226L16.193 17.2399H16.1385L14.8124 21.8047H13.3737Z" fill="white"/>
<path d="M24.0666 10.3323L18.9096 5.17518C18.708 4.97359 18.3633 5.11637 18.3633 5.40146V10.4228C18.3633 10.5963 18.5015 10.7382 18.6749 10.7427L23.832 10.8784C24.121 10.886 24.2711 10.5367 24.0666 10.3323Z" fill="white" stroke="white" stroke-width="1.6"/>
</g>
<defs>
<clipPath id="clip0_16490_47679">
<rect width="26.6667" height="26.6667" fill="white" transform="translate(2.66016 2.66016)"/>
</clipPath>
</defs>
</svg>
