<svg width="19" height="18" viewBox="0 0 19 18" fill="none" xmlns="http://www.w3.org/2000/svg">
<path fill-rule="evenodd" clip-rule="evenodd" d="M18.1979 6.20654L18.2612 6.26984C18.4155 6.44033 18.5007 6.66226 18.5 6.89222V17.0849C18.4999 17.3277 18.4034 17.5606 18.2316 17.7323C18.0598 17.904 17.8269 18.0005 17.584 18.0005H4.60487C4.4846 18.0005 4.36551 17.9769 4.25438 17.9309C4.14325 17.8849 4.04228 17.8175 3.95722 17.7324C3.87216 17.6474 3.80469 17.5465 3.75865 17.4354C3.71262 17.3242 3.68892 17.2051 3.68892 17.0849V10.3407C3.68892 9.85749 4.08067 9.46574 4.56392 9.46574H8.82217C9.12464 9.46534 9.41461 9.34499 9.62845 9.13107C9.8423 8.91716 9.96256 8.62714 9.96285 8.32467V4.06445C9.96285 3.58121 10.3546 3.18945 10.8379 3.18945H14.7984C15.0285 3.18905 15.2505 3.27461 15.4208 3.42937L15.4841 3.49306L18.1979 6.20654ZM11.2055 13.4397C12.3377 13.4397 13.2555 12.5729 13.2555 11.5036C13.2555 10.4343 12.3377 9.56742 11.2055 9.56742C10.0733 9.56742 9.1555 10.4343 9.1555 11.5036C9.1555 12.5729 10.0733 13.4397 11.2055 13.4397ZM11.2057 14.0852C8.89938 14.0852 7.78896 15.4444 7.78896 16.2362V16.6667C7.78896 16.8379 7.86095 17.002 7.9891 17.1231C8.11725 17.2441 8.29106 17.3121 8.4723 17.3121H13.939C14.1202 17.3121 14.2941 17.2441 14.4222 17.1231C14.5504 17.002 14.6224 16.8379 14.6224 16.6667V16.2362C14.6224 15.4444 13.5119 14.0852 11.2057 14.0852Z" fill="url(#paint0_radial_10107_137728)"/>
<path fill-rule="evenodd" clip-rule="evenodd" d="M9.04752 2.67492e-07H2.77766C2.63616 -0.000137173 2.49973 0.0526936 2.39522 0.148096L0.648093 1.89525C0.552699 1.99991 0.499878 2.13645 0.5 2.27807V8.54768C0.5 8.69707 0.559319 8.84034 0.664914 8.94601C0.770509 9.05168 0.913746 9.11109 1.06313 9.11119H9.04752C9.1969 9.11109 9.34013 9.05168 9.44573 8.94601C9.55132 8.84034 9.61064 8.69707 9.61064 8.54768V0.563494C9.61069 0.489511 9.59616 0.416242 9.56789 0.347877C9.53961 0.279512 9.49813 0.217403 9.44584 0.165072C9.39354 0.112741 9.33145 0.0712235 9.26311 0.0429003C9.19476 0.0145771 9.1215 2.67492e-07 9.04752 2.67492e-07ZM7.25349 6.64814C6.93102 6.64814 6.65412 6.57733 6.42278 6.43572C6.19284 6.29411 6.01548 6.09852 5.8907 5.84895C5.76732 5.59798 5.70563 5.30915 5.70563 4.98246C5.70563 4.65438 5.76872 4.36484 5.8949 4.11387C6.02109 3.8615 6.19915 3.66521 6.42909 3.525C6.66043 3.38339 6.93383 3.31258 7.24929 3.31258C7.51147 3.31258 7.74351 3.36095 7.94541 3.4577C8.14871 3.55304 8.31064 3.68834 8.43122 3.8636C8.5518 4.03746 8.6205 4.24076 8.63732 4.47351H7.90966C7.88021 4.31788 7.81011 4.18818 7.69935 4.08443C7.58999 3.97927 7.44347 3.92669 7.2598 3.92669C7.10418 3.92669 6.96748 3.96876 6.8497 4.05288C6.73193 4.1356 6.6401 4.25478 6.5742 4.41041C6.50971 4.56604 6.47746 4.75252 6.47746 4.96984C6.47746 5.18997 6.50971 5.37925 6.5742 5.53769C6.63869 5.69472 6.72913 5.816 6.8455 5.90153C6.96327 5.98565 7.10137 6.02772 7.2598 6.02772C7.37197 6.02772 7.47222 6.00668 7.56054 5.96462C7.65028 5.92116 7.72529 5.85876 7.78557 5.77744C7.84586 5.69612 7.88722 5.59728 7.90966 5.4809H8.63732C8.6191 5.70944 8.5518 5.91204 8.43543 6.08871C8.31906 6.26397 8.16062 6.40137 7.96013 6.50092C7.75964 6.59906 7.52409 6.64814 7.25349 6.64814ZM1.41112 6.58505H2.24394L2.60013 5.52297H4.21941L4.57626 6.58505H5.40908L3.89065 2.27785H2.92744L1.41112 6.58505ZM4.00884 4.89624L3.42587 3.16116H3.39222L2.81032 4.89624H4.00884Z" fill="#943CDD"/>
<defs>
<radialGradient id="paint0_radial_10107_137728" cx="0" cy="0" r="1" gradientUnits="userSpaceOnUse" gradientTransform="translate(18.5188 3.03904) rotate(134.747) scale(21.0658 20.9879)">
<stop stop-color="#D01DFF"/>
<stop offset="1" stop-color="#5E00AA"/>
</radialGradient>
</defs>
</svg>
