<svg width="20" height="20" viewBox="0 0 20 20" fill="none" xmlns="http://www.w3.org/2000/svg">
<path d="M10 1.25C8.26942 1.25 6.57769 1.76318 5.13876 2.72464C3.69983 3.6861 2.57832 5.05267 1.91606 6.65152C1.25379 8.25037 1.08051 10.0097 1.41813 11.707C1.75575 13.4044 2.58911 14.9635 3.81282 16.1872C5.03653 17.4109 6.59563 18.2443 8.29296 18.5819C9.9903 18.9195 11.7496 18.7462 13.3485 18.0839C14.9473 17.4217 16.3139 16.3002 17.2754 14.8612C18.2368 13.4223 18.75 11.7306 18.75 10C18.7474 7.68017 17.8246 5.45611 16.1843 3.81574C14.5439 2.17537 12.3198 1.25265 10 1.25ZM2.5125 10.2462L3.34875 10.525L4.375 12.0644V12.8663C4.37504 13.032 4.44091 13.1909 4.55813 13.3081L6.25 15V16.4856C5.14893 15.848 4.22815 14.9408 3.57432 13.8493C2.92049 12.7578 2.55509 11.5179 2.5125 10.2462ZM10 17.5C9.45932 17.4987 8.92035 17.439 8.3925 17.3219L8.75 16.25L9.87813 13.43C9.91572 13.3358 9.92984 13.234 9.91928 13.1331C9.90872 13.0323 9.87379 12.9356 9.8175 12.8513L8.93563 11.5281C8.87854 11.4426 8.8012 11.3724 8.71049 11.3239C8.61978 11.2754 8.5185 11.25 8.41563 11.25H5.33438L4.55438 10.0794L5.88375 8.75H6.875V10H8.125V8.29125L10.5425 4.06L9.4575 3.44L8.92313 4.375H7.20938L6.53125 3.35687C7.44238 2.87603 8.44374 2.59038 9.47143 2.51818C10.4991 2.44597 11.5306 2.58878 12.5 2.9375V5C12.5 5.16576 12.5659 5.32473 12.6831 5.44194C12.8003 5.55915 12.9592 5.625 13.125 5.625H14.0406C14.1435 5.62502 14.2448 5.59964 14.3355 5.55112C14.4262 5.5026 14.5035 5.43245 14.5606 5.34688L15.1088 4.52437C15.823 5.18981 16.4005 5.98829 16.8088 6.875H14.2625C14.1181 6.87509 13.9781 6.9252 13.8665 7.0168C13.7548 7.10841 13.6783 7.23587 13.65 7.3775L13.1981 10.1713C13.1767 10.3028 13.198 10.4377 13.2587 10.5563C13.3194 10.6749 13.4164 10.7711 13.5356 10.8306L15.625 11.875L16.0531 14.41C15.3594 15.366 14.4494 16.1443 13.3973 16.6813C12.3453 17.2184 11.1812 17.4989 10 17.5Z" fill="url(#paint0_radial_16718_57317)"/>
<defs>
<radialGradient id="paint0_radial_16718_57317" cx="0" cy="0" r="1" gradientUnits="userSpaceOnUse" gradientTransform="translate(18.8047 1.25) rotate(135.089) scale(24.7874 116.697)">
<stop stop-color="#D856FF"/>
<stop offset="1" stop-color="#2F45FF"/>
</radialGradient>
</defs>
</svg>
