<svg width="19" height="18" viewBox="0 0 19 18" fill="none" xmlns="http://www.w3.org/2000/svg">
<path d="M4.27404 0.607422H18.0835L15.8136 15.8143H2.59304C2.28288 15.8143 2.04526 15.5386 2.09105 15.2318L4.27404 0.607422Z" fill="#43DB77"/>
<path d="M2.70793 2.31445H16.2466L14.0212 17.3932H3.6584C1.98489 17.3932 0.701855 15.9069 0.946197 14.2513L2.70793 2.31445Z" fill="#FFC058"/>
<path d="M4.13062 2.31348H16.2518L14.2594 15.8135H4.98158C3.48328 15.8135 2.33458 14.4828 2.55334 13.0006L4.13062 2.31348Z" fill="white"/>
<path fill-rule="evenodd" clip-rule="evenodd" d="M16.2687 2.31348H4.01576L2.4219 12.9967C2.20059 14.4802 3.34973 15.8135 4.84958 15.8135H14.2546L14.7238 12.6686H6.80313C5.58076 12.6686 4.65316 11.5674 4.86079 10.3628L5.34478 7.5548C5.50773 6.60936 6.32775 5.91859 7.28713 5.91859H11.4069C12.6124 5.91859 13.5335 6.99412 13.3483 8.18524C13.1994 9.14219 12.3754 9.84793 11.4069 9.84793H8.30497C7.96607 9.84793 7.69134 9.57319 7.69134 9.23429C7.69134 8.89539 7.96607 8.62066 8.30497 8.62066H11.4069C11.7704 8.62066 12.0797 8.35577 12.1356 7.9966C12.2051 7.54954 11.8594 7.14586 11.4069 7.14586H7.28713C6.92512 7.14586 6.6157 7.40651 6.55422 7.76325L6.07023 10.5713C5.99188 11.0258 6.3419 11.4413 6.80313 11.4413H14.9069L16.2687 2.31348Z" fill="#3981F3"/>
</svg>
