<svg width="23" height="22" viewBox="0 0 23 22" fill="none" xmlns="http://www.w3.org/2000/svg">
<mask id="mask0_15848_43356" style="mask-type:alpha" maskUnits="userSpaceOnUse" x="0" y="0" width="23" height="22">
<rect x="0.75" width="22" height="22" fill="#D9D9D9"/>
</mask>
<g mask="url(#mask0_15848_43356)">
<path d="M5.24428 20.1673C4.75687 20.1673 4.3443 19.9985 4.00658 19.6607C3.66886 19.323 3.5 18.9104 3.5 18.423V3.57826C3.5 3.09085 3.66886 2.67828 4.00658 2.34056C4.3443 2.00284 4.75687 1.83398 5.24428 1.83398H12.1861C12.4187 1.83398 12.6422 1.87914 12.8569 1.96946C13.0715 2.05976 13.258 2.18408 13.4164 2.34242L17.4652 6.3913C17.6236 6.54966 17.7479 6.73615 17.8382 6.95078C17.9285 7.16541 17.9737 7.38901 17.9737 7.62157V9.46607C17.9737 9.62442 17.926 9.76172 17.8308 9.878C17.7355 9.99428 17.6137 10.0784 17.4652 10.1304C17.2203 10.2207 16.9905 10.3345 16.7759 10.4718C16.5612 10.6091 16.3605 10.7712 16.1737 10.958L10.9075 16.2149C10.7492 16.3732 10.6224 16.5597 10.5271 16.7744C10.4319 16.989 10.3843 17.2126 10.3843 17.4451V19.2952C10.3843 19.5438 10.3011 19.7513 10.1347 19.9177C9.96827 20.0841 9.76076 20.1673 9.51212 20.1673H5.24428ZM12.4996 19.2952V17.9814C12.4996 17.8652 12.5207 17.7544 12.5627 17.6493C12.6048 17.5441 12.671 17.4464 12.7613 17.3561L17.738 12.4035C17.858 12.2897 17.9879 12.2068 18.1277 12.1548C18.2675 12.1029 18.4073 12.0769 18.547 12.0769C18.6967 12.0769 18.843 12.1054 18.9859 12.1623C19.1288 12.2192 19.2571 12.3045 19.3709 12.4183L20.2635 13.3202C20.3674 13.4401 20.4478 13.57 20.5047 13.7098C20.5616 13.8496 20.59 13.9894 20.59 14.1292C20.59 14.269 20.5641 14.4112 20.5121 14.556C20.4602 14.7007 20.3773 14.8331 20.2635 14.9531L15.3109 19.9057C15.2206 19.996 15.1228 20.0622 15.0177 20.1042C14.9125 20.1463 14.8018 20.1673 14.6855 20.1673H13.3718C13.1231 20.1673 12.9156 20.0841 12.7492 19.9177C12.5828 19.7513 12.4996 19.5438 12.4996 19.2952ZM18.547 15.0607L19.4396 14.1292L18.547 13.2274L17.6304 14.144L18.547 15.0607ZM13.0564 7.62343H16.5263L12.1842 3.28133V6.75129C12.1842 6.99993 12.2674 7.20744 12.4338 7.37383C12.6002 7.54022 12.8077 7.62343 13.0564 7.62343Z" fill="#62248F"/>
</g>
</svg>
