<svg width="23" height="22" viewBox="0 0 23 22" fill="none" xmlns="http://www.w3.org/2000/svg">
<mask id="mask0_15837_226" style="mask-type:alpha" maskUnits="userSpaceOnUse" x="0" y="0" width="23" height="22">
<rect x="0.75" width="22" height="22" fill="#D9D9D9"/>
</mask>
<g mask="url(#mask0_15837_226)">
<path d="M12.4996 19.2952V17.9814C12.4996 17.8652 12.5207 17.7544 12.5627 17.6493C12.6048 17.5441 12.671 17.4464 12.7613 17.3561L17.738 12.4035C17.858 12.2897 17.9879 12.2068 18.1277 12.1548C18.2675 12.1029 18.4073 12.0769 18.547 12.0769C18.6967 12.0769 18.843 12.1054 18.9859 12.1623C19.1288 12.2192 19.2571 12.3045 19.3709 12.4183L20.2635 13.3202C20.3674 13.4401 20.4478 13.57 20.5047 13.7098C20.5616 13.8496 20.59 13.9894 20.59 14.1292C20.59 14.269 20.5641 14.4112 20.5121 14.556C20.4602 14.7007 20.3773 14.8331 20.2635 14.9531L15.3109 19.9057C15.2206 19.996 15.1228 20.0622 15.0177 20.1042C14.9125 20.1463 14.8018 20.1673 14.6855 20.1673H13.3718C13.1231 20.1673 12.9156 20.0841 12.7492 19.9177C12.5828 19.7513 12.4996 19.5438 12.4996 19.2952ZM13.6501 19.0168H14.5668L17.6991 15.8697L16.8065 14.9586L13.6501 18.1002V19.0168ZM5.24428 20.1673C4.75687 20.1673 4.3443 19.9985 4.00658 19.6607C3.66886 19.323 3.5 18.9104 3.5 18.423V3.57826C3.5 3.09085 3.66886 2.67828 4.00658 2.34056C4.3443 2.00284 4.75687 1.83398 5.24428 1.83398H12.1861C12.4187 1.83398 12.6422 1.87914 12.8569 1.96946C13.0715 2.05976 13.258 2.18408 13.4164 2.34242L17.4652 6.3913C17.6236 6.54966 17.7479 6.73615 17.8382 6.95078C17.9285 7.16541 17.9737 7.38901 17.9737 7.62157V9.11719C17.9737 9.32254 17.9044 9.49449 17.7658 9.63305C17.6273 9.7716 17.4553 9.84087 17.25 9.84087C17.0446 9.84087 16.8727 9.7716 16.7341 9.63305C16.5956 9.49449 16.5263 9.32254 16.5263 9.11719V7.62343H13.0564C12.8077 7.62343 12.6002 7.54022 12.4338 7.37383C12.2674 7.20744 12.1842 6.99993 12.1842 6.75129V3.28133H5.24428C5.17004 3.28133 5.10199 3.31226 5.04012 3.37411C4.97827 3.43598 4.94735 3.50403 4.94735 3.57826V18.423C4.94735 18.4973 4.97827 18.5653 5.04012 18.6272C5.10199 18.689 5.17004 18.72 5.24428 18.72H9.66057C9.86592 18.72 10.0379 18.7892 10.1764 18.9278C10.315 19.0663 10.3843 19.2383 10.3843 19.4436C10.3843 19.649 10.315 19.8209 10.1764 19.9595C10.0379 20.098 9.86592 20.1673 9.66057 20.1673H5.24428ZM17.2648 15.4021L16.8065 14.9586L17.6991 15.8697L17.2648 15.4021Z" fill="#00204D" fill-opacity="0.7" style="mix-blend-mode:multiply"/>
</g>
</svg>
