<svg width="16" height="16" viewBox="0 0 16 16" fill="none" xmlns="http://www.w3.org/2000/svg">
<path d="M13.508 14.6666H1.9137C1.75995 14.6666 1.6125 14.6055 1.50378 14.4968C1.39506 14.3881 1.33398 14.2406 1.33398 14.0869C1.33398 13.9331 1.39506 13.7857 1.50378 13.6769C1.6125 13.5682 1.75995 13.5072 1.9137 13.5072H13.508C13.6618 13.5072 13.8092 13.5682 13.9179 13.6769C14.0267 13.7857 14.0877 13.9331 14.0877 14.0869C14.0877 14.2406 14.0267 14.3881 13.9179 14.4968C13.8092 14.6055 13.6618 14.6666 13.508 14.6666Z" fill="#00204D" fill-opacity="0.7" style="mix-blend-mode:multiply"/>
<path d="M8.05057 3.65199L3.24299 8.45957C3.16866 8.53394 3.11596 8.62712 3.09052 8.72914L1.9137 12.3477L5.53228 11.1709C5.6343 11.1455 5.72749 11.0928 5.80185 11.0184L10.6094 6.21085L8.05057 3.65199Z" fill="#00204D" fill-opacity="0.7" style="mix-blend-mode:multiply"/>
<path d="M12.7584 3.24213L11.0193 1.50298C10.9106 1.3943 10.7632 1.33325 10.6094 1.33325C10.4557 1.33325 10.3083 1.3943 10.1996 1.50298L8.87029 2.83227L11.4292 5.39114L12.7584 4.06185C12.8671 3.95314 12.9282 3.80571 12.9282 3.65199C12.9282 3.49827 12.8671 3.35084 12.7584 3.24213Z" fill="#00204D" fill-opacity="0.7" style="mix-blend-mode:multiply"/>
</svg>
