<svg width="20" height="20" viewBox="0 0 20 20" fill="none" xmlns="http://www.w3.org/2000/svg">
<g clip-path="url(#clip0_15743_24390)">
<path d="M16.884 18.3327H2.39115C2.19896 18.3327 2.01464 18.2563 1.87875 18.1204C1.74285 17.9845 1.6665 17.8002 1.6665 17.608C1.6665 17.4159 1.74285 17.2315 1.87875 17.0956C2.01464 16.9597 2.19896 16.8834 2.39115 16.8834H16.884C17.0762 16.8834 17.2605 16.9597 17.3964 17.0956C17.5323 17.2315 17.6087 17.4159 17.6087 17.608C17.6087 17.8002 17.5323 17.9845 17.3964 18.1204C17.2605 18.2563 17.0762 18.3327 16.884 18.3327Z" fill="#00204D" fill-opacity="0.7" style="mix-blend-mode:multiply"/>
<path d="M10.0622 4.56444L4.05276 10.5739C3.95985 10.6669 3.89397 10.7834 3.86218 10.9109L2.39115 15.4341L6.91438 13.9631C7.0419 13.9313 7.15838 13.8654 7.25134 13.7725L13.2608 7.76302L10.0622 4.56444Z" fill="#00204D" fill-opacity="0.7" style="mix-blend-mode:multiply"/>
<path d="M15.9471 4.05212L13.7731 1.87818C13.6372 1.74233 13.453 1.66602 13.2608 1.66602C13.0687 1.66602 12.8844 1.74233 12.7485 1.87818L11.0869 3.53979L14.2855 6.73837L15.9471 5.07676C16.0829 4.94087 16.1592 4.75659 16.1592 4.56444C16.1592 4.37229 16.0829 4.18801 15.9471 4.05212Z" fill="#00204D" fill-opacity="0.7" style="mix-blend-mode:multiply"/>
</g>
<defs>
<clipPath id="clip0_15743_24390">
<rect width="20" height="20" rx="4" fill="white"/>
</clipPath>
</defs>
</svg>
