<svg width="19" height="18" viewBox="0 0 19 18" fill="none" xmlns="http://www.w3.org/2000/svg">
<path d="M18.2642 6.41321L18.2017 6.35032L15.5217 3.67001L15.4592 3.6071C15.291 3.45424 15.0718 3.36972 14.8446 3.37012H10.0693V8.44255C10.069 8.74133 9.95024 9.0278 9.73906 9.2391C9.52788 9.45041 9.24153 9.56929 8.94283 9.56967H3.87357V17.0957C3.87357 17.2145 3.89697 17.3321 3.94243 17.4418C3.98789 17.5516 4.05452 17.6513 4.13852 17.7353C4.22252 17.8193 4.32224 17.8859 4.43198 17.9313C4.54172 17.9768 4.65933 18.0001 4.7781 18.0001H17.5955C17.8353 18.0001 18.0653 17.9048 18.235 17.7352C18.4046 17.5656 18.4999 17.3356 18.5 17.0957V7.02762C18.5008 6.80057 18.4167 6.58142 18.2642 6.41321Z" fill="url(#paint0_radial_10080_43542)"/>
<path d="M8.94097 2.6758e-07H2.74927C2.60953 -0.000136354 2.4748 0.0520486 2.37159 0.146285L2.33284 0.185053L0.684638 1.83369L0.646246 1.87208C0.552103 1.9755 0.499949 2.11037 0.5 2.25024V8.4432C0.5 8.59076 0.558579 8.73229 0.662858 8.83667C0.767137 8.94104 0.908588 8.99973 1.05611 8.99982H8.94097C9.08849 8.99973 9.22993 8.94104 9.33421 8.83667C9.43849 8.73229 9.49707 8.59076 9.49707 8.4432V0.556622C9.49712 0.483544 9.48277 0.411171 9.45485 0.343641C9.42692 0.276112 9.38596 0.214744 9.33432 0.163053C9.28267 0.111362 9.22136 0.070352 9.15387 0.042375C9.08637 0.0143981 9.01403 2.51786e-07 8.94097 2.6758e-07ZM5.60217 4.97553H3.88377V6.46396H3.0648V2.46783H5.65043V3.15866H3.88414V4.28762H5.60253L5.60217 4.97553ZM6.97432 6.46396H6.16997V2.33142H6.97432V6.46396Z" fill="#129CBB"/>
<path d="M15.6852 11.8098H14.1525V9.92856L15.8947 8.18595C15.9396 8.14078 15.9649 8.07962 15.9649 8.01588C15.9649 7.95213 15.9396 7.89099 15.8947 7.84582L14.03 5.98069C14.0077 5.95833 13.9812 5.9406 13.9521 5.9285C13.9229 5.91639 13.8916 5.91016 13.86 5.91016C13.8284 5.91016 13.7972 5.91639 13.768 5.9285C13.7388 5.9406 13.7123 5.95833 13.69 5.98069L11.8254 7.84582C11.803 7.86814 11.7853 7.89466 11.7732 7.92384C11.7611 7.95302 11.7549 7.98429 11.7549 8.01588C11.7549 8.04747 11.7611 8.07875 11.7732 8.10793C11.7853 8.13711 11.803 8.16363 11.8254 8.18595L13.5675 9.92856V11.8098H12.0345C11.9592 11.8098 11.8869 11.8397 11.8336 11.893C11.7803 11.9463 11.7504 12.0186 11.7504 12.0939V13.7674H10.0569C10.0185 13.2357 9.78023 12.7383 9.39009 12.3751C8.99995 12.0119 8.48682 11.81 7.95387 11.8098C7.67685 11.8098 7.40254 11.8644 7.14661 11.9704C6.89069 12.0765 6.65815 12.2319 6.46228 12.4279C6.26642 12.6238 6.11106 12.8564 6.00508 13.1125C5.89911 13.3685 5.84459 13.6429 5.84464 13.92C5.84464 14.4795 6.06686 15.0161 6.46241 15.4118C6.85797 15.8075 7.39446 16.0297 7.95387 16.0297C8.43812 16.0296 8.9076 15.8629 9.28348 15.5575C9.65936 15.2521 9.91876 14.8266 10.0181 14.3526H11.7508V15.7456C11.7508 15.7829 11.7581 15.8198 11.7724 15.8543C11.7867 15.8888 11.8076 15.9201 11.834 15.9465C11.8604 15.9729 11.8917 15.9938 11.9262 16.0081C11.9606 16.0224 11.9976 16.0297 12.0349 16.0297H15.6855C15.7228 16.0297 15.7598 16.0224 15.7942 16.0081C15.8287 15.9938 15.86 15.9729 15.8864 15.9465C15.9128 15.9201 15.9337 15.8888 15.948 15.8543C15.9623 15.8198 15.9696 15.7829 15.9696 15.7456V12.0939C15.9696 12.0566 15.9623 12.0196 15.948 11.9851C15.9337 11.9506 15.9127 11.9193 15.8863 11.8929C15.8599 11.8665 15.8285 11.8456 15.794 11.8313C15.7595 11.817 15.7225 11.8097 15.6852 11.8098Z" fill="#B6EDEF"/>
<defs>
<radialGradient id="paint0_radial_10080_43542" cx="0" cy="0" r="1" gradientUnits="userSpaceOnUse" gradientTransform="translate(17.9551 3.63415) rotate(134.324) scale(16.4362 75.3409)">
<stop stop-color="#0BCDCD"/>
<stop offset="1" stop-color="#129CBA"/>
</radialGradient>
</defs>
</svg>
