<svg width="19" height="18" viewBox="0 0 19 18" fill="none" xmlns="http://www.w3.org/2000/svg">
<path d="M18.2642 6.41319L18.2017 6.35066L15.5214 3.67L15.4589 3.60746C15.2908 3.45455 15.0718 3.36991 14.8446 3.37012H10.0684V8.44289C10.0681 8.74163 9.94934 9.02806 9.73813 9.2393C9.52692 9.45054 9.24054 9.56935 8.94184 9.56964H3.87204V17.0956C3.87204 17.3356 3.96735 17.5657 4.13701 17.7354C4.30666 17.905 4.53675 18.0004 4.77667 18.0004H17.5954C17.8353 18.0004 18.0654 17.905 18.2351 17.7354C18.4047 17.5657 18.5 17.3356 18.5 17.0956V7.02649C18.5003 6.79985 18.4163 6.58122 18.2642 6.41319Z" fill="url(#paint0_radial_10080_43532)"/>
<path d="M15.9707 12.6562H6.40738C6.25229 12.6562 6.12656 12.782 6.12656 12.9371V16.0329C6.12656 16.188 6.25229 16.3137 6.40738 16.3137H15.9707C16.1258 16.3137 16.2515 16.188 16.2515 16.0329V12.9371C16.2515 12.782 16.1258 12.6562 15.9707 12.6562Z" fill="#FFDA8F"/>
<path d="M15.9707 10.4053H6.40738C6.25229 10.4053 6.12656 10.531 6.12656 10.6861V11.2496C6.12656 11.4047 6.25229 11.5304 6.40738 11.5304H15.9707C16.1258 11.5304 16.2515 11.4047 16.2515 11.2496V10.6861C16.2515 10.531 16.1258 10.4053 15.9707 10.4053Z" fill="#FFDA8F"/>
<path d="M15.9707 8.15527H11.4699C11.3148 8.15527 11.1891 8.281 11.1891 8.4361V8.99957C11.1891 9.15466 11.3148 9.28039 11.4699 9.28039H15.9707C16.1258 9.28039 16.2515 9.15466 16.2515 8.99957V8.4361C16.2515 8.281 16.1258 8.15527 15.9707 8.15527Z" fill="#FFDA8F"/>
<path d="M6.48991 3.98536C6.28219 3.98536 6.12457 4.0474 6.01706 4.1715C5.90954 4.29559 5.85565 4.47479 5.85541 4.70909V5.1984C5.85541 5.42806 5.90929 5.6047 6.01706 5.72831C6.12482 5.85191 6.28243 5.91287 6.48991 5.91116C6.69495 5.91116 6.8516 5.85021 6.95984 5.72831C7.06809 5.6064 7.12197 5.42977 7.12148 5.1984V4.70836C7.12148 4.47431 7.06761 4.2951 6.95984 4.17076C6.85208 4.04642 6.69544 3.98463 6.48991 3.98536Z" fill="#F8604F"/>
<path d="M8.94003 6.208e-08H2.74767C2.60793 -6.56949e-05 2.47322 0.0521095 2.36996 0.146284L2.33339 0.182855L0.684657 1.83184L0.646262 1.87024C0.552047 1.97362 0.499879 2.1085 0.5 2.24839V8.44132C0.5 8.58885 0.558602 8.73033 0.662902 8.83465C0.767202 8.93897 0.908656 8.99757 1.05616 8.99757H8.94003C9.08753 8.99757 9.22899 8.93897 9.33329 8.83465C9.4376 8.73033 9.49619 8.58885 9.49619 8.44132V0.55661C9.49624 0.483532 9.48189 0.41116 9.45396 0.34363C9.42603 0.276101 9.38507 0.214734 9.33342 0.163043C9.28177 0.111352 9.22045 0.0703515 9.15295 0.0423746C9.08545 0.0143978 9.0131 4.62858e-08 8.94003 6.208e-08ZM4.63372 3.20508H2.8932V4.31721H4.58875V4.99523H2.8943V6.46174H2.08731V2.52413H4.63482L4.63372 3.20508ZM7.90815 5.15834C7.90815 5.60207 7.78858 5.9434 7.54945 6.18233C7.31031 6.42126 6.95684 6.54146 6.48905 6.54292C6.02052 6.54292 5.66572 6.42272 5.42463 6.18233C5.18355 5.94194 5.06288 5.60061 5.06263 5.15834V4.74875C5.06263 4.30307 5.1833 3.95954 5.42463 3.71818C5.66597 3.47681 6.02077 3.35612 6.48905 3.35612C6.95538 3.35612 7.30885 3.47681 7.54945 3.71818C7.79005 3.95954 7.91011 4.30307 7.90962 4.74875L7.90815 5.15834Z" fill="#F8604F"/>
<defs>
<radialGradient id="paint0_radial_10080_43532" cx="0" cy="0" r="1" gradientUnits="userSpaceOnUse" gradientTransform="translate(2.99666 4.14616) rotate(180) scale(20.8741 20.8773)">
<stop stop-color="#F5BA54"/>
<stop offset="1" stop-color="#F8604F"/>
</radialGradient>
</defs>
</svg>
