<svg width="24" height="24" viewBox="0 0 24 24" fill="none" xmlns="http://www.w3.org/2000/svg">
<path fill-rule="evenodd" clip-rule="evenodd" d="M3.66667 12V17.6C3.66667 17.8122 3.75446 18.0157 3.91074 18.1657C4.06702 18.3157 4.27899 18.4 4.5 18.4H19.5C19.721 18.4 19.933 18.3157 20.0893 18.1657C20.2455 18.0157 20.3333 17.8122 20.3333 17.6V12H22V17.6C22 18.2365 21.7366 18.847 21.2678 19.2971C20.7989 19.7471 20.163 20 19.5 20H4.5C3.83696 20 3.20107 19.7471 2.73223 19.2971C2.26339 18.847 2 18.2365 2 17.6V12H3.66667Z" fill="#4D6383"/>
<path fill-rule="evenodd" clip-rule="evenodd" d="M2.73223 4.70294C3.20107 4.25286 3.83696 4 4.5 4H19.5C20.163 4 20.7989 4.25286 21.2678 4.70294C21.7366 5.15303 22 5.76348 22 6.4V9.27491L12 14.5113L2 9.27491V6.4C2 5.76348 2.26339 5.15303 2.73223 4.70294ZM4.5 5.6C4.27899 5.6 4.06702 5.68429 3.91074 5.83431C3.75446 5.98434 3.66667 6.18783 3.66667 6.4V8.32509L12 12.6887L20.3333 8.32509V6.4C20.3333 6.18783 20.2455 5.98434 20.0893 5.83431C19.933 5.68429 19.721 5.6 19.5 5.6H4.5Z" fill="#4D6383"/>
</svg>
