<svg width="96" height="111" viewBox="0 0 96 111" fill="none" xmlns="http://www.w3.org/2000/svg">
<path fill-rule="evenodd" clip-rule="evenodd" d="M85.5 62.3145H10.5V97.0245C10.5 98.6801 11.5856 100.141 13.1719 100.617C20.7075 102.876 41.8987 109.234 46.9219 110.742C47.625 110.952 48.375 110.952 49.0781 110.742C54.1012 109.234 75.2925 102.876 82.8281 100.617C84.4144 100.141 85.5 98.6801 85.5 97.0245C85.5 88.332 85.5 62.3145 85.5 62.3145Z" fill="url(#paint0_linear_14559_67929)"/>
<path fill-rule="evenodd" clip-rule="evenodd" d="M85.4996 62.3145H47.9996C47.9996 62.3145 47.6358 110.899 47.9996 110.899C48.3633 110.899 48.7252 110.847 49.0777 110.742C54.1008 109.234 75.2921 102.876 82.8277 100.617C84.4139 100.141 85.4996 98.6801 85.4996 97.0245C85.4996 88.332 85.4996 62.3145 85.4996 62.3145Z" fill="url(#paint1_linear_14559_67929)"/>
<path fill-rule="evenodd" clip-rule="evenodd" d="M48 74.4813L10.5 62.3145C10.5 62.3145 3.92436 72.0644 0.984363 76.4219C0.654363 76.9113 0.573738 77.5245 0.764988 78.0813C0.958113 78.6382 1.39874 79.0713 1.95936 79.2551C9.08249 81.5688 30.1687 88.4201 35.7 90.2163C36.4931 90.4751 37.3631 90.177 37.8319 89.4851C40.3462 85.7745 48 74.4813 48 74.4813Z" fill="url(#paint2_linear_14559_67929)"/>
<path fill-rule="evenodd" clip-rule="evenodd" d="M85.5 62.3145L48 74.4813C48 74.4813 55.6538 85.7745 58.1681 89.4851C58.6369 90.177 59.5069 90.4751 60.3 90.2163C65.8313 88.4201 86.9175 81.5688 94.0406 79.2551C94.6012 79.0713 95.0419 78.6382 95.235 78.0813C95.4263 77.5245 95.3456 76.9113 95.0156 76.4219C92.0756 72.0644 85.5 62.3145 85.5 62.3145Z" fill="url(#paint3_linear_14559_67929)"/>
<path fill-rule="evenodd" clip-rule="evenodd" d="M38.9227 36.7554C38.4539 36.0673 37.5858 35.7692 36.7927 36.0279C31.2652 37.8223 10.1733 44.6754 3.05018 46.9911C2.48956 47.1729 2.04706 47.6061 1.85581 48.1629C1.66456 48.7198 1.74518 49.3348 2.07518 49.8223C4.78268 53.8386 10.4996 62.3136 10.4996 62.3136L47.9996 50.1054C47.9996 50.1054 41.2646 40.1998 38.9227 36.7554Z" fill="url(#paint4_linear_14559_67929)"/>
<path fill-rule="evenodd" clip-rule="evenodd" d="M93.9244 49.8223C94.2544 49.3348 94.335 48.7198 94.1438 48.1629C93.9525 47.6061 93.51 47.1729 92.9494 46.9911C85.8262 44.6754 64.7344 37.8223 59.2069 36.0279C58.4138 35.7692 57.5456 36.0673 57.0769 36.7554C54.735 40.1998 48 50.1054 48 50.1054L85.5 62.3136C85.5 62.3136 91.2169 53.8386 93.9244 49.8223Z" fill="url(#paint5_linear_14559_67929)"/>
<path fill-rule="evenodd" clip-rule="evenodd" d="M85.5 62.3136L48 50.1055L10.5 62.3136L48 74.4805L85.5 62.3136Z" fill="url(#paint6_linear_14559_67929)"/>
<path fill-rule="evenodd" clip-rule="evenodd" d="M48 74.4805V50.1055L10.5 62.3136L48 74.4805Z" fill="url(#paint7_linear_14559_67929)"/>
<path fill-rule="evenodd" clip-rule="evenodd" d="M40.4657 55.4896C39.6857 54.9796 38.9826 54.434 38.3582 53.8621C37.5969 53.1628 36.4101 53.2134 35.7088 53.9765C35.0094 54.7378 35.0601 55.9246 35.8232 56.624C36.5901 57.329 37.4544 58.0003 38.4144 58.6284C39.2807 59.1946 40.4432 58.9509 41.0094 58.0846C41.5757 57.2184 41.3319 56.0559 40.4657 55.4896Z" fill="#0099E6"/>
<path fill-rule="evenodd" clip-rule="evenodd" d="M34.6237 49.7291C34.0668 48.9734 33.5962 48.2141 33.2099 47.4547C32.7412 46.5322 31.6106 46.1647 30.6881 46.6334C29.7656 47.1022 29.3981 48.2328 29.8668 49.1553C30.3431 50.0891 30.9206 51.0247 31.605 51.9528C32.2181 52.7853 33.3918 52.9634 34.2262 52.3503C35.0587 51.7353 35.2368 50.5616 34.6237 49.7291Z" fill="#0099E6"/>
<path fill-rule="evenodd" clip-rule="evenodd" d="M31.8824 42.0783C31.9011 41.3227 32.0117 40.5896 32.2142 39.8864C32.4992 38.8927 31.9236 37.8521 30.928 37.5671C29.9342 37.2821 28.8936 37.8577 28.6086 38.8533C28.3217 39.8583 28.1605 40.9064 28.1324 41.9846C28.108 43.0196 28.9255 43.8802 29.9605 43.9046C30.9955 43.9308 31.8561 43.1133 31.8824 42.0783Z" fill="#0099E6"/>
<path fill-rule="evenodd" clip-rule="evenodd" d="M34.7657 35.8158C35.2476 35.3696 35.7876 34.9571 36.3782 34.5839C37.2539 34.0308 37.5164 32.8721 36.9651 31.9983C36.412 31.1227 35.2532 30.8602 34.3776 31.4114C33.5845 31.9121 32.8645 32.4652 32.2176 33.0652C31.4582 33.7683 31.4132 34.9552 32.1164 35.7146C32.8195 36.4739 34.0064 36.5189 34.7657 35.8158Z" fill="#0099E6"/>
<path fill-rule="evenodd" clip-rule="evenodd" d="M41.7397 32.5817C42.6828 32.4074 43.6822 32.2949 44.7359 32.2517C45.7709 32.2067 46.5734 31.3311 46.5303 30.298C46.4872 29.2649 45.6115 28.4605 44.5765 28.5036C43.339 28.5561 42.1653 28.6892 41.0572 28.8936C40.0409 29.083 39.3659 30.0617 39.5553 31.078C39.7428 32.0961 40.7215 32.7692 41.7397 32.5817Z" fill="#0099E6"/>
<path fill-rule="evenodd" clip-rule="evenodd" d="M51.5118 32.4702C53.1112 32.489 54.6 32.4327 55.9818 32.3109C57.0131 32.219 57.7762 31.3077 57.6843 30.2765C57.5925 29.2471 56.6812 28.484 55.65 28.5759C54.3843 28.6865 53.0212 28.739 51.555 28.7202C50.52 28.709 49.6706 29.5396 49.6593 30.5727C49.6462 31.6077 50.4768 32.459 51.5118 32.4702Z" fill="#0099E6"/>
<path fill-rule="evenodd" clip-rule="evenodd" d="M62.1444 31.1611C64.0007 30.593 65.5682 29.8655 66.8807 29.0311C67.7526 28.4742 68.0113 27.3155 67.4544 26.4417C66.8994 25.5699 65.7388 25.3111 64.8651 25.868C63.8094 26.5392 62.5438 27.1167 61.0476 27.5742C60.0594 27.878 59.5007 28.9261 59.8044 29.9161C60.1063 30.9061 61.1563 31.463 62.1444 31.1611Z" fill="#0099E6"/>
<path fill-rule="evenodd" clip-rule="evenodd" d="M71.6889 23.783C72.5739 21.953 72.9132 20.018 72.827 18.1524C72.7782 17.1174 71.8989 16.3186 70.8657 16.3674C69.8326 16.4161 69.032 17.2936 69.0807 18.3267C69.1407 19.5942 68.912 20.9086 68.312 22.1517C67.862 23.0836 68.252 24.2067 69.1839 24.6567C70.1157 25.1067 71.2389 24.7149 71.6889 23.783Z" fill="#0099E6"/>
<path fill-rule="evenodd" clip-rule="evenodd" d="M70.4939 11.5231C69.127 9.67619 67.2726 8.38994 65.2514 7.97556C64.237 7.76931 63.2451 8.42181 63.037 9.43619C62.8308 10.4506 63.4851 11.4424 64.4976 11.6506C65.6639 11.8887 66.6914 12.6893 67.4808 13.7562C68.0976 14.5868 69.2733 14.7612 70.1039 14.1462C70.9364 13.5293 71.1108 12.3537 70.4939 11.5231Z" fill="#0099E6"/>
<path fill-rule="evenodd" clip-rule="evenodd" d="M45.999 8.33998C48.0278 -3.14815 65.6096 -2.40565 55.374 8.33998H45.999Z" fill="url(#paint8_linear_14559_67929)"/>
<path fill-rule="evenodd" clip-rule="evenodd" d="M45.999 11.25C48.0278 22.7362 65.6096 21.9956 55.374 11.25H45.999Z" fill="url(#paint9_linear_14559_67929)"/>
<path fill-rule="evenodd" clip-rule="evenodd" d="M45.8311 11.6895H58.3861C59.4211 11.6895 60.2611 10.8495 60.2611 9.81445C60.2611 8.77945 59.4211 7.93945 58.3861 7.93945H45.8311C44.7979 7.93945 43.9561 8.77945 43.9561 9.81445C43.9561 10.8495 44.7979 11.6895 45.8311 11.6895Z" fill="#0099E6"/>
<defs>
<linearGradient id="paint0_linear_14559_67929" x1="10.5" y1="86.607" x2="85.5" y2="86.607" gradientUnits="userSpaceOnUse">
<stop stop-color="#CADCF0"/>
<stop offset="1" stop-color="#A4BBDB"/>
</linearGradient>
<linearGradient id="paint1_linear_14559_67929" x1="47.8383" y1="86.607" x2="85.4996" y2="86.607" gradientUnits="userSpaceOnUse">
<stop stop-color="#A4BBDB"/>
<stop offset="1" stop-color="#8DA3BE"/>
</linearGradient>
<linearGradient id="paint2_linear_14559_67929" x1="10.7494" y1="62.2995" x2="15.9904" y2="96.9745" gradientUnits="userSpaceOnUse">
<stop stop-color="#E9F3FC"/>
<stop offset="1" stop-color="#CADCF0"/>
</linearGradient>
<linearGradient id="paint3_linear_14559_67929" x1="48.1519" y1="74.3538" x2="87.6838" y2="97.0899" gradientUnits="userSpaceOnUse">
<stop stop-color="#E9F3FC"/>
<stop offset="1" stop-color="#CADCF0"/>
</linearGradient>
<linearGradient id="paint4_linear_14559_67929" x1="5.59081" y1="55.0367" x2="11.2478" y2="28.3699" gradientUnits="userSpaceOnUse">
<stop stop-color="#E9F3FC"/>
<stop offset="1" stop-color="#CADCF0"/>
</linearGradient>
<linearGradient id="paint5_linear_14559_67929" x1="58.0388" y1="35.5761" x2="60.0615" y2="68.4912" gradientUnits="userSpaceOnUse">
<stop stop-color="#E9F3FC"/>
<stop offset="1" stop-color="#CADCF0"/>
</linearGradient>
<linearGradient id="paint6_linear_14559_67929" x1="10.5" y1="62.293" x2="85.5" y2="62.293" gradientUnits="userSpaceOnUse">
<stop stop-color="#CADCF0"/>
<stop offset="1" stop-color="#A4BBDB"/>
</linearGradient>
<linearGradient id="paint7_linear_14559_67929" x1="51.84" y1="49.5598" x2="52.6481" y2="79.8467" gradientUnits="userSpaceOnUse">
<stop stop-color="#A4BBDB"/>
<stop offset="1" stop-color="#8DA3BE"/>
</linearGradient>
<linearGradient id="paint8_linear_14559_67929" x1="45.999" y1="4.16998" x2="58.5521" y2="4.16998" gradientUnits="userSpaceOnUse">
<stop stop-color="#E9F3FC"/>
<stop offset="1" stop-color="#CADCF0"/>
</linearGradient>
<linearGradient id="paint9_linear_14559_67929" x1="45.999" y1="15.42" x2="58.5521" y2="15.42" gradientUnits="userSpaceOnUse">
<stop stop-color="#E9F3FC"/>
<stop offset="1" stop-color="#CADCF0"/>
</linearGradient>
</defs>
</svg>
