<svg width="19" height="18" viewBox="0 0 19 18" fill="none" xmlns="http://www.w3.org/2000/svg">
<path d="M8.94001 6.20803e-08H2.74767C2.60793 -6.56951e-05 2.47321 0.0521097 2.36996 0.146285L2.33339 0.185052L0.684657 1.83368L0.646262 1.87208C0.552047 1.97546 0.499879 2.11034 0.5 2.25023V8.4432C0.5 8.59076 0.558585 8.73228 0.662875 8.83665C0.767164 8.94102 0.908621 8.99971 1.05616 8.99981H8.94001C9.08755 8.99971 9.229 8.94102 9.33329 8.83665C9.43758 8.73228 9.49617 8.59076 9.49617 8.4432V0.556613C9.49622 0.483534 9.48187 0.41117 9.45394 0.343641C9.42601 0.276111 9.38505 0.214744 9.3334 0.163053C9.28175 0.111361 9.22043 0.0703517 9.15293 0.0423748C9.08543 0.0143979 9.01308 4.6286e-08 8.94001 6.20803e-08ZM4.25636 6.4764L4.16567 5.69779C4.15581 5.57703 4.1263 5.45868 4.07829 5.34744C4.03717 5.25687 3.96809 5.18189 3.88119 5.1335C3.79368 5.08474 3.67278 5.06036 3.51847 5.06036L2.79009 5.0578V6.47676H1.98346V2.48026H3.6779C4.14691 2.48026 4.48928 2.5751 4.70501 2.76479C4.92075 2.95447 5.02862 3.22436 5.02862 3.57447V3.66224C5.02862 3.92483 4.965 4.13328 4.83775 4.28761C4.7105 4.44194 4.50842 4.53361 4.23149 4.56262V4.59261C4.34578 4.61227 4.45541 4.65307 4.55473 4.71293C4.68396 4.79518 4.7841 4.91594 4.84103 5.05816C4.90882 5.23379 4.95499 5.41702 4.97852 5.6038L5.10029 6.4764H4.25636ZM8.19225 4.77218C8.19225 4.84532 8.18859 4.92395 8.18165 5.00184C8.1747 5.07974 8.16409 5.15361 8.15166 5.22127H6.17713V5.24029C6.17615 5.3308 6.19151 5.42074 6.22247 5.5058C6.25336 5.5883 6.3056 5.66112 6.37386 5.71681C6.45731 5.78272 6.55376 5.8302 6.65687 5.85615C6.80142 5.89271 6.95025 5.90956 7.09931 5.90625C7.28406 5.907 7.46823 5.88538 7.64779 5.84188C7.8184 5.80067 7.98449 5.7426 8.14362 5.66854L8.07488 6.30012C7.91976 6.38315 7.75406 6.44467 7.58235 6.48298C7.37677 6.52975 7.16643 6.55234 6.95561 6.55027C6.43029 6.55027 6.0394 6.42934 5.78296 6.18748C5.52651 5.94562 5.39841 5.59539 5.39866 5.13679V4.7378C5.39866 4.28334 5.51847 3.93421 5.7581 3.69041C5.99772 3.4466 6.34582 3.32469 6.8024 3.32469C7.11053 3.32469 7.36782 3.37894 7.57429 3.48743C7.77362 3.58863 7.93608 3.74996 8.03868 3.94859C8.14179 4.14803 8.19335 4.38623 8.19335 4.66319L8.19225 4.77218Z" fill="#3546FF"/>
<path d="M18.2641 6.41284L18.2016 6.35031L15.5214 3.67L15.4589 3.6071C15.2908 3.45429 15.0717 3.36977 14.8446 3.37012H11.2064C10.5779 3.37012 10.0684 3.87961 10.0684 4.5081V8.44254C10.0681 8.74132 9.94933 9.02779 9.73813 9.23909C9.52693 9.45039 9.24054 9.56927 8.94181 9.56966H5.01C4.38151 9.56966 3.87202 10.0792 3.87202 10.7076V17.0956C3.87212 17.3355 3.96747 17.5656 4.13711 17.7352C4.30675 17.9048 4.53679 18.0001 4.77665 18.0001H17.5954C17.8352 18.0001 18.0653 17.9048 18.2349 17.7352C18.4045 17.5656 18.4999 17.3355 18.5 17.0956V7.0276C18.5007 6.80046 18.4166 6.58124 18.2641 6.41284Z" fill="url(#paint0_radial_10080_43554)"/>
<path d="M8.93676 11.5293H6.4112C6.33555 11.5293 6.263 11.5594 6.20952 11.6128C6.15603 11.6663 6.12599 11.7389 6.12599 11.8146V12.5884C6.12568 12.6267 6.13308 12.6646 6.14773 12.7C6.16239 12.7353 6.18401 12.7673 6.2113 12.7942C6.2386 12.821 6.271 12.842 6.3066 12.8561C6.3422 12.8701 6.38026 12.8768 6.41851 12.8759C6.52414 12.8714 6.62957 12.8884 6.72848 12.9257C6.8274 12.963 6.91775 13.02 6.99411 13.0931C7.07047 13.1662 7.13127 13.2541 7.17286 13.3513C7.21444 13.4485 7.23595 13.5531 7.2361 13.6588C7.23595 13.7646 7.21444 13.8692 7.17286 13.9664C7.13127 14.0636 7.07047 14.1514 6.99411 14.2246C6.91775 14.2977 6.8274 14.3546 6.72848 14.392C6.62957 14.4293 6.52414 14.4463 6.41851 14.4418C6.38026 14.4409 6.3422 14.4476 6.3066 14.4616C6.271 14.4756 6.2386 14.4967 6.2113 14.5235C6.18401 14.5503 6.16239 14.5824 6.14773 14.6177C6.13308 14.6531 6.12568 14.691 6.12599 14.7293V15.746C6.12608 15.8216 6.15616 15.8941 6.20962 15.9476C6.26309 16.001 6.33558 16.0311 6.4112 16.0312H8.93676V11.5293Z" fill="#E5B5FC"/>
<path d="M15.9241 12.8729C16.0107 12.8729 16.0937 12.8385 16.155 12.7773C16.2162 12.716 16.2506 12.633 16.2506 12.5463V11.8116C16.2506 11.736 16.2206 11.6634 16.1671 11.6099C16.1136 11.5564 16.041 11.5264 15.9654 11.5264H9.49954V16.029H15.9657C16.0414 16.0289 16.114 15.9988 16.1674 15.9452C16.2209 15.8917 16.251 15.8191 16.251 15.7434V14.7278C16.2513 14.6895 16.2439 14.6516 16.2292 14.6163C16.2146 14.5809 16.1929 14.5489 16.1656 14.522C16.1384 14.4952 16.1059 14.4742 16.0703 14.4601C16.0348 14.4461 15.9967 14.4394 15.9584 14.4404C15.8528 14.4448 15.7473 14.4278 15.6483 14.3905C15.5494 14.3531 15.459 14.2962 15.3826 14.223C15.3062 14.1498 15.2454 14.062 15.2038 13.9647C15.1622 13.8675 15.1406 13.7628 15.1405 13.657C15.1407 13.4491 15.2233 13.2498 15.3703 13.1028C15.5173 12.9558 15.7166 12.8731 15.9244 12.8729H15.9241Z" fill="#E5B5FC"/>
<path d="M3.56899 4.42307C3.79622 4.42307 3.95932 4.37053 4.0583 4.26544C4.15729 4.16036 4.20679 4.00969 4.20679 3.81342V3.73845C4.20679 3.54462 4.15729 3.39712 4.0583 3.29594C3.95932 3.19476 3.79414 3.14429 3.56276 3.14453H2.78416V4.42452L3.56899 4.42307Z" fill="#3546FF"/>
<path d="M7.44121 4.6155C7.44465 4.4895 7.42122 4.36421 7.37246 4.24797C7.32966 4.15052 7.25603 4.06983 7.1629 4.0183C7.0517 3.96201 6.92796 3.93507 6.80341 3.94003C6.58886 3.94003 6.43039 3.99941 6.32799 4.11814C6.22559 4.23688 6.17451 4.40571 6.17476 4.62465V4.69048H7.44121V4.6155Z" fill="#3546FF"/>
<defs>
<radialGradient id="paint0_radial_10080_43554" cx="0" cy="0" r="1" gradientUnits="userSpaceOnUse" gradientTransform="translate(18.0842 3.54171) rotate(134.511) scale(20.286 92.9883)">
<stop stop-color="#D856FF"/>
<stop offset="1" stop-color="#2F45FF"/>
</radialGradient>
</defs>
</svg>
