<svg width="18" height="18" viewBox="0 0 18 18" fill="none" xmlns="http://www.w3.org/2000/svg">
<path d="M17.7642 6.41314L17.7016 6.35061L15.0214 3.66999L14.9589 3.60746C14.7908 3.45455 14.5717 3.36991 14.3446 3.37012H9.56839V8.4428C9.5681 8.74154 9.44931 9.02796 9.2381 9.2392C9.02688 9.45044 8.74051 9.56925 8.44181 9.56954H3.37201V17.0954C3.37201 17.3353 3.46732 17.5655 3.63697 17.7351C3.80663 17.9048 4.03671 18.0001 4.27664 18.0001H17.0954C17.3353 18.0001 17.5654 17.9048 17.735 17.7351C17.9047 17.5655 18 17.3353 18 17.0954V7.02643C18.0003 6.7998 17.9162 6.58117 17.7642 6.41314Z" fill="url(#paint0_radial_10080_43517)"/>
<path d="M15.8983 9.4502H11.098C10.9326 9.4502 10.7985 9.57591 10.7985 9.73099V10.2944C10.7985 10.4495 10.9326 10.5752 11.098 10.5752H15.8983C16.0637 10.5752 16.1978 10.4495 16.1978 10.2944V9.73099C16.1978 9.57591 16.0637 9.4502 15.8983 9.4502Z" fill="#FCDDEC"/>
<path d="M15.7735 14.8496H8.97312C8.73879 14.8496 8.54883 14.9754 8.54883 15.1305V15.694C8.54883 15.8491 8.73879 15.9749 8.97312 15.9749H15.7735C16.0078 15.9749 16.1978 15.8491 16.1978 15.694V15.1305C16.1978 14.9754 16.0078 14.8496 15.7735 14.8496Z" fill="#FCDDEC"/>
<path d="M15.7735 12.1504H8.97312C8.73879 12.1504 8.54883 12.2761 8.54883 12.4313V12.9948C8.54883 13.1499 8.73879 13.2757 8.97312 13.2757H15.7735C16.0078 13.2757 16.1978 13.1499 16.1978 12.9948V12.4313C16.1978 12.2761 16.0078 12.1504 15.7735 12.1504Z" fill="#FCDDEC"/>
<path fill-rule="evenodd" clip-rule="evenodd" d="M8.44204 2.7166e-07H2.24955C2.10979 -0.000137389 1.97505 0.0520476 1.87183 0.146284L0.146265 1.87208C0.0520485 1.97546 -0.000121102 2.11033 2.11097e-07 2.25022V8.44318C2.11097e-07 8.59074 0.058587 8.73227 0.162879 8.83665C0.267171 8.94102 0.40864 8.99971 0.55618 8.99981H8.44204C8.58958 8.99971 8.73104 8.94102 8.83533 8.83665C8.93962 8.73227 8.99821 8.59074 8.99821 8.44318V0.556603C8.99826 0.483525 8.98391 0.411152 8.95599 0.343622C8.92806 0.276093 8.88709 0.214743 8.83544 0.163052C8.78379 0.111361 8.72247 0.070351 8.65496 0.042374C8.58746 0.014397 8.51511 2.7166e-07 8.44204 2.7166e-07ZM5.84904 6.56894C5.64684 6.56894 5.46472 6.53293 5.30268 6.46092C5.14203 6.38752 5.01461 6.27949 4.92044 6.13684C4.82765 5.99419 4.78125 5.8183 4.78125 5.60918C4.78125 5.42913 4.81449 5.28025 4.88097 5.16253C4.94744 5.04481 5.03816 4.95064 5.15311 4.88C5.26806 4.80937 5.39755 4.75605 5.54158 4.72004C5.687 4.68265 5.83727 4.65564 5.99238 4.63902C6.17935 4.61964 6.331 4.60232 6.44734 4.58709C6.56367 4.57047 6.64815 4.54554 6.70078 4.5123C6.75479 4.47768 6.7818 4.42436 6.7818 4.35234V4.33988C6.7818 4.18338 6.7354 4.0622 6.64261 3.97633C6.54982 3.89046 6.41617 3.84753 6.24167 3.84753C6.05747 3.84753 5.91136 3.88769 5.80334 3.96802C5.6967 4.04835 5.62468 4.14321 5.58729 4.25262L4.88512 4.15291C4.94052 3.95902 5.03192 3.79698 5.15934 3.66679C5.28675 3.53522 5.44256 3.43689 5.62676 3.3718C5.81095 3.30532 6.01454 3.27208 6.23752 3.27208C6.39125 3.27208 6.54428 3.29009 6.69663 3.3261C6.84897 3.36211 6.98816 3.42166 7.11419 3.50476C7.24022 3.58647 7.34132 3.69795 7.41749 3.83922C7.49505 3.98048 7.53382 4.15706 7.53382 4.36896V6.50454H6.81088V6.06621H6.78595C6.74025 6.15484 6.67585 6.23794 6.59275 6.3155C6.51104 6.39167 6.40787 6.4533 6.28322 6.50039C6.15996 6.54609 6.01523 6.56894 5.84904 6.56894ZM6.04432 6.01635C6.19528 6.01635 6.32615 5.98657 6.43695 5.92702C6.54774 5.86608 6.63292 5.78576 6.69247 5.68604C6.75341 5.58633 6.78388 5.47761 6.78388 5.35989V4.98388C6.76033 5.00326 6.72017 5.02127 6.66339 5.03789C6.60799 5.05451 6.54567 5.06905 6.47642 5.08151C6.40717 5.09398 6.33862 5.10506 6.27076 5.11475C6.20289 5.12445 6.14403 5.13276 6.09418 5.13968C5.982 5.15492 5.88159 5.17984 5.79295 5.21447C5.70431 5.24909 5.63437 5.29756 5.58313 5.35989C5.53189 5.42082 5.50627 5.49977 5.50627 5.59671C5.50627 5.73521 5.55682 5.83977 5.65792 5.9104C5.75902 5.98103 5.88782 6.01635 6.04432 6.01635ZM1.34981 2.25V2.89608H2.66464V6.50455H3.42902V2.89608H4.74384V2.25H1.34981Z" fill="#CA1E66"/>
<path d="M7.13059 14.5937L7.13112 14.0333C7.1311 14.0179 7.12765 14.0027 7.12114 13.9896C7.11464 13.9765 7.10534 13.9659 7.09428 13.959C7.08323 13.9521 7.07085 13.9492 7.05854 13.9505C7.04622 13.9519 7.03446 13.9575 7.02455 13.9667L5.87565 15.1536C5.86042 15.1678 5.84192 15.1755 5.82292 15.1755C5.80392 15.1755 5.78543 15.1678 5.7702 15.1536L5.05597 14.486C5.04607 14.4768 5.03431 14.4712 5.022 14.4698C5.00969 14.4684 4.99732 14.4714 4.98627 14.4783C4.97522 14.4852 4.96593 14.4958 4.95944 14.5089C4.95295 14.522 4.94952 14.5372 4.94954 14.5526L4.949 15.1134C4.94899 15.135 4.95302 15.1562 4.96076 15.1755C4.96849 15.1948 4.97972 15.2115 4.99357 15.2244L5.76996 15.9494C5.78514 15.9636 5.80362 15.9713 5.82261 15.9713C5.84159 15.9713 5.86007 15.9636 5.87525 15.9494L7.08617 14.7047C7.09998 14.6918 7.11118 14.6751 7.11889 14.6558C7.1266 14.6365 7.1306 14.6153 7.13059 14.5937Z" fill="#FCDDEC"/>
<path d="M7.13059 12.3437L7.13112 11.7833C7.1311 11.7679 7.12765 11.7527 7.12114 11.7396C7.11464 11.7265 7.10534 11.7159 7.09428 11.709C7.08323 11.7021 7.07085 11.6992 7.05854 11.7005C7.04622 11.7019 7.03446 11.7075 7.02455 11.7167L5.87565 12.9036C5.86042 12.9178 5.84192 12.9255 5.82292 12.9255C5.80392 12.9255 5.78543 12.9178 5.7702 12.9036L5.05597 12.236C5.04607 12.2268 5.03431 12.2212 5.022 12.2198C5.00969 12.2184 4.99732 12.2214 4.98627 12.2283C4.97522 12.2352 4.96593 12.2458 4.95944 12.2589C4.95295 12.272 4.94952 12.2872 4.94954 12.3026L4.949 12.8634C4.94899 12.885 4.95302 12.9062 4.96076 12.9255C4.96849 12.9448 4.97972 12.9615 4.99357 12.9744L5.76996 13.6994C5.78514 13.7136 5.80362 13.7213 5.82261 13.7213C5.84159 13.7213 5.86007 13.7136 5.87525 13.6994L7.08617 12.4547C7.09998 12.4418 7.11118 12.4251 7.11889 12.4058C7.1266 12.3865 7.1306 12.3653 7.13059 12.3437Z" fill="#FCDDEC"/>
<defs>
<radialGradient id="paint0_radial_10080_43517" cx="0" cy="0" r="1" gradientUnits="userSpaceOnUse" gradientTransform="translate(2.49663 4.14614) rotate(180) scale(20.8741 20.877)">
<stop stop-color="#E9519F"/>
<stop offset="1" stop-color="#CA1E66"/>
</radialGradient>
</defs>
</svg>
