<svg width="18" height="13" viewBox="0 0 18 13" fill="none" xmlns="http://www.w3.org/2000/svg">
<path d="M16.9458 5.19317C15.8772 3.68163 12.9632 0.166992 9.00001 0.166992C5.03684 0.166992 2.12626 3.68163 1.05353 5.19386C0.801754 5.55161 0.666626 5.9784 0.666626 6.41586C0.666626 6.85333 0.801754 7.28011 1.05353 7.63786C2.12626 9.15009 5.03684 12.6647 9.00001 12.6647C12.9632 12.6647 15.8772 9.15009 16.9465 7.63786C17.1983 7.27997 17.3334 6.85301 17.3333 6.4154C17.3332 5.97779 17.1978 5.55091 16.9458 5.19317ZM9.00001 9.88745C8.3134 9.88745 7.6422 9.68385 7.0713 9.30239C6.5004 8.92092 6.05543 8.37873 5.79268 7.74438C5.52992 7.11003 5.46117 6.41201 5.59512 5.73859C5.72908 5.06516 6.05971 4.44658 6.54522 3.96107C7.03074 3.47556 7.64931 3.14493 8.32274 3.01097C8.99616 2.87702 9.69418 2.94577 10.3285 3.20853C10.9629 3.47128 11.5051 3.91625 11.8865 4.48715C12.268 5.05805 12.4716 5.72924 12.4716 6.41586C12.4716 7.33659 12.1058 8.2196 11.4548 8.87065C10.8037 9.5217 9.92074 9.88745 9.00001 9.88745Z" fill="#00204D" fill-opacity="0.7" style="mix-blend-mode:multiply"/>
</svg>
