<svg width="20" height="20" viewBox="0 0 20 20" fill="none" xmlns="http://www.w3.org/2000/svg">
<path d="M10.9747 1.66602H4.99967C4.08301 1.66602 3.33301 2.41602 3.33301 3.33268V16.666C3.33301 17.5827 4.08301 18.3327 4.99967 18.3327H14.9997C15.9163 18.3327 16.6663 17.5827 16.6663 16.666V7.35768C16.6663 6.91602 16.4913 6.49102 16.1747 6.18268L12.1497 2.15768C11.8413 1.84102 11.4163 1.66602 10.9747 1.66602ZM13.333 12.4993C13.333 14.4493 11.658 16.0077 9.67467 15.816C7.94134 15.6493 6.66634 14.0993 6.66634 12.3577V8.03268C6.66634 6.94102 7.44967 5.94935 8.53301 5.84102C9.78301 5.71602 10.833 6.69102 10.833 7.91602V11.666C10.833 12.1243 10.458 12.4993 9.99967 12.4993C9.54134 12.4993 9.16634 12.1243 9.16634 11.666V7.91602C9.16634 7.68268 8.98301 7.49935 8.74967 7.49935C8.51634 7.49935 8.33301 7.68268 8.33301 7.91602V12.4077C8.33301 13.241 8.89967 14.0077 9.71634 14.141C10.7663 14.316 11.6663 13.5077 11.6663 12.4993V9.99935C11.6663 9.54102 12.0413 9.16602 12.4997 9.16602C12.958 9.16602 13.333 9.54102 13.333 9.99935V12.4993ZM11.6663 5.83268V3.33268L14.9997 6.66602H12.4997C12.0413 6.66602 11.6663 6.29102 11.6663 5.83268Z" fill="#A855F7"/>
</svg>
