<svg width="23" height="22" viewBox="0 0 23 22" fill="none" xmlns="http://www.w3.org/2000/svg">
<path d="M13.5837 1.83301H5.18088C4.97829 1.83301 4.78399 1.91349 4.64073 2.05675C4.49747 2.2 4.41699 2.3943 4.41699 2.5969V19.4025C4.41699 19.605 4.49747 19.7993 4.64073 19.9426C4.78399 20.0859 4.97829 20.1663 5.18088 20.1663H18.9309C19.1335 20.1663 19.3278 20.0859 19.471 19.9426C19.6143 19.7993 19.6948 19.605 19.6948 19.4025V7.94412H14.3475C14.145 7.94412 13.9507 7.86364 13.8074 7.72038C13.6641 7.57712 13.5837 7.38283 13.5837 7.18023V1.83301ZM7.0906 14.8191H17.0212C17.1225 14.8191 17.2196 14.8594 17.2912 14.931C17.3629 15.0026 17.4031 15.0998 17.4031 15.2011V15.965C17.4031 16.0662 17.3629 16.1634 17.2912 16.235C17.2196 16.3067 17.1225 16.3469 17.0212 16.3469H7.0906C6.98931 16.3469 6.89216 16.3067 6.82053 16.235C6.7489 16.1634 6.70866 16.0662 6.70866 15.965V15.2011C6.70866 15.0998 6.7489 15.0026 6.82053 14.931C6.89216 14.8594 6.98931 14.8191 7.0906 14.8191ZM7.0906 10.9997H17.0212C17.1225 10.9997 17.2196 11.0399 17.2912 11.1115C17.3629 11.1832 17.4031 11.2803 17.4031 11.3816V12.1455C17.4031 12.2468 17.3629 12.344 17.2912 12.4156C17.2196 12.4872 17.1225 12.5275 17.0212 12.5275H7.0906C6.98931 12.5275 6.89216 12.4872 6.82053 12.4156C6.7489 12.344 6.70866 12.2468 6.70866 12.1455V11.3816C6.70866 11.2803 6.7489 11.1832 6.82053 11.1115C6.89216 11.0399 6.98931 10.9997 7.0906 10.9997ZM10.91 8.70801H7.0906C6.98931 8.70801 6.89216 8.66777 6.82053 8.59614C6.7489 8.52451 6.70866 8.42736 6.70866 8.32606V7.56217C6.70866 7.46088 6.7489 7.36373 6.82053 7.2921C6.89216 7.22047 6.98931 7.18023 7.0906 7.18023H10.91C11.0113 7.18023 11.1085 7.22047 11.1801 7.2921C11.2518 7.36373 11.292 7.46088 11.292 7.56217V8.32606C11.292 8.42736 11.2518 8.52451 11.1801 8.59614C11.1085 8.66777 11.0113 8.70801 10.91 8.70801Z" fill="#6F2CED"/>
<path d="M19.2471 6.41634H15.1114V2.28065L19.2471 6.41634Z" fill="#6F2CED"/>
</svg>
