<svg width="23" height="22" viewBox="0 0 23 22" fill="none" xmlns="http://www.w3.org/2000/svg">
<path d="M8.23583 6.41634C7.81394 6.41634 7.47194 6.75835 7.47194 7.18023C7.47194 7.60211 7.81394 7.94412 8.23583 7.94412H11.2914C11.7133 7.94412 12.0553 7.60211 12.0553 7.18023C12.0553 6.75835 11.7133 6.41634 11.2914 6.41634H8.23583Z" fill="#00204D" fill-opacity="0.7" style="mix-blend-mode:multiply"/>
<path d="M7.47194 10.9996C7.47194 10.5777 7.81394 10.2357 8.23583 10.2357H15.8747C16.2966 10.2357 16.6386 10.5777 16.6386 10.9996C16.6386 11.4215 16.2966 11.7635 15.8747 11.7635H8.23583C7.81394 11.7635 7.47194 11.4215 7.47194 10.9996Z" fill="#00204D" fill-opacity="0.7" style="mix-blend-mode:multiply"/>
<path d="M8.23583 14.0553C7.81394 14.0553 7.47194 14.3973 7.47194 14.8192C7.47194 15.2411 7.81394 15.5831 8.23583 15.5831H15.8747C16.2966 15.5831 16.6386 15.2411 16.6386 14.8192C16.6386 14.3973 16.2966 14.0553 15.8747 14.0553H8.23583Z" fill="#00204D" fill-opacity="0.7" style="mix-blend-mode:multiply"/>
<path fill-rule="evenodd" clip-rule="evenodd" d="M4.4165 2.5969C4.4165 2.17501 4.75851 1.83301 5.18039 1.83301H14.3471C14.5534 1.83301 14.7406 1.91482 14.8781 2.04777C14.8811 2.05073 14.8842 2.05373 14.8872 2.05675L19.4705 6.64008C19.4758 6.6453 19.4809 6.65059 19.486 6.65595C19.616 6.79371 19.6902 6.97499 19.6941 7.16453C19.6942 7.16847 19.6943 7.17242 19.6943 7.17636L19.6943 7.18023V19.4024C19.6943 19.8243 19.3523 20.1663 18.9304 20.1663H5.18039C4.75851 20.1663 4.4165 19.8243 4.4165 19.4024V2.5969ZM5.94428 3.36079H13.5832V7.18023C13.5832 7.60211 13.9252 7.94412 14.3471 7.94412H18.1665V18.6386H5.94428V3.36079Z" fill="#00204D" fill-opacity="0.7" style="mix-blend-mode:multiply"/>
</svg>
