<svg width="179" height="181" viewBox="0 0 179 181" fill="none" xmlns="http://www.w3.org/2000/svg">
<circle cx="3.62838" cy="75.5542" r="3.62838" fill="#AA80F5"/>
<circle cx="21.771" cy="167.473" r="3.62838" fill="#C9BBF8"/>
<circle cx="163.277" cy="4.19576" r="3.62838" fill="#9377F0"/>
<circle cx="25.3989" cy="18.7094" r="3.62838" fill="#C9BBF8"/>
<circle cx="175.372" cy="87.6489" r="3.62838" fill="#8673EF"/>
<path d="M37.3594 61.6789C37.3594 48.8403 47.7671 38.4326 60.6057 38.4326C73.4442 38.4326 83.852 48.8403 83.852 61.6789V110.874H60.6057H37.3594V61.6789Z" stroke="#B3A0F5" stroke-width="8"/>
<circle cx="61.0378" cy="101.9" r="38.0583" fill="#100D40"/>
<circle cx="61.0374" cy="101.9" r="26.8138" fill="#C9BBF8"/>
<circle cx="61.2738" cy="97.8109" r="7.15559" fill="white"/>
<rect x="57.1855" y="92.7002" width="8.17782" height="20.4446" rx="4.08891" fill="white"/>
<rect x="76.04" y="12.2432" width="77.7174" height="148.392" rx="6" fill="white" stroke="#262626" stroke-width="4"/>
<path d="M74.04 40.0586V47.7886" stroke="#262626" stroke-width="4" stroke-linecap="round"/>
<path d="M74.04 63.249V76.5005" stroke="#262626" stroke-width="4" stroke-linecap="round"/>
<path d="M121.524 19.0771L108.273 19.0771" stroke="#999999" stroke-linecap="round"/>
<rect x="93.4023" y="40" width="3.30735" height="9.28417" rx="1.65368" fill="#FFBC42"/>
<rect width="4.13569" height="15.4191" rx="2.06785" transform="matrix(-0.818563 0.574417 0.742522 0.669822 90.6758 42.6592)" fill="#FFBC42"/>
<rect width="4.13569" height="15.4191" rx="2.06785" transform="matrix(0.818563 0.574417 -0.742522 0.669822 99.3389 42.7305)" fill="#FFBC42"/>
<rect x="113.253" y="40" width="3.30735" height="9.28417" rx="1.65368" fill="#FFBC42"/>
<rect width="4.13569" height="15.4191" rx="2.06785" transform="matrix(-0.818563 0.574417 0.742522 0.669822 110.527 42.6592)" fill="#FFBC42"/>
<rect width="4.13569" height="15.4191" rx="2.06785" transform="matrix(0.818563 0.574417 -0.742522 0.669822 119.189 42.7305)" fill="#FFBC42"/>
<rect x="133.104" y="40" width="3.30735" height="9.28417" rx="1.65368" fill="#FFBC42"/>
<rect width="4.13569" height="15.4191" rx="2.06785" transform="matrix(-0.818563 0.574417 0.742522 0.669822 130.378 42.6592)" fill="#FFBC42"/>
<rect width="4.13569" height="15.4191" rx="2.06785" transform="matrix(0.818563 0.574417 -0.742522 0.669822 139.04 42.7305)" fill="#FFBC42"/>
<circle cx="114.898" cy="95.2147" r="22.0858" fill="#100D40"/>
<path d="M104.96 95.7667L111.238 102.21C111.63 102.612 112.278 102.612 112.67 102.21L125.941 88.5889" stroke="white" stroke-width="5" stroke-linecap="round"/>
</svg>
