<svg width="25" height="25" viewBox="0 0 25 25" fill="none" xmlns="http://www.w3.org/2000/svg">
<g clip-path="url(#clip0_15384_36482)">
<path d="M18.7649 5.10898C16.5571 2.90117 12.9617 2.90117 10.7563 5.10898L4.63908 11.2215C4.59924 11.2613 4.57815 11.3152 4.57815 11.3715C4.57815 11.4277 4.59924 11.4816 4.63908 11.5215L5.50393 12.3863C5.54346 12.4257 5.59697 12.4478 5.65276 12.4478C5.70854 12.4478 5.76205 12.4257 5.80158 12.3863L11.9188 6.27383C12.6781 5.51445 13.6883 5.09727 14.7617 5.09727C15.8352 5.09727 16.8453 5.51445 17.6024 6.27383C18.3617 7.0332 18.7789 8.04336 18.7789 9.11445C18.7789 10.1879 18.3617 11.1957 17.6024 11.9551L11.368 18.1871L10.3578 19.1973C9.4133 20.1418 7.87815 20.1418 6.93362 19.1973C6.47658 18.7402 6.2258 18.1332 6.2258 17.4863C6.2258 16.8395 6.47658 16.2324 6.93362 15.7754L13.1188 9.59258C13.2758 9.43789 13.4821 9.35117 13.7024 9.35117H13.7047C13.925 9.35117 14.1289 9.43789 14.2836 9.59258C14.4406 9.74961 14.525 9.95586 14.525 10.1762C14.525 10.3941 14.4383 10.6004 14.2836 10.7551L9.22815 15.8059C9.1883 15.8457 9.16721 15.8996 9.16721 15.9559C9.16721 16.0121 9.1883 16.066 9.22815 16.1059L10.093 16.9707C10.1325 17.0101 10.186 17.0322 10.2418 17.0322C10.2976 17.0322 10.3511 17.0101 10.3906 16.9707L15.4438 11.9176C15.9102 11.4512 16.1656 10.8324 16.1656 10.1738C16.1656 9.51523 15.9078 8.89414 15.4438 8.43008C14.4805 7.4668 12.9149 7.46914 11.9516 8.43008L11.3516 9.03242L5.76877 14.6129C5.38986 14.9896 5.0895 15.4377 4.88512 15.9314C4.68074 16.4251 4.5764 16.9544 4.57815 17.4887C4.57815 18.5738 5.00237 19.5934 5.76877 20.3598C6.5633 21.152 7.60393 21.548 8.64455 21.548C9.68518 21.548 10.7258 21.152 11.518 20.3598L18.7649 13.1176C19.8313 12.0488 20.4219 10.6262 20.4219 9.11445C20.4242 7.60039 19.8336 6.17773 18.7649 5.10898Z" fill="#00204D" fill-opacity="0.7" style="mix-blend-mode:multiply"/>
</g>
<defs>
<clipPath id="clip0_15384_36482">
<rect width="24" height="24" fill="white" transform="translate(0.5 0.5)"/>
</clipPath>
</defs>
</svg>
