<svg width="23" height="22" viewBox="0 0 23 22" fill="none" xmlns="http://www.w3.org/2000/svg">
<path fill-rule="evenodd" clip-rule="evenodd" d="M10.8532 2.00768C11.1443 1.77478 11.558 1.77478 11.8491 2.00768L19.8201 8.38449C20.0092 8.53576 20.1192 8.76477 20.1192 9.00692V19.3692C20.1192 19.8095 19.7624 20.1663 19.3221 20.1663H13.7424C13.3022 20.1663 12.9453 19.8095 12.9453 19.3692V14.5866H9.75692V19.3692C9.75692 19.8095 9.40005 20.1663 8.95982 20.1663H3.38011C2.93988 20.1663 2.58301 19.8095 2.58301 19.3692V9.00692C2.58301 8.76477 2.69308 8.53576 2.88216 8.38449L10.8532 2.00768ZM4.17721 9.39003V18.5721H8.16272V13.7895C8.16272 13.3493 8.51959 12.9924 8.95982 12.9924H13.7424C14.1827 12.9924 14.5395 13.3493 14.5395 13.7895V18.5721H18.525V9.39003L11.3511 3.6509L4.17721 9.39003Z" fill="#00204D" fill-opacity="0.7" style="mix-blend-mode:multiply"/>
</svg>
