<svg width="23" height="22" viewBox="0 0 23 22" fill="none" xmlns="http://www.w3.org/2000/svg">
<path d="M19.8205 8.38458L11.8496 2.00787C11.7083 1.89468 11.5326 1.83301 11.3515 1.83301C11.1704 1.83301 10.9947 1.89468 10.8533 2.00787L2.8824 8.38458C2.78909 8.45929 2.71378 8.55403 2.66203 8.66179C2.61029 8.76955 2.58345 8.88757 2.5835 9.0071V19.3693C2.5835 19.5807 2.66747 19.7834 2.81696 19.9329C2.96644 20.0824 3.16918 20.1663 3.38058 20.1663H8.9602V13.7896H13.7427V20.1663H19.3224C19.5338 20.1663 19.7365 20.0824 19.886 19.9329C20.0355 19.7834 20.1194 19.5807 20.1194 19.3693V9.0071C20.1195 8.88757 20.0926 8.76955 20.0409 8.66179C19.9892 8.55403 19.9138 8.45929 19.8205 8.38458Z" fill="#6F2CED"/>
</svg>
