<svg width="20" height="20" viewBox="0 0 20 20" fill="none" xmlns="http://www.w3.org/2000/svg">
<path fill-rule="evenodd" clip-rule="evenodd" d="M3.33203 16.2513C3.33203 13.5664 5.50822 11.3902 8.19314 11.3902H12.3598C15.0447 11.3902 17.2209 13.5664 17.2209 16.2513V16.9457C17.2209 17.2477 17.0258 17.5151 16.7381 17.6072L16.5265 16.9457C16.7381 17.6072 16.7383 17.6071 16.7381 17.6072L16.7363 17.6077L16.7337 17.6086L16.7261 17.6109L16.7013 17.6185C16.6806 17.6247 16.6514 17.6333 16.6138 17.6439C16.5386 17.6652 16.4299 17.6944 16.288 17.729C16.0044 17.7981 15.5885 17.8884 15.0444 17.9782C13.9563 18.1576 12.356 18.3346 10.2765 18.3346C8.197 18.3346 6.59668 18.1576 5.50851 17.9782C4.96447 17.8884 4.54857 17.7981 4.26491 17.729C4.12309 17.6944 4.01432 17.6652 3.93914 17.6439C3.90155 17.6333 3.87235 17.6247 3.85161 17.6185L3.82685 17.6109L3.81924 17.6086L3.81664 17.6077L3.81563 17.6074C3.81544 17.6073 3.81483 17.6072 4.02648 16.9457L3.81483 17.6072C3.5272 17.5151 3.33203 17.2477 3.33203 16.9457V16.2513ZM4.72092 16.4098C4.9669 16.4667 5.30558 16.537 5.73455 16.6078C6.75141 16.7755 8.27609 16.9457 10.2765 16.9457C12.2769 16.9457 13.8015 16.7755 14.8184 16.6078C15.2474 16.537 15.5861 16.4667 15.832 16.4098V16.2513C15.832 14.3334 14.2777 12.7791 12.3598 12.7791H8.19314C6.27528 12.7791 4.72092 14.3334 4.72092 16.2513V16.4098Z" fill="url(#paint0_radial_16670_91833)"/>
<path fill-rule="evenodd" clip-rule="evenodd" d="M10.2765 3.05686C8.74265 3.05686 7.4987 4.30081 7.4987 5.83464C7.4987 6.62059 7.82402 7.51442 8.36799 8.20868C8.91404 8.90559 9.6001 9.30686 10.2765 9.30686C10.9528 9.30686 11.6389 8.90559 12.185 8.20868C12.7289 7.51442 13.0543 6.62059 13.0543 5.83464C13.0543 4.30081 11.8103 3.05686 10.2765 3.05686ZM6.10981 5.83464C6.10981 3.53374 7.97558 1.66797 10.2765 1.66797C12.5774 1.66797 14.4431 3.53374 14.4431 5.83464C14.4431 6.96604 13.991 8.15554 13.2782 9.06528C12.5675 9.97236 11.5175 10.6957 10.2765 10.6957C9.03549 10.6957 7.98544 9.97236 7.27472 9.06528C6.56191 8.15554 6.10981 6.96604 6.10981 5.83464Z" fill="url(#paint1_radial_16670_91833)"/>
<defs>
<radialGradient id="paint0_radial_16670_91833" cx="0" cy="0" r="1" gradientUnits="userSpaceOnUse" gradientTransform="translate(17.2643 1.66797) rotate(129.894) scale(21.7229 100.65)">
<stop stop-color="#D856FF"/>
<stop offset="1" stop-color="#2F45FF"/>
</radialGradient>
<radialGradient id="paint1_radial_16670_91833" cx="0" cy="0" r="1" gradientUnits="userSpaceOnUse" gradientTransform="translate(17.2643 1.66797) rotate(129.894) scale(21.7229 100.65)">
<stop stop-color="#D856FF"/>
<stop offset="1" stop-color="#2F45FF"/>
</radialGradient>
</defs>
</svg>
