<svg width="20" height="20" viewBox="0 0 20 20" fill="none" xmlns="http://www.w3.org/2000/svg">
<path fill-rule="evenodd" clip-rule="evenodd" d="M6.22005 10.6047C6.06301 10.4489 5.91671 10.2834 5.78208 10.1115C5.03828 9.16225 4.56652 7.92103 4.56652 6.74043V6.01579C4.56652 3.61486 6.51341 1.66797 8.91435 1.66797C11.3153 1.66797 13.2622 3.61486 13.2622 6.01579V6.74043C13.2622 7.92103 12.7904 9.16225 12.0466 10.1115C11.305 11.0581 10.2093 11.8129 8.91435 11.8129C6.97211 11.8129 5.23841 12.2527 4.09186 12.6393C3.51026 12.8362 3.11724 13.3866 3.11724 14.01V16.1607H9.63872C10.0389 16.1607 10.3636 16.4852 10.3636 16.8854C10.3636 17.2856 10.0392 17.61 9.63898 17.61H2.39294L2.39261 16.8854C2.39261 17.61 2.39288 17.61 2.39294 17.61C1.99273 17.61 1.66797 17.2856 1.66797 16.8854V14.01C1.66797 12.7741 2.44939 11.6649 3.62847 11.2661C4.31387 11.035 5.20052 10.7834 6.22005 10.6047ZM6.0158 6.01579C6.0158 4.41528 7.31383 3.11724 8.91435 3.11724C10.5149 3.11724 11.8129 4.41528 11.8129 6.01579V6.74043C11.8129 7.56056 11.4734 8.49326 10.9058 9.21769C10.336 9.94491 9.62013 10.3636 8.91435 10.3636C8.20856 10.3636 7.49268 9.94491 6.92288 9.21769C6.35527 8.49326 6.0158 7.56056 6.0158 6.74043V6.01579Z" fill="url(#paint0_radial_17425_54087)"/>
<path d="M17.3978 12.7498C17.6807 13.0328 17.6807 13.4916 17.3978 13.7746L15.7362 15.4361L17.3978 17.0976C17.6807 17.3806 17.6807 17.8394 17.3978 18.1224C17.1148 18.4054 16.656 18.4054 16.373 18.1224L14.7114 16.4609L13.0499 18.1224C12.7669 18.4054 12.3081 18.4054 12.0251 18.1224C11.7422 17.8394 11.7422 17.3806 12.0251 17.0976L13.6867 15.4361L12.0251 13.7746C11.7422 13.4916 11.7422 13.0328 12.0251 12.7498C12.3081 12.4668 12.7669 12.4668 13.0499 12.7498L14.7114 14.4113L16.373 12.7498C16.656 12.4668 17.1148 12.4668 17.3978 12.7498Z" fill="url(#paint1_radial_17425_54087)"/>
<defs>
<radialGradient id="paint0_radial_17425_54087" cx="0" cy="0" r="1" gradientUnits="userSpaceOnUse" gradientTransform="translate(17.6598 1.66797) rotate(133.816) scale(23.098 108.651)">
<stop stop-color="#D856FF"/>
<stop offset="1" stop-color="#2F45FF"/>
</radialGradient>
<radialGradient id="paint1_radial_17425_54087" cx="0" cy="0" r="1" gradientUnits="userSpaceOnUse" gradientTransform="translate(17.6598 1.66797) rotate(133.816) scale(23.098 108.651)">
<stop stop-color="#D856FF"/>
<stop offset="1" stop-color="#2F45FF"/>
</radialGradient>
</defs>
</svg>
