<svg width="212" height="139" viewBox="0 0 212 139" fill="none" xmlns="http://www.w3.org/2000/svg">
<path d="M76.3561 133.086C76.3561 133.086 69.1876 123.102 57.6722 120.239C46.1536 117.376 36.5563 106.084 37.1979 93.6073C37.8362 81.131 48.7165 76.4073 48.7165 66.3677C48.7165 56.3281 43.5971 45.1986 53.5152 31.5251C63.4332 17.8516 76.3626 22.9397 85.8944 24.8494C95.4261 26.7558 105.982 22.6241 115.259 11.4947C124.535 0.365229 145.972 4.50014 151.73 15.3108C157.487 26.1214 156.208 32.8004 156.849 39.1573C157.487 45.5174 161.648 49.0147 169.644 56.9625C177.641 64.9102 175.723 77.5557 167.405 88.0865C159.088 98.6174 162.928 120.45 151.088 127.659C139.252 134.865 123.717 140.285 105.73 138.213C87.7438 136.141 80.4477 137.588 76.3561 133.089V133.086Z" fill="#F2ECFD"/>
<path d="M36.3436 77.8059C36.3436 77.8059 40.1832 72.7764 38.7593 65.8241C37.3387 58.8686 37.8395 56.7507 39.5776 56.6076C41.3157 56.4644 45.2993 69.8907 36.3403 77.8059H36.3436Z" fill="#F2ECFD"/>
<path d="M173.059 84.5205C173.059 84.5205 166.98 90.5618 165.167 97.5564C163.353 104.551 167.514 103.067 169.111 97.5564C170.712 92.0453 171.884 86.9572 173.055 84.5205H173.059Z" fill="#F2ECFD"/>
<path d="M134.666 3.04915C134.666 3.04915 141.065 2.90926 146.895 6.86524C146.895 6.86524 148.46 8.20885 149.667 6.86524C150.875 5.52164 143.625 -0.200869 134.666 3.04915Z" fill="#F2ECFD"/>
<path d="M47.08 123.206C47.08 123.206 37.9803 124.065 35.7054 121.075C33.4304 118.085 32.7201 105.918 32.5761 99.9875C32.4354 94.06 33.0016 93.0222 36.1309 92.1991C39.2601 91.376 39.2405 87.9829 39.8166 83.4608C40.396 78.9388 42.157 74.6998 45.4695 75.2658C48.7821 75.8319 47.5284 91.9421 49.2207 92.9311C50.913 93.9201 53.6167 93.2141 54.471 96.8871C55.3254 100.56 59.5904 120.558 47.0767 123.206H47.08Z" fill="#E6EAF0"/>
<path d="M44.2095 113.986V138.21" stroke="#BEC5D0" stroke-linecap="round" stroke-linejoin="round"/>
<path d="M38.6677 106.725C39.4958 101.585 43.3845 99.2686 43.3845 99.2686C43.3845 99.2686 39.9704 97.8762 41.1161 88.0871C41.7838 82.3809 43.247 77.9597 44.3533 75.2627C41.7544 75.7149 40.3272 79.4789 39.8166 83.4609C39.2372 87.983 39.2569 91.3762 36.1309 92.1992C33.0016 93.0223 32.4354 94.0601 32.5761 99.9876C32.7169 105.915 33.4304 118.082 35.7054 121.075C36.4255 122.022 37.8297 122.582 39.4107 122.907C37.9115 118.212 38.085 110.362 38.6709 106.725H38.6677Z" fill="#00204D" fill-opacity="0.15" style="mix-blend-mode:multiply"/>
<path d="M153.134 123.206C153.134 123.206 144.034 124.065 141.76 121.075C139.485 118.085 138.774 105.918 138.63 99.9875C138.49 94.06 139.056 93.0222 142.185 92.1991C145.314 91.376 145.295 87.9829 145.871 83.4608C146.45 78.9388 148.211 74.6998 151.524 75.2658C154.836 75.8319 153.583 91.9421 155.275 92.9311C156.967 93.9201 159.671 93.2141 160.525 96.8871C161.38 100.56 165.645 120.558 153.131 123.206H153.134Z" fill="#E6EAF0"/>
<path d="M144.725 106.725C145.553 101.585 149.442 99.2686 149.442 99.2686C149.442 99.2686 146.028 97.8762 147.174 88.0871C147.841 82.3809 149.305 77.9597 150.411 75.2627C147.812 75.7149 146.385 79.4789 145.874 83.4609C145.295 87.983 145.314 91.3762 142.188 92.1992C139.059 93.0223 138.493 94.0601 138.634 99.9876C138.774 105.915 139.488 118.082 141.763 121.075C142.483 122.022 143.887 122.582 145.468 122.907C143.969 118.212 144.143 110.362 144.729 106.725H144.725Z" fill="#00204D" fill-opacity="0.15" style="mix-blend-mode:multiply"/>
<path d="M150.362 113.986V138.21" stroke="#BEC5D0" stroke-linecap="round" stroke-linejoin="round"/>
<path d="M81.9862 97.557C81.9862 97.557 81.505 97.5993 80.6802 97.5439" stroke="#5E9CEE" stroke-miterlimit="10"/>
<path d="M78.1173 97.1506C73.3678 96.0347 65.3875 92.0657 60.8737 78.2165C54.1569 57.6005 65.4039 45.2023 83.2956 36.9325C101.184 28.6659 109.75 21.0337 105.308 9.26986C100.867 -2.49399 82.3758 -0.268745 77.7048 9.26986C73.0339 18.8085 79.875 37.8857 106.686 36.6136C132.159 35.4067 140.074 23.0052 156.165 22.0422" stroke="#B299E6" stroke-miterlimit="10"/>
<path d="M157.458 21.9897C157.887 21.98 158.325 21.98 158.767 21.9897" stroke="#5E9CEE" stroke-miterlimit="10"/>
<path d="M121.017 82.8264C121.017 82.8264 121.239 82.3807 121.544 81.6357" stroke="#5E9CEE" stroke-miterlimit="10"/>
<path d="M122.408 79.1441C123.324 75.9689 123.887 71.4989 121.017 68.9158C116.218 64.5954 111.74 70.7148 114.617 74.3325C117.498 77.9501 126.136 74.1113 128.692 70.3082C131.249 66.5051 132.532 54.738 144.047 51.8784C154.564 49.266 151.209 56.7192 159.072 59.2113" stroke="#B299E6" stroke-miterlimit="10"/>
<path d="M160.358 59.5459C160.761 59.6337 161.193 59.7086 161.648 59.7704" stroke="#5E9CEE" stroke-miterlimit="10"/>
<path d="M32.6515 138.21C32.6515 138.21 25.2572 137.221 21.9872 133.265C18.7172 129.309 21.2769 128.46 20.8481 124.221C20.8481 124.221 20.8481 122.243 17.0085 118.567C13.169 114.894 14.8744 112.067 16.0135 109.523C17.1526 106.979 13.5978 99.7729 16.1542 98.0747C18.7139 96.3798 25.9642 104.718 27.8136 108.957C29.663 113.196 32.0787 110.213 33.7841 112.48C35.4894 114.751 36.059 121.179 37.6236 124.82C39.1882 128.46 36.3438 135.666 32.6482 138.21H32.6515Z" fill="#00204D" fill-opacity="0.15" style="mix-blend-mode:multiply"/>
<path d="M37.6271 124.82C36.0625 121.179 35.4929 114.751 33.7875 112.48C32.0822 110.209 29.6632 113.196 27.8171 108.957C25.9677 104.718 18.7174 96.3798 16.1577 98.0747C15.9253 98.2276 15.7452 98.4293 15.6045 98.6636C20.8385 105.372 30.9103 120.386 32.38 138.165C32.5502 138.194 32.6517 138.207 32.6517 138.207C36.3472 135.663 39.1917 128.457 37.6271 124.817V124.82Z" fill="#E6EAF0"/>
<path d="M32.6513 138.21C30.8739 123.32 22.4878 108.843 22.4878 108.843" stroke="#BEC5D0" stroke-miterlimit="10" stroke-linecap="round"/>
<path d="M184.391 113.144C184.391 113.144 186.204 115.2 188.656 110.857C191.108 106.511 194.414 101.107 198.04 102.483C201.667 103.863 193.775 112.845 191.962 117.627C190.148 122.409 191.091 123.044 191.687 125.484C192.283 127.921 190.682 129.427 186.95 130.422C183.219 131.418 183.111 131.688 180.446 135.211C177.782 138.731 167.33 136.929 167.33 136.929C167.33 136.929 165.517 129.508 165.943 124.635C166.368 119.758 167.33 116.791 169.141 118.593C170.954 120.396 172.447 125.269 174.794 122.94C177.14 120.607 175.54 113.505 178.208 109.692C180.872 105.876 182.43 109.692 184.394 113.147L184.391 113.144Z" fill="#E6EAF0"/>
<path d="M198.04 102.483C194.413 101.104 191.107 106.511 188.656 110.857C186.204 115.203 184.391 113.144 184.391 113.144C182.43 109.689 180.872 105.876 178.204 109.689C175.54 113.505 177.137 120.607 174.79 122.936C172.443 125.269 170.951 120.392 169.137 118.59C167.324 116.788 166.365 119.755 165.939 124.631C165.53 129.297 167.173 136.291 167.314 136.88C171.89 132.608 181.507 126.095 198.037 102.48L198.04 102.483Z" fill="#00204D" fill-opacity="0.15" style="mix-blend-mode:multiply"/>
<path d="M187.589 116.261C187.589 116.261 173.831 132.69 167.327 136.929" stroke="#BEC5D0" stroke-miterlimit="10" stroke-linecap="round"/>
<path d="M155 27.2148L160.902 22.1299H179.671L155 27.2148Z" fill="#6F2CED"/>
<path d="M157.062 17.748C157.134 17.9595 160.902 22.1302 160.902 22.1302H179.671L157.062 17.748Z" fill="#CFB9F9"/>
<path d="M161.042 31.2423C161.042 31.0308 161.648 25.8451 161.648 25.8451L179.671 22.1299L161.046 31.2456L161.042 31.2423Z" fill="#B299E6"/>
<path d="M26.688 55.6582L27.598 47.9447L41.4635 35.374L26.688 55.6582Z" fill="#B299E6"/>
<path d="M21.791 47.2813C21.9874 47.3919 27.5978 47.945 27.5978 47.945L41.4634 35.3711L21.791 47.2781V47.2813Z" fill="#F2ECFD"/>
<path d="M33.8857 54.5846C33.7417 54.4285 30.6714 50.1927 30.6714 50.1927L41.4634 35.374L33.8857 54.5846Z" fill="#CFB9F9"/>
<path d="M153.7 51.1301C153.7 51.1301 151.036 62.5199 145.809 66.8923H162.211C162.211 66.8923 166.712 60.3044 168.312 49.9395C168.312 49.9395 157.327 53.1407 153.704 51.1269L153.7 51.1301Z" fill="#B299E6"/>
<path d="M154.627 54.2407C154.627 54.2407 160.882 54.8751 165.93 53.3916" stroke="white" stroke-linecap="round" stroke-linejoin="round"/>
<path d="M153.985 56.3585C153.985 56.3585 160.81 57.2076 165.075 56.0039" stroke="white" stroke-linecap="round" stroke-linejoin="round"/>
<path d="M153.275 58.7628C153.275 58.7628 160.24 59.3452 164.224 58.418" stroke="white" stroke-linecap="round" stroke-linejoin="round"/>
<path d="M152.188 60.8799C152.188 60.8799 158.61 61.8689 163.442 60.8799" stroke="white" stroke-linecap="round" stroke-linejoin="round"/>
<path d="M120.696 25.2728C120.696 25.2728 121.868 29.3101 110.991 39.0504C110.991 39.0504 119.308 40.1109 124.853 37.8857C124.853 37.8857 127.838 35.9435 132.637 24.6709C132.637 24.6709 123.252 25.3769 120.693 25.2728H120.696Z" fill="#B299E6"/>
<path d="M121.815 27.5695C121.815 27.5695 126.228 27.6833 128.977 27.2148" stroke="white" stroke-linecap="round" stroke-linejoin="round"/>
<path d="M120.804 29.3359C120.804 29.3359 125.282 30.0419 129.266 29.3359" stroke="white" stroke-linecap="round" stroke-linejoin="round"/>
<path d="M119.452 31.2422C119.452 31.2422 124.27 31.8993 128.126 31.2422" stroke="white" stroke-linecap="round" stroke-linejoin="round"/>
<path d="M51.3453 65.2844C51.3453 65.2844 59.4499 66.2734 63.4302 65.0469C63.4302 65.0469 64.1405 75.4086 57.3877 81.2026C57.3877 81.2026 51.2013 82.6146 44.5205 81.2026C44.5205 81.2026 51.1783 73.4891 51.3453 65.2876V65.2844Z" fill="#B299E6"/>
<path d="M51.9834 67.207C51.9834 67.207 57.6723 67.7731 61.5806 67.6657" stroke="white" stroke-linecap="round" stroke-linejoin="round"/>
<path d="M51.5581 69.2568C51.5581 69.2568 57.9574 70.389 61.2274 69.8229" stroke="white" stroke-linecap="round" stroke-linejoin="round"/>
<path d="M50.7759 71.7842C50.7759 71.7842 56.6776 72.578 61.2274 72.1551" stroke="white" stroke-linecap="round" stroke-linejoin="round"/>
<path d="M49.6401 74.332C49.6401 74.332 55.8954 75.2657 60.0197 74.8395" stroke="white" stroke-linecap="round" stroke-linejoin="round"/>
<path d="M100.117 48.7937C100.117 48.7937 96.3821 45.8332 92.009 47.32C87.6359 48.8035 84.5427 51.8778 83.9044 55.5866C83.2661 59.2953 82.9453 60.1444 80.3856 61.7353C77.8259 63.3261 75.9078 67.6692 80.3856 72.0156C84.8635 76.362 97.3412 77.5266 102.673 76.8923C108.006 76.2579 106.938 72.0156 105.554 69.7904C104.169 67.5651 106.804 65.6555 106.5 63.0073C106.192 60.3591 103.848 59.8288 103.74 56.4357C103.632 53.0425 103.338 50.352 100.117 48.797V48.7937Z" fill="#16293B"/>
<path d="M100.435 51.875C100.435 51.875 96.916 57.386 90.304 58.7654C90.304 58.7654 90.0389 60.5157 90.304 62.3148C90.304 62.3148 89.5053 61.0948 88.9161 59.9822C88.3302 58.8695 87.2631 58.9736 86.89 59.9822C86.5168 60.9874 86.5692 63.4274 88.5954 64.1171C88.5954 64.1171 89.2337 65.3891 89.2893 66.4497C89.3417 67.5102 88.8638 70.3178 88.8638 70.3178C88.8638 70.3178 90.016 75.458 93.574 78.2135C93.574 78.2135 93.8031 74.7683 93.574 71.4304L93.8228 68.8343C93.8228 68.8343 98.3563 70.4252 100.968 67.8811C103.58 65.3371 103.155 60.7272 103.155 58.4466C103.155 56.1661 103.181 55.0535 103.181 55.0535C103.181 55.0535 102.088 52.6167 100.435 51.875Z" fill="#FED3B3"/>
<path d="M100.009 60.1445C100.009 60.1445 98.3563 63.0074 99.371 63.5897C100.382 64.1721 100.759 62.6365 100.009 60.1445Z" fill="#FD974E"/>
<path d="M95.3149 65.2842C95.3149 65.2842 95.3149 66.5562 96.7028 66.3447" stroke="#16293B" stroke-linecap="round" stroke-linejoin="round"/>
<path d="M96.4086 62.3175C96.8063 62.3175 97.1287 61.748 97.1287 61.0455C97.1287 60.3429 96.8063 59.7734 96.4086 59.7734C96.0109 59.7734 95.6885 60.3429 95.6885 61.0455C95.6885 61.748 96.0109 62.3175 96.4086 62.3175Z" fill="#16293B"/>
<path d="M102.196 62.3175C102.593 62.3175 102.916 61.748 102.916 61.0455C102.916 60.3429 102.593 59.7734 102.196 59.7734C101.798 59.7734 101.476 60.3429 101.476 61.0455C101.476 61.748 101.798 62.3175 102.196 62.3175Z" fill="#16293B"/>
<path d="M93.8226 68.8336C93.8226 68.8336 92.4904 68.2513 91.1025 67.6689C91.1025 67.6689 92.6082 69.6372 93.695 70.1642L93.8226 68.8369V68.8336Z" fill="#16293B"/>
<path d="M107.58 107.626H76.3564V137.514H107.58V107.626Z" fill="#A9B1C1"/>
<path d="M76.3857 107.516L107.482 107.516L107.482 137.446L76.3857 107.61L76.3857 107.516Z" fill="#00204D" fill-opacity="0.15" style="mix-blend-mode:multiply"/>
<path opacity="0.29" d="M95.1809 107.626H90.5034V137.514H95.1809V107.626Z" fill="#FDFCFD"/>
<path d="M92.8438 107.626V137.514" stroke="white" stroke-miterlimit="10"/>
<path d="M101.475 88.3374C100.968 87.4883 101.911 81.7658 101.475 79.2217C101.04 76.6777 100.755 75.3341 98.2677 73.7823C95.78 72.2272 93.5738 71.4334 93.5738 71.4334C93.8029 74.7712 93.5738 78.2165 93.5738 78.2165C90.019 75.4609 88.8635 70.3208 88.8635 70.3208C88.8635 70.3208 81.9144 69.8263 79.7802 75.4089C77.646 80.9915 75.7999 86.9255 76.5102 88.1259C77.2205 89.3264 81.9831 91.0246 81.9831 91.0246L80.844 93.92C80.844 93.92 87.8161 93.4971 92.1859 93.637C96.5557 93.7769 97.4788 93.92 97.4788 93.92H105.299V90.387C105.299 90.387 101.976 89.1865 101.469 88.3374H101.475Z" fill="#6F2CED"/>
<path d="M117.819 102.007C116.752 98.6143 115.685 97.9799 111.848 97.557C111.848 97.557 110.641 95.6831 104.065 94.8015L97.4886 93.9198C97.4886 93.9198 96.5655 93.78 92.1957 93.6368C87.8259 93.4937 80.8538 93.9198 80.8538 93.9198C80.8538 93.9198 77.8326 102.33 83.3775 106.673C88.9224 111.019 102.919 109.428 102.919 109.428C102.919 109.428 103.93 123.417 106.503 127.66C106.503 127.66 107.796 128.72 110.569 127.66L112.487 113.986C112.487 113.986 115.151 120.45 118.565 124.266C118.565 124.266 121.763 124.689 123.043 123.206C123.043 123.206 118.883 105.401 117.819 102.007Z" fill="white"/>
<path d="M85.4004 94.9089H97.1285L98.1171 93.9199H85.4004V94.9089Z" fill="#17273E"/>
<path d="M91.757 90.6666L90.8994 93.6076L100.114 93.9167C100.114 93.9167 98.3363 92.1501 97.1285 91.0896C95.9206 90.029 91.757 90.6666 91.757 90.6666Z" fill="#FFF3EB"/>
<path d="M81.9863 91.0215L90.9027 93.6111" stroke="#CFB9F9" stroke-linecap="round" stroke-linejoin="round"/>
<path d="M91.7573 90.6669C91.7573 90.6669 87.5315 88.1944 85.3973 87.2054C83.2631 86.2164 81.3385 85.4389 80.0259 85.5104" stroke="#CFB9F9" stroke-linecap="round" stroke-linejoin="round"/>
<path d="M84.9717 78.2129L81.6133 85.7215C81.6133 85.7215 85.8522 86.9967 90.5035 89.9442C90.5035 89.9442 86.0911 86.499 85.024 84.0785C83.9569 81.6581 84.9717 78.2129 84.9717 78.2129Z" fill="#5C2EB8"/>
<path d="M97.4855 77.8066C97.4855 77.8066 99.1909 80.4906 98.8374 82.8232C98.4806 85.1558 97.6983 85.2241 97.132 86.4961C96.5625 87.7682 97.132 91.0898 97.132 91.0898" stroke="#CFB9F9" stroke-linecap="round" stroke-linejoin="round"/>
<path d="M117.819 102.007C116.765 98.6598 115.708 97.9962 111.993 97.5732C112.012 98.0938 111.986 99.2096 112.127 99.7855C112.827 102.639 113.554 107.04 112.389 114.682L112.487 113.983C112.487 113.983 115.151 120.447 118.565 124.263C118.565 124.263 121.763 124.686 123.043 123.203C123.043 123.203 118.883 105.397 117.819 102.004V102.007Z" fill="#E6EAF0"/>
<path d="M102.915 109.428C102.915 109.428 102.588 106.992 102.915 104.021" stroke="#B299E6" stroke-linecap="round" stroke-linejoin="round"/>
<path d="M112.487 113.986C112.487 113.986 113.41 108.898 112.984 104.519C112.559 100.137 111.845 97.5605 111.845 97.5605" stroke="#B299E6" stroke-linecap="round" stroke-linejoin="round"/>
<path d="M106.5 127.659C106.5 127.659 105.731 132.64 105.731 134.195C105.731 135.75 109.184 137.162 112.471 137.8C115.757 138.434 116.68 138.434 117.318 137.094C117.957 135.75 114.628 135.07 113.093 132.936C111.557 130.802 110.562 127.659 110.562 127.659C110.562 127.659 108.402 128.684 106.497 127.659H106.5Z" fill="#4E3A9C"/>
<path d="M118.565 124.266C118.565 124.266 120.235 128.964 120.664 130.168C121.089 131.368 124.575 132.24 128.411 132.936C132.251 133.629 132.961 131.794 132.464 130.451C131.966 129.107 127.344 127.272 125.996 126.423C124.647 125.574 123.047 123.209 123.047 123.209C123.047 123.209 122.441 124.517 118.569 124.27L118.565 124.266Z" fill="#413082"/>
<path d="M97.1284 94.9088L109.181 82.8262H126.67L114.084 94.9088H97.1284Z" fill="#17273E"/>
<path d="M68.2877 138.48C68.2877 138.48 66.602 127.897 62.8835 124.384C59.1684 120.87 54.6382 122.298 52.9295 124.384C51.2241 126.469 51.0801 130.025 46.3895 129.306C41.6989 128.587 38.9952 128.896 35.4404 134.111C31.8856 139.329 32.6156 138.269 32.6156 138.269L68.2877 138.48Z" fill="#DED0FB"/>
<path d="M44.3535 136.928C45.1097 133.161 53.4107 134.97 54.2617 129.459C54.6643 126.866 55.9311 124.289 57.1586 122.285C55.3452 122.464 53.7838 123.342 52.9295 124.384C51.2241 126.469 51.0801 130.025 46.3895 129.306C41.6989 128.587 38.9952 128.896 35.4404 134.111C31.8856 139.329 32.6156 138.268 32.6156 138.268L44.2586 138.337C44.2324 137.865 44.2586 137.39 44.3535 136.928Z" fill="#B299E6"/>
<path d="M135.688 138.435C135.688 138.435 139.429 131.447 141.115 128.744C142.801 126.04 145.891 126.134 148.045 128.958C150.195 131.782 152.601 123.161 153.626 121.18C154.65 119.198 155.796 116.687 160.372 117.042C164.948 117.396 167.108 126.691 168.404 129.593C169.701 132.495 171.383 136.577 175.367 138.822L135.688 138.432V138.435Z" fill="#DED0FB"/>
<path d="M150.408 133.77C152.028 131.649 155.756 129.671 156.519 122.907C156.794 120.461 158.021 118.509 159.471 117.009C155.635 117.032 154.575 119.332 153.622 121.179C152.601 123.161 150.192 131.782 148.041 128.958C145.891 126.134 142.797 126.037 141.112 128.743C139.426 131.447 135.685 138.435 135.685 138.435L149.812 138.575C149.567 137.046 149.475 134.99 150.404 133.773L150.408 133.77Z" fill="#B299E6"/>
<path d="M0.655273 25.3868C0.655273 25.3868 0.655274 21.3365 4.56684 18.9063C8.4784 16.4761 10.5995 20.2011 12.7206 21.4179C14.8416 22.6346 15.8171 15.0154 20.056 11.4531C24.2949 7.88748 27.8267 10.8057 29.1589 15.3407C30.4912 19.8791 33.5877 21.1739 37.3388 18.9063C41.09 16.6388 43.5352 24.4174 43.3715 25.3868H0.655273Z" fill="#F2F5F8"/>
<path d="M19.0674 17.6242C20.092 14.5564 22.488 11.6024 24.0788 9.87495C22.8579 9.77735 21.4995 10.2393 20.056 11.4528C15.8171 15.0184 14.8384 22.6343 12.7206 21.4176C10.5995 20.2008 8.48167 16.4758 4.56684 18.906C0.655274 21.3362 0.655273 25.3866 0.655273 25.3866H18.6976C18.3473 23.7306 18.0134 20.7734 19.0674 17.6242Z" fill="#E6EAF0"/>
<path d="M211.961 43.1368C211.961 43.1368 211.961 39.0865 208.05 36.6563C204.138 34.2261 202.017 37.9511 199.896 39.1679C197.775 40.3846 196.799 32.7654 192.557 29.2031C188.318 25.6375 184.786 28.5557 183.454 33.0907C182.122 37.6291 179.025 38.9239 175.274 36.6563C171.523 34.3888 169.078 42.1674 169.242 43.1368H211.961Z" fill="#F2F5F8"/>
<path d="M185.428 36.295C186.279 31.8933 188.4 29.2972 190.197 27.8267C187.042 26.8215 184.531 29.4273 183.458 33.0873C182.125 37.6256 179.029 38.9204 175.278 36.6529C171.527 34.3853 169.081 42.1639 169.245 43.1334H186.138C185.32 41.3994 184.878 39.1416 185.428 36.2917V36.295Z" fill="#E6EAF0"/>
</svg>
