<svg width="57" height="56" viewBox="0 0 57 56" fill="none" xmlns="http://www.w3.org/2000/svg">
<rect x="0.5" width="56" height="56" rx="28" fill="#F2F5F8"/>
<path d="M28.5001 13.416C25.6158 13.416 22.7962 14.2713 20.398 15.8737C17.9998 17.4762 16.1306 19.7538 15.0268 22.4185C13.9231 25.0833 13.6343 28.0155 14.197 30.8444C14.7597 33.6733 16.1486 36.2718 18.1881 38.3113C20.2276 40.3508 22.8261 41.7398 25.655 42.3025C28.4839 42.8652 31.4161 42.5764 34.0809 41.4726C36.7456 40.3688 39.0232 38.4996 40.6257 36.1014C42.2281 33.7032 43.0834 30.8837 43.0834 27.9993C43.0792 24.1329 41.5414 20.426 38.8074 17.692C36.0734 14.958 32.3665 13.4202 28.5001 13.416V13.416ZM29.7494 36.1709H27.2398V25.5688H29.7494V36.1709ZM29.5416 22.2377C29.4031 22.3646 29.2405 22.4623 29.0634 22.5249C28.8864 22.5876 28.6985 22.6139 28.511 22.6023C28.3201 22.615 28.1286 22.5893 27.9479 22.5267C27.7671 22.464 27.6007 22.3658 27.4586 22.2377C27.333 22.1025 27.2361 21.9434 27.1734 21.7699C27.1108 21.5964 27.0838 21.412 27.094 21.2278C27.0813 21.0393 27.1071 20.8502 27.1697 20.672C27.2324 20.4938 27.3307 20.3302 27.4586 20.1912C27.6011 20.0637 27.7675 19.9658 27.9482 19.9032C28.1289 19.8406 28.3202 19.8146 28.511 19.8266C28.6984 19.8157 28.8861 19.8423 29.0631 19.9049C29.24 19.9675 29.4027 20.0649 29.5416 20.1912C29.6695 20.3302 29.7678 20.4938 29.8304 20.672C29.8931 20.8502 29.9189 21.0393 29.9062 21.2278C29.9164 21.412 29.8894 21.5964 29.8268 21.7699C29.7641 21.9434 29.6671 22.1025 29.5416 22.2377Z" fill="#366AE2"/>
</svg>
