<svg width="18" height="18" viewBox="0 0 18 18" fill="none" xmlns="http://www.w3.org/2000/svg">
<path d="M6.16734 13.3831H13.8387C14.9804 13.3831 15.9911 12.6198 16.2977 11.5265L17.9596 5.81032C18.0046 5.6556 17.9742 5.48875 17.8774 5.35991C17.7807 5.23106 17.629 5.15523 17.4679 5.15523H4.53023L3.92888 2.34812C3.63626 0.987518 2.40959 0 1.01211 0C0.729288 0 0.5 0.229288 0.5 0.512109C0.5 0.79493 0.729288 1.02422 1.01211 1.02422C1.91537 1.02422 2.73884 1.68597 2.9275 2.56307L4.81227 11.3609C4.90783 11.8054 5.12209 12.2164 5.42649 12.5499C4.95269 12.8118 4.63102 13.3166 4.63102 13.8952C4.63102 14.6027 5.11189 15.1997 5.76383 15.3774C5.69405 15.5528 5.65523 15.7437 5.65523 15.9437C5.65523 16.7908 6.34443 17.48 7.19156 17.48C8.03869 17.48 8.72789 16.7908 8.72789 15.9437C8.72789 15.7642 8.69665 15.5919 8.63981 15.4316H12.9128C12.856 15.5919 12.8248 15.7642 12.8248 15.9437C12.8248 16.7908 13.514 17.48 14.3611 17.48C15.2082 17.48 15.8974 16.7908 15.8974 15.9437C15.8974 15.7642 15.8662 15.5919 15.8093 15.4316H16.4095C16.6924 15.4316 16.9216 15.2023 16.9216 14.9195C16.9216 14.6366 16.6924 14.4073 16.4095 14.4073H6.16734C5.88497 14.4073 5.65523 14.1776 5.65523 13.8952C5.65523 13.6129 5.88497 13.3831 6.16734 13.3831Z" fill="url(#paint0_linear_10084_39196)"/>
<path d="M13.9322 7.1954C13.6532 7.14942 13.3896 7.33835 13.3436 7.61742L12.8315 10.7242C12.7855 11.0033 12.9745 11.2668 13.2535 11.3128C13.5334 11.359 13.7962 11.169 13.8421 10.8908L14.3542 7.78399C14.4002 7.50489 14.2113 7.24139 13.9322 7.1954ZM8.2089 7.61738C8.16291 7.33832 7.89948 7.14938 7.62031 7.19537C7.34125 7.24136 7.15231 7.50489 7.1983 7.78396L7.71041 10.8908C7.75629 11.1691 8.01925 11.3589 8.29899 11.3128C8.57806 11.2668 8.76699 11.0032 8.72101 10.7242L8.2089 7.61738ZM10.7763 7.18858C10.4935 7.18858 10.2642 7.41787 10.2642 7.70069V10.8075C10.2642 11.0903 10.4935 11.3196 10.7763 11.3196C11.0591 11.3196 11.2884 11.0903 11.2884 10.8075V7.70069C11.2884 7.41787 11.0591 7.18858 10.7763 7.18858Z" fill="url(#paint1_linear_10084_39196)"/>
<defs>
<linearGradient id="paint0_linear_10084_39196" x1="9.24" y1="17.48" x2="9.24" y2="0" gradientUnits="userSpaceOnUse">
<stop stop-color="#FD5900"/>
<stop offset="1" stop-color="#FFDE00"/>
</linearGradient>
<linearGradient id="paint1_linear_10084_39196" x1="10.7763" y1="11.3197" x2="10.7763" y2="7.18851" gradientUnits="userSpaceOnUse">
<stop stop-color="#FFE59A"/>
<stop offset="1" stop-color="#FFFFD5"/>
</linearGradient>
</defs>
</svg>
