<svg width="15" height="18" viewBox="0 0 15 18" fill="none" xmlns="http://www.w3.org/2000/svg">
<path d="M12.1376 7.61241H2.41536C1.86283 7.61241 1.33293 7.8319 0.942225 8.2226C0.551525 8.6133 0.332031 9.14321 0.332031 9.69574V15.2513C0.332031 15.8038 0.551525 16.3337 0.942225 16.7244C1.33293 17.1151 1.86283 17.3346 2.41536 17.3346H12.1376C12.6901 17.3346 13.22 17.1151 13.6107 16.7244C14.0014 16.3337 14.2209 15.8038 14.2209 15.2513V9.69574C14.2209 9.14321 14.0014 8.6133 13.6107 8.2226C13.22 7.8319 12.6901 7.61241 12.1376 7.61241ZM7.27647 13.8624C7.00178 13.8624 6.73325 13.781 6.50485 13.6283C6.27645 13.4757 6.09843 13.2588 5.99331 13.005C5.88819 12.7512 5.86068 12.472 5.91427 12.2026C5.96786 11.9331 6.10014 11.6857 6.29438 11.4914C6.48862 11.2972 6.7361 11.1649 7.00551 11.1113C7.27493 11.0577 7.55419 11.0852 7.80798 11.1904C8.06176 11.2955 8.27868 11.4735 8.43129 11.7019C8.5839 11.9303 8.66536 12.1988 8.66536 12.4735C8.66536 12.8419 8.51903 13.1951 8.25857 13.4556C7.9981 13.7161 7.64483 13.8624 7.27647 13.8624Z" fill="#00204D" fill-opacity="0.7" style="mix-blend-mode:multiply"/>
<path d="M11.4431 6.22353H10.0542V4.83464C10.062 4.10625 9.78035 3.40455 9.2711 2.88371C8.76184 2.36286 8.06666 2.06547 7.33828 2.05686H7.30911C6.94621 2.05052 6.58561 2.11575 6.24792 2.24883C5.91024 2.38191 5.60209 2.58024 5.34109 2.83247C5.08009 3.0847 4.87136 3.38589 4.72681 3.71883C4.58227 4.05176 4.50475 4.40992 4.4987 4.77284V6.22353H3.10981V4.7652C3.12095 3.67611 3.56086 2.63529 4.33418 1.86834C5.1075 1.10139 6.15192 0.670111 7.24106 0.667976H7.28342C7.83114 0.666961 8.37364 0.774323 8.87969 0.983879C9.38573 1.19343 9.84532 1.50104 10.232 1.88898C10.6186 2.27692 10.9247 2.73753 11.1326 3.24427C11.3404 3.75101 11.446 4.29387 11.4431 4.84159V6.22353Z" fill="#00204D" fill-opacity="0.7" style="mix-blend-mode:multiply"/>
</svg>
