<svg width="17" height="19" viewBox="0 0 17 19" fill="none" xmlns="http://www.w3.org/2000/svg">
<path d="M5.6875 4.75V7H14.125C15.3555 7 16.375 8.01953 16.375 9.25V16C16.375 17.2656 15.3555 18.25 14.125 18.25H2.875C1.60938 18.25 0.625 17.2656 0.625 16V9.25C0.625 8.01953 1.60938 7 2.875 7H4V4.75C4 2.28906 6.00391 0.25 8.5 0.25C10.5039 0.25 12.1914 1.58594 12.7539 3.37891C12.8945 3.83594 12.6484 4.29297 12.2266 4.43359C11.7695 4.57422 11.3125 4.32812 11.1719 3.90625C10.7852 2.78125 9.73047 1.9375 8.5 1.9375C6.91797 1.9375 5.6875 3.20312 5.6875 4.75ZM2.3125 9.25V16C2.3125 16.3164 2.55859 16.5625 2.875 16.5625H14.125C14.4062 16.5625 14.6875 16.3164 14.6875 16V9.25C14.6875 8.96875 14.4062 8.6875 14.125 8.6875H2.875C2.55859 8.6875 2.3125 8.96875 2.3125 9.25Z" fill="url(#paint0_radial_16701_30735)"/>
<defs>
<radialGradient id="paint0_radial_16701_30735" cx="0" cy="0" r="1" gradientUnits="userSpaceOnUse" gradientTransform="translate(20.0719 -3.69981e-06) rotate(142.04) scale(29.2628 133.628)">
<stop stop-color="#D856FF"/>
<stop offset="1" stop-color="#2F45FF"/>
</radialGradient>
</defs>
</svg>
