<svg width="20" height="20" viewBox="0 0 20 20" fill="none" xmlns="http://www.w3.org/2000/svg">
<path d="M3.21875 10.5625C3.0625 10.4062 3 10.2188 3 10C3 9.8125 3.0625 9.625 3.21875 9.46875L8.71875 4.21875C9.03125 3.9375 9.5 3.9375 9.78125 4.25C10.0625 4.53125 10.0625 5.03125 9.75 5.3125L5.59375 9.25H16.25C16.6562 9.25 17 9.59375 17 10C17 10.4375 16.6562 10.75 16.25 10.75H5.59375L9.75 14.7188C10.0625 15 10.0625 15.4688 9.78125 15.7812C9.5 16.0938 9.03125 16.0938 8.71875 15.8125L3.21875 10.5625Z" fill="#1D2939"/>
</svg>
