<svg width="20" height="20" viewBox="0 0 20 20" fill="none" xmlns="http://www.w3.org/2000/svg">
<path fill-rule="evenodd" clip-rule="evenodd" d="M9.44109 1.68359C11.4238 1.68359 13.042 3.24521 13.1329 5.20546L13.1369 5.37943V6.15693C13.1369 6.5021 12.8571 6.78193 12.5119 6.78193C12.1955 6.78193 11.934 6.5468 11.8926 6.24174L11.8869 6.15693V5.37943C11.8869 4.07701 10.8686 3.01215 9.58479 2.93775L9.44109 2.93359H5.37859C4.07688 2.93359 3.01214 3.95204 2.93775 5.23574L2.93359 5.37943V14.6544C2.93359 15.9567 3.95185 17.0217 5.23497 17.0961L5.37859 17.1003H9.44943C10.7472 17.1003 11.8086 16.0856 11.8828 14.8067L11.8869 14.6636V13.8778C11.8869 13.5326 12.1667 13.2528 12.5119 13.2528C12.8283 13.2528 13.0898 13.4879 13.1312 13.793L13.1369 13.8778V14.6636C13.1369 16.6396 11.5813 18.2528 9.62805 18.346L9.44943 18.3503H5.37859C3.39656 18.3503 1.77846 16.7885 1.68762 14.8284L1.68359 14.6544V5.37943C1.68359 3.39688 3.24506 1.77848 5.20468 1.68762L5.37859 1.68359H9.44109ZM18.6054 9.56541C18.7242 9.67918 18.7982 9.83938 18.7982 10.0168C18.7982 10.1961 18.7227 10.3577 18.6018 10.4717L16.174 12.8896C15.9294 13.1332 15.5337 13.1324 15.2901 12.8878C15.0686 12.6655 15.0492 12.3182 15.2312 12.0739L15.2919 12.0039L16.6586 10.6418H8.13901C7.79383 10.6418 7.51401 10.362 7.51401 10.0168C7.51401 9.70043 7.74914 9.43893 8.0542 9.39755L8.13901 9.39184H16.66L15.292 8.03052C15.0696 7.80912 15.0486 7.46195 15.2296 7.21687L15.29 7.14664C15.5114 6.92425 15.8586 6.90331 16.1037 7.08431L16.1739 7.14467L18.6054 9.56541Z" fill="url(#paint0_radial_16670_91819)"/>
<defs>
<radialGradient id="paint0_radial_16670_91819" cx="0" cy="0" r="1" gradientUnits="userSpaceOnUse" gradientTransform="translate(18.8517 1.68359) rotate(135.849) scale(23.9274 112.599)">
<stop stop-color="#D856FF"/>
<stop offset="1" stop-color="#2F45FF"/>
</radialGradient>
</defs>
</svg>
