<svg width="278" height="52" viewBox="0 0 278 52" fill="none" xmlns="http://www.w3.org/2000/svg">
<mask id="mask0_11576_63955" style="mask-type:luminance" maskUnits="userSpaceOnUse" x="0" y="0" width="24" height="24">
<path d="M0 0H23.4449V23.3752H0V0Z" fill="white"/>
</mask>
<g mask="url(#mask0_11576_63955)">
<path d="M15.0313 0H8.33906C8.06554 0 7.79366 0.0139217 7.52178 0.0409459C7.2499 0.0679703 6.98047 0.108097 6.71269 0.162146C6.4449 0.215375 6.18039 0.281708 5.91915 0.361143C5.65792 0.440578 5.4016 0.532297 5.14937 0.637118C4.89714 0.74194 4.65065 0.858226 4.40988 0.987615C4.16912 1.11618 3.93491 1.25622 3.70807 1.40854C3.48123 1.56004 3.26258 1.72218 3.0513 1.89579C2.84001 2.06859 2.63856 2.25202 2.44529 2.44529C2.25203 2.63855 2.06941 2.84001 1.8958 3.05129C1.72219 3.26257 1.56004 3.48122 1.40854 3.70806C1.25622 3.9349 1.11619 4.16911 0.987617 4.40987C0.859047 4.65063 0.741941 4.89713 0.63712 5.14936C0.533117 5.40158 0.440579 5.6579 0.361144 5.91914C0.281708 6.18037 0.215376 6.44488 0.162146 6.71267C0.108098 6.98046 0.0679705 7.24988 0.040946 7.52176C0.0139217 7.79364 0.000818867 8.06552 0 8.33822V15.0312C0.000818867 15.3048 0.0139217 15.5766 0.040946 15.8485C0.0679705 16.1204 0.108098 16.3898 0.162146 16.6576C0.215376 16.9254 0.281708 17.1899 0.361144 17.4511C0.440579 17.7124 0.533117 17.9687 0.63712 18.2209C0.741941 18.4731 0.859047 18.7196 0.987617 18.9604C1.11619 19.2012 1.25622 19.4354 1.40854 19.6622C1.56004 19.8891 1.72219 20.1077 1.8958 20.319C2.06941 20.5303 2.25203 20.7317 2.44529 20.925C2.63856 21.1183 2.84001 21.3009 3.0513 21.4745C3.26258 21.6473 3.48123 21.8102 3.70807 21.9617C3.93491 22.1132 4.16912 22.2541 4.40988 22.3827C4.65065 22.5112 4.89714 22.6283 5.14937 22.7332C5.4016 22.8372 5.65792 22.9297 5.91915 23.0091C6.18039 23.0886 6.4449 23.1549 6.71269 23.2081C6.98047 23.2622 7.2499 23.3023 7.52178 23.3293C7.79366 23.3564 8.06554 23.3695 8.33906 23.3703H20.2986C20.5 23.3695 20.6998 23.3498 20.8972 23.3105C21.0954 23.2712 21.287 23.2122 21.4729 23.1352C21.6596 23.0583 21.8365 22.9633 22.0044 22.8511C22.1714 22.7389 22.327 22.612 22.4695 22.4695C22.612 22.327 22.7389 22.1714 22.8511 22.0035C22.9633 21.8364 23.0583 21.6596 23.1353 21.4728C23.2131 21.2869 23.2712 21.0945 23.3106 20.8971C23.3499 20.699 23.3703 20.5 23.3703 20.2977V8.33822C23.3703 8.06552 23.3564 7.79364 23.3294 7.52176C23.3024 7.24988 23.2622 6.98046 23.2082 6.71267C23.155 6.44488 23.0886 6.18037 23.0092 5.91914C22.9298 5.6579 22.838 5.40158 22.7332 5.14936C22.6284 4.89713 22.5113 4.65063 22.3827 4.40987C22.2541 4.16911 22.1141 3.9349 21.9618 3.70806C21.8103 3.48122 21.6481 3.26257 21.4745 3.05129C21.3017 2.84001 21.1183 2.63855 20.925 2.44529C20.7318 2.25202 20.5303 2.06859 20.319 1.89579C20.1078 1.72218 19.8891 1.56004 19.6623 1.40854C19.4354 1.25622 19.2012 1.11618 18.9605 0.987615C18.7197 0.858226 18.4732 0.74194 18.221 0.637118C17.9687 0.532297 17.7124 0.440578 17.4512 0.361143C17.1899 0.281708 16.9254 0.215375 16.6576 0.162146C16.3899 0.108097 16.1204 0.0679703 15.8486 0.0409459C15.5767 0.0139217 15.3048 0 15.0313 0ZM20.7367 20.2977C20.7367 20.3558 20.726 20.4123 20.7031 20.4656C20.681 20.5196 20.6491 20.5671 20.6081 20.6081C20.5672 20.649 20.5197 20.681 20.4656 20.7031C20.4124 20.7252 20.3567 20.7366 20.2986 20.7366H8.33906C8.15235 20.7366 7.96563 20.7276 7.77974 20.7088C7.59384 20.69 7.40959 20.6629 7.22615 20.6261C7.04271 20.5892 6.86173 20.5442 6.68321 20.4893C6.50468 20.4353 6.32861 20.3722 6.15664 20.301C5.98385 20.2289 5.81515 20.1495 5.65055 20.061C5.48594 19.9734 5.32625 19.8768 5.17066 19.7736C5.01507 19.6696 4.8652 19.5582 4.72107 19.4395C4.57694 19.3215 4.43855 19.1963 4.3067 19.0636C4.17403 18.9317 4.04874 18.7933 3.93082 18.6492C3.81207 18.5051 3.7007 18.3552 3.5967 18.1996C3.49351 18.044 3.39688 17.8843 3.30926 17.7197C3.22081 17.5551 3.14138 17.3864 3.06931 17.2137C2.99807 17.0409 2.93501 16.8656 2.88014 16.6871C2.82609 16.5086 2.78105 16.3276 2.7442 16.1441C2.70735 15.9607 2.68032 15.7765 2.66149 15.5906C2.64265 15.4047 2.63365 15.2179 2.63365 15.0312V8.33822C2.63365 8.15151 2.64265 7.96561 2.66149 7.77972C2.68032 7.59382 2.70735 7.40957 2.7442 7.22613C2.78105 7.04269 2.82609 6.86171 2.88014 6.68319C2.93501 6.50466 2.99807 6.3286 3.06931 6.15662C3.14138 5.98383 3.22081 5.81514 3.30926 5.65053C3.39688 5.48593 3.49351 5.32542 3.5967 5.17065C3.7007 5.01505 3.81207 4.86519 3.93082 4.72106C4.04874 4.57693 4.17403 4.43853 4.3067 4.30587C4.43855 4.17402 4.57694 4.04873 4.72107 3.92999C4.8652 3.81206 5.01507 3.70069 5.17066 3.59669C5.32625 3.49268 5.48594 3.39687 5.65055 3.30925C5.81515 3.2208 5.98385 3.14055 6.15664 3.0693C6.32861 2.99806 6.50468 2.935 6.68321 2.88013C6.86173 2.82609 7.04271 2.78023 7.22615 2.74419C7.40959 2.70734 7.59384 2.6795 7.77974 2.66148C7.96563 2.64265 8.15235 2.63364 8.33906 2.63364H15.0313C15.2188 2.63364 15.4047 2.64265 15.5906 2.66148C15.7765 2.6795 15.9607 2.70734 16.1442 2.74419C16.3276 2.78023 16.5086 2.82609 16.6871 2.88013C16.8657 2.935 17.0417 2.99806 17.2137 3.0693C17.3865 3.14055 17.5552 3.2208 17.7198 3.30925C17.8844 3.39687 18.0449 3.49268 18.1997 3.59669C18.3553 3.70069 18.5051 3.81206 18.6493 3.92999C18.7934 4.04873 18.9318 4.17402 19.0636 4.30587C19.1963 4.43853 19.3216 4.57693 19.4403 4.72106C19.5583 4.86519 19.6696 5.01505 19.7736 5.17065C19.8776 5.32542 19.9735 5.48593 20.0611 5.65053C20.1495 5.81514 20.2298 5.98383 20.301 6.15662C20.3723 6.3286 20.4353 6.50466 20.4902 6.68319C20.5442 6.86171 20.5901 7.04269 20.6261 7.22613C20.663 7.40957 20.6908 7.59382 20.7088 7.77972C20.7277 7.96561 20.7367 8.15151 20.7367 8.33822V20.2977Z" fill="white"/>
</g>
<mask id="mask1_11576_63955" style="mask-type:luminance" maskUnits="userSpaceOnUse" x="26" y="0" width="24" height="24">
<path d="M26.5895 0H50V23.3752H26.5895V0Z" fill="white"/>
</mask>
<g mask="url(#mask1_11576_63955)">
<path d="M41.6936 0H35.0006C34.727 0 34.4552 0.0139217 34.1833 0.0409459C33.9114 0.0679703 33.642 0.108097 33.3742 0.162146C33.1064 0.215375 32.8419 0.281708 32.5807 0.361143C32.3194 0.440578 32.0631 0.532297 31.8109 0.637118C31.5586 0.74194 31.3121 0.858226 31.0714 0.987615C30.8306 1.11618 30.5972 1.25622 30.3696 1.40854C30.1427 1.56004 29.9241 1.72218 29.7128 1.89579C29.5023 2.06859 29.3001 2.25202 29.1068 2.44529C28.9135 2.63855 28.7309 2.84001 28.5573 3.05129C28.3845 3.26257 28.2215 3.48122 28.07 3.70806C27.9185 3.9349 27.7777 4.16911 27.6491 4.40987C27.5205 4.65063 27.4034 4.89713 27.2994 5.14936C27.1946 5.40158 27.1021 5.6579 27.0226 5.91914C26.9432 6.18037 26.8769 6.44488 26.8236 6.71267C26.7704 6.98046 26.7295 7.24988 26.7024 7.52176C26.6754 7.79364 26.6623 8.06552 26.6615 8.33822V20.2977C26.6623 20.5 26.682 20.699 26.7213 20.8971C26.7606 21.0945 26.8196 21.2869 26.8965 21.4728C26.9743 21.6596 27.0685 21.8364 27.1807 22.0035C27.2929 22.1714 27.4198 22.327 27.5623 22.4695C27.7056 22.612 27.8604 22.7389 28.0283 22.8511C28.1953 22.9633 28.3722 23.0583 28.5589 23.1352C28.7448 23.2122 28.9373 23.2712 29.1346 23.3105C29.3328 23.3498 29.5326 23.3695 29.7341 23.3703H41.6936C41.9663 23.3695 42.239 23.3564 42.5101 23.3293C42.7819 23.3023 43.0514 23.2622 43.3191 23.2081C43.5869 23.1549 43.8514 23.0886 44.1127 23.0091C44.3739 22.9297 44.6311 22.8372 44.8833 22.7332C45.1347 22.6283 45.3812 22.5112 45.622 22.3827C45.8627 22.2541 46.0969 22.1132 46.3238 21.9617C46.5506 21.8102 46.7701 21.6473 46.9805 21.4745C47.1918 21.3009 47.3941 21.1183 47.5865 20.925C47.7798 20.7317 47.9632 20.5303 48.136 20.319C48.3096 20.1077 48.4718 19.8891 48.6241 19.6622C48.7756 19.4354 48.9156 19.2012 49.0442 18.9604C49.1736 18.7196 49.2899 18.4731 49.3947 18.2209C49.4995 17.9687 49.5913 17.7124 49.6707 17.4511C49.7501 17.1899 49.8165 16.9254 49.8705 16.6576C49.9237 16.3898 49.9639 16.1204 49.9909 15.8485C50.0179 15.5766 50.0318 15.3048 50.0318 15.0312V8.33822C50.0318 8.06552 50.0179 7.79364 49.9909 7.52176C49.9639 7.24988 49.9237 6.98046 49.8705 6.71267C49.8165 6.44488 49.7501 6.18037 49.6707 5.91914C49.5913 5.6579 49.4995 5.40158 49.3947 5.14936C49.2899 4.89713 49.1736 4.65063 49.0442 4.40987C48.9156 4.16911 48.7756 3.9349 48.6241 3.70806C48.4718 3.48122 48.3096 3.26257 48.136 3.05129C47.9632 2.84001 47.7798 2.63855 47.5865 2.44529C47.3941 2.25202 47.1918 2.06859 46.9805 1.89579C46.7701 1.72218 46.5506 1.56004 46.3238 1.40854C46.0969 1.25622 45.8627 1.11618 45.622 0.987615C45.3812 0.858226 45.1347 0.74194 44.8833 0.637118C44.6311 0.532297 44.3739 0.440578 44.1127 0.361143C43.8514 0.281708 43.5869 0.215375 43.3191 0.162146C43.0514 0.108097 42.7819 0.0679703 42.5101 0.0409459C42.239 0.0139217 41.9663 0 41.6936 0ZM47.399 15.0312C47.3982 15.2179 47.3892 15.4047 47.3703 15.5906C47.3523 15.7765 47.3245 15.9607 47.2876 16.1441C47.2516 16.3276 47.2057 16.5086 47.1517 16.6871C47.0968 16.8656 47.0346 17.0409 46.9625 17.2137C46.8913 17.3864 46.811 17.5551 46.7234 17.7197C46.635 17.8843 46.5391 18.044 46.4351 18.1996C46.3311 18.3552 46.2198 18.5051 46.1018 18.6492C45.9831 18.7933 45.8578 18.9317 45.726 19.0636C45.5933 19.1963 45.4557 19.3215 45.3108 19.4395C45.1666 19.5582 45.0168 19.6696 44.8612 19.7736C44.7064 19.8768 44.5459 19.9734 44.3813 20.061C44.2167 20.1495 44.048 20.2289 43.876 20.301C43.7032 20.3722 43.5272 20.4353 43.3486 20.4893C43.1701 20.5442 42.9891 20.5892 42.8057 20.6261C42.6231 20.6629 42.438 20.69 42.2521 20.7088C42.0662 20.7276 41.8803 20.7366 41.6936 20.7366H29.7341C29.6759 20.7366 29.6194 20.7252 29.5662 20.7031C29.5122 20.681 29.4647 20.649 29.4237 20.6081C29.3828 20.5671 29.3508 20.5196 29.3287 20.4656C29.3066 20.4123 29.2951 20.3558 29.2951 20.2977V8.33822C29.2951 8.15151 29.305 7.96561 29.323 7.77972C29.3418 7.59382 29.3688 7.40957 29.4057 7.22613C29.4426 7.04269 29.4876 6.86171 29.5425 6.68319C29.5965 6.50466 29.6596 6.3286 29.7308 6.15662C29.8029 5.98383 29.8823 5.81514 29.9708 5.65053C30.0592 5.48593 30.155 5.32542 30.259 5.17065C30.3622 5.01505 30.4736 4.86519 30.5923 4.72106C30.7111 4.57693 30.8364 4.43853 30.9682 4.30587C31.1 4.17402 31.2384 4.04873 31.3826 3.92999C31.5275 3.81206 31.6774 3.70069 31.8322 3.59669C31.9878 3.49268 32.1474 3.39687 32.312 3.30925C32.4766 3.2208 32.6453 3.14055 32.8181 3.0693C32.9909 2.99806 33.1662 2.935 33.3447 2.88013C33.524 2.82609 33.705 2.78023 33.8876 2.74419C34.0711 2.70734 34.2553 2.6795 34.4412 2.66148C34.6271 2.64265 34.8138 2.63364 35.0006 2.63364H41.6936C41.8803 2.63364 42.0662 2.64265 42.2521 2.66148C42.438 2.6795 42.6231 2.70734 42.8057 2.74419C42.9891 2.78023 43.1701 2.82609 43.3486 2.88013C43.5272 2.935 43.7032 2.99806 43.876 3.0693C44.048 3.14055 44.2167 3.2208 44.3813 3.30925C44.5459 3.39687 44.7064 3.49268 44.8612 3.59669C45.0168 3.70069 45.1666 3.81206 45.3108 3.92999C45.4557 4.04873 45.5933 4.17402 45.726 4.30587C45.8578 4.43853 45.9831 4.57693 46.1018 4.72106C46.2198 4.86519 46.3311 5.01505 46.4351 5.17065C46.5391 5.32542 46.635 5.48593 46.7234 5.65053C46.811 5.81514 46.8913 5.98383 46.9625 6.15662C47.0346 6.3286 47.0968 6.50466 47.1517 6.68319C47.2057 6.86171 47.2516 7.04269 47.2876 7.22613C47.3245 7.40957 47.3523 7.59382 47.3703 7.77972C47.3892 7.96561 47.3982 8.15151 47.399 8.33822V15.0312Z" fill="white"/>
</g>
<mask id="mask2_11576_63955" style="mask-type:luminance" maskUnits="userSpaceOnUse" x="0" y="26" width="24" height="25">
<path d="M0 26.5205H23.4449V50.0005H0V26.5205Z" fill="white"/>
</mask>
<g mask="url(#mask2_11576_63955)">
<path d="M20.2986 26.6621H8.33906C8.06554 26.6629 7.79366 26.676 7.52178 26.7031C7.2499 26.7301 6.98047 26.7702 6.71269 26.8243C6.4449 26.8775 6.18039 26.9438 5.91915 27.0233C5.65792 27.1027 5.4016 27.1952 5.14937 27.2992C4.89714 27.404 4.65065 27.5212 4.40988 27.6497C4.16912 27.7783 3.93491 27.9191 3.70807 28.0706C3.48123 28.2221 3.26258 28.3851 3.0513 28.5579C2.84001 28.7315 2.63856 28.9141 2.44529 29.1074C2.25203 29.3007 2.06941 29.5021 1.8958 29.7134C1.72219 29.9247 1.56004 30.1433 1.40854 30.3702C1.25622 30.597 1.11619 30.8312 0.987617 31.072C0.859047 31.3127 0.741941 31.5592 0.63712 31.8115C0.533117 32.0637 0.440579 32.32 0.361144 32.5812C0.281708 32.8425 0.215376 33.107 0.162146 33.3748C0.108098 33.6426 0.0679705 33.912 0.040946 34.1839C0.0139217 34.4557 0.000818867 34.7276 0 35.0011V41.6933C0.000818867 41.9669 0.0139217 42.2387 0.040946 42.5106C0.0679705 42.7825 0.108098 43.0519 0.162146 43.3197C0.215376 43.5875 0.281708 43.852 0.361144 44.1132C0.440579 44.3745 0.533117 44.6308 0.63712 44.883C0.741941 45.1353 0.859047 45.3818 0.987617 45.6225C1.11619 45.8633 1.25622 46.0975 1.40854 46.3243C1.56004 46.5512 1.72219 46.7698 1.8958 46.9811C2.06941 47.1924 2.25203 47.3938 2.44529 47.5871C2.63856 47.7804 2.84001 47.9638 3.0513 48.1366C3.26258 48.3102 3.48123 48.4723 3.70807 48.6238C3.93491 48.7762 4.16912 48.9162 4.40988 49.0448C4.65065 49.1742 4.89714 49.2904 5.14937 49.3953C5.4016 49.5001 5.65792 49.5918 5.91915 49.6712C6.18039 49.7507 6.4449 49.817 6.71269 49.8702C6.98047 49.9243 7.2499 49.9644 7.52178 49.9914C7.79366 50.0185 8.06554 50.0324 8.33906 50.0324H15.0313C15.3048 50.0324 15.5767 50.0185 15.8486 49.9914C16.1204 49.9644 16.3899 49.9243 16.6576 49.8702C16.9254 49.817 17.1899 49.7507 17.4512 49.6712C17.7124 49.5918 17.9687 49.5001 18.221 49.3953C18.4732 49.2904 18.7197 49.1742 18.9605 49.0448C19.2012 48.9162 19.4354 48.7762 19.6623 48.6238C19.8891 48.4723 20.1078 48.3102 20.319 48.1366C20.5303 47.9638 20.7318 47.7804 20.925 47.5871C21.1183 47.3938 21.3017 47.1924 21.4745 46.9811C21.6481 46.7698 21.8103 46.5512 21.9618 46.3243C22.1141 46.0975 22.2541 45.8633 22.3827 45.6225C22.5113 45.3818 22.6284 45.1353 22.7332 44.883C22.838 44.6308 22.9298 44.3745 23.0092 44.1132C23.0886 43.852 23.155 43.5875 23.2082 43.3197C23.2622 43.0519 23.3024 42.7825 23.3294 42.5106C23.3564 42.2387 23.3703 41.9669 23.3703 41.6933V29.7347C23.3703 29.5324 23.3499 29.3334 23.3106 29.1352C23.2712 28.9379 23.2131 28.7454 23.1353 28.5595C23.0583 28.3728 22.9633 28.1959 22.8511 28.0289C22.7389 27.861 22.612 27.7054 22.4695 27.5629C22.327 27.4204 22.1714 27.2935 22.0044 27.1813C21.8365 27.0691 21.6596 26.9741 21.4729 26.8971C21.287 26.8202 21.0954 26.7612 20.8972 26.7219C20.6998 26.6826 20.5 26.6621 20.2986 26.6621ZM20.7367 41.6933C20.7367 41.8809 20.7277 42.0668 20.7088 42.2527C20.6908 42.4386 20.663 42.6228 20.6261 42.8063C20.5901 42.9897 20.5442 43.1707 20.4902 43.3492C20.4353 43.5277 20.3723 43.7038 20.301 43.8758C20.2298 44.0486 20.1495 44.2173 20.0611 44.3819C19.9735 44.5465 19.8776 44.707 19.7736 44.8617C19.6696 45.0173 19.5583 45.1672 19.4403 45.3113C19.3216 45.4555 19.1963 45.5939 19.0636 45.7265C18.9318 45.8584 18.7934 45.9837 18.6493 46.1024C18.5051 46.2203 18.3553 46.3317 18.1997 46.4357C18.0449 46.5397 17.8844 46.6355 17.7198 46.7231C17.5552 46.8116 17.3865 46.8918 17.2137 46.9631C17.0417 47.0343 16.8657 47.0974 16.6871 47.1523C16.5086 47.2063 16.3276 47.2522 16.1442 47.2882C15.9607 47.325 15.7765 47.3529 15.5906 47.3709C15.4047 47.3897 15.2188 47.3987 15.0313 47.3987H8.33906C8.15235 47.3987 7.96563 47.3897 7.77974 47.3709C7.59384 47.3529 7.40959 47.325 7.22615 47.2882C7.04271 47.2522 6.86173 47.2063 6.68321 47.1523C6.50468 47.0974 6.32861 47.0343 6.15664 46.9631C5.98385 46.8918 5.81515 46.8116 5.65055 46.7231C5.48594 46.6355 5.32625 46.5397 5.17066 46.4357C5.01507 46.3317 4.8652 46.2203 4.72107 46.1024C4.57694 45.9837 4.43855 45.8584 4.3067 45.7265C4.17403 45.5939 4.04874 45.4555 3.93082 45.3113C3.81207 45.1672 3.7007 45.0173 3.5967 44.8617C3.49351 44.707 3.39688 44.5465 3.30926 44.3819C3.22081 44.2173 3.14138 44.0486 3.06931 43.8758C2.99807 43.7038 2.93501 43.5277 2.88014 43.3492C2.82609 43.1707 2.78105 42.9897 2.7442 42.8063C2.70735 42.6228 2.68032 42.4386 2.66149 42.2527C2.64265 42.0668 2.63365 41.8809 2.63365 41.6933V35.0011C2.63365 34.8144 2.64265 34.6277 2.66149 34.4418C2.68032 34.2559 2.70735 34.0717 2.7442 33.8882C2.78105 33.7048 2.82609 33.5238 2.88014 33.3453C2.93501 33.1668 2.99807 32.9907 3.06931 32.8187C3.14138 32.6459 3.22081 32.4772 3.30926 32.3126C3.39688 32.148 3.49351 31.9884 3.5967 31.8328C3.7007 31.6772 3.81207 31.5273 3.93082 31.3832C4.04874 31.239 4.17403 31.1006 4.3067 30.9688C4.43855 30.8361 4.57694 30.7108 4.72107 30.5929C4.8652 30.4742 5.01507 30.3628 5.17066 30.2588C5.32625 30.1556 5.48594 30.059 5.65055 29.9714C5.81515 29.8829 5.98385 29.8035 6.15664 29.7314C6.32861 29.6602 6.50468 29.5971 6.68321 29.5431C6.86173 29.4882 7.04271 29.4432 7.22615 29.4063C7.40959 29.3695 7.59384 29.3424 7.77974 29.3236C7.96563 29.3048 8.15235 29.2957 8.33906 29.2957H20.2986C20.3567 29.2957 20.4124 29.3072 20.4656 29.3293C20.5197 29.3514 20.5672 29.3834 20.6081 29.4243C20.6491 29.4653 20.681 29.5128 20.7031 29.5668C20.726 29.62 20.7367 29.6765 20.7367 29.7347V41.6933Z" fill="white"/>
</g>
<mask id="mask3_11576_63955" style="mask-type:luminance" maskUnits="userSpaceOnUse" x="26" y="26" width="24" height="25">
<path d="M26.5896 26.5205H50.0001V50.0005H26.5896V26.5205Z" fill="white"/>
</mask>
<g mask="url(#mask3_11576_63955)">
<path d="M41.6937 26.6621H29.7342C29.5328 26.6621 29.3329 26.6826 29.1348 26.7219C28.9374 26.7612 28.745 26.8202 28.5591 26.8971C28.3723 26.9741 28.1955 27.0691 28.0284 27.1813C27.8605 27.2935 27.7057 27.4204 27.5624 27.5629C27.4199 27.7054 27.293 27.861 27.1808 28.0289C27.0686 28.1959 26.9744 28.3728 26.8967 28.5595C26.8197 28.7454 26.7607 28.9379 26.7214 29.1352C26.6821 29.3334 26.6624 29.5324 26.6616 29.7347V41.6933C26.6624 41.9669 26.6755 42.2387 26.7026 42.5106C26.7296 42.7825 26.7705 43.0519 26.8238 43.3197C26.877 43.5875 26.9433 43.852 27.0228 44.1132C27.1022 44.3745 27.1947 44.6308 27.2996 44.883C27.4036 45.1353 27.5207 45.3818 27.6492 45.6225C27.7778 45.8633 27.9187 46.0975 28.0702 46.3243C28.2217 46.5512 28.3846 46.7698 28.5574 46.9811C28.731 47.1924 28.9137 47.3938 29.1069 47.5871C29.3002 47.7804 29.5025 47.9638 29.7129 48.1366C29.9242 48.3102 30.1428 48.4723 30.3697 48.6238C30.5974 48.7762 30.8307 48.9162 31.0715 49.0448C31.3123 49.1742 31.5588 49.2904 31.811 49.3953C32.0632 49.5001 32.3195 49.5918 32.5808 49.6712C32.842 49.7507 33.1065 49.817 33.3743 49.8702C33.6421 49.9243 33.9115 49.9644 34.1834 49.9914C34.4553 50.0185 34.7272 50.0324 35.0007 50.0324H41.6937C41.9664 50.0324 42.2391 50.0185 42.5102 49.9914C42.7821 49.9644 43.0515 49.9243 43.3193 49.8702C43.5871 49.817 43.8516 49.7507 44.1128 49.6712C44.374 49.5918 44.6312 49.5001 44.8834 49.3953C45.1348 49.2904 45.3813 49.1742 45.6221 49.0448C45.8628 48.9162 46.097 48.7762 46.3239 48.6238C46.5507 48.4723 46.7702 48.3102 46.9807 48.1366C47.1919 47.9638 47.3942 47.7804 47.5867 47.5871C47.7799 47.3938 47.9634 47.1924 48.1362 46.9811C48.3098 46.7698 48.4719 46.5512 48.6242 46.3243C48.7757 46.0975 48.9158 45.8633 49.0443 45.6225C49.1737 45.3818 49.29 45.1353 49.3948 44.883C49.4997 44.6308 49.5914 44.3745 49.6708 44.1132C49.7502 43.852 49.8166 43.5875 49.8706 43.3197C49.9239 43.0519 49.964 42.7825 49.991 42.5106C50.018 42.2387 50.032 41.9669 50.032 41.6933V35.0011C50.032 34.7276 50.018 34.4557 49.991 34.1839C49.964 33.912 49.9239 33.6426 49.8706 33.3748C49.8166 33.107 49.7502 32.8425 49.6708 32.5812C49.5914 32.32 49.4997 32.0637 49.3948 31.8115C49.29 31.5592 49.1737 31.3127 49.0443 31.072C48.9158 30.8312 48.7757 30.597 48.6242 30.3702C48.4719 30.1433 48.3098 29.9247 48.1362 29.7134C47.9634 29.5021 47.7799 29.3007 47.5867 29.1074C47.3942 28.9141 47.1919 28.7315 46.9807 28.5579C46.7702 28.3851 46.5507 28.2221 46.3239 28.0706C46.097 27.9191 45.8628 27.7783 45.6221 27.6497C45.3813 27.5212 45.1348 27.404 44.8834 27.2992C44.6312 27.1952 44.374 27.1027 44.1128 27.0233C43.8516 26.9438 43.5871 26.8775 43.3193 26.8243C43.0515 26.7702 42.7821 26.7301 42.5102 26.7031C42.2391 26.676 41.9664 26.6629 41.6937 26.6621ZM47.3991 41.6933C47.3983 41.8809 47.3893 42.0668 47.3705 42.2527C47.3524 42.4386 47.3246 42.6228 47.2878 42.8063C47.2517 42.9897 47.2059 43.1707 47.1518 43.3492C47.0969 43.5277 47.0347 43.7038 46.9626 43.8758C46.8914 44.0486 46.8111 44.2173 46.7235 44.3819C46.6351 44.5465 46.5393 44.707 46.4353 44.8617C46.3313 45.0173 46.2199 45.1672 46.102 45.3113C45.9832 45.4555 45.8579 45.5939 45.7261 45.7265C45.5934 45.8584 45.4558 45.9837 45.3109 46.1024C45.1668 46.2203 45.0169 46.3317 44.8613 46.4357C44.7065 46.5397 44.546 46.6355 44.3814 46.7231C44.2168 46.8116 44.0481 46.8918 43.8761 46.9631C43.7033 47.0343 43.5273 47.0974 43.3488 47.1523C43.1702 47.2063 42.9892 47.2522 42.8058 47.2882C42.6232 47.325 42.4381 47.3529 42.2522 47.3709C42.0663 47.3897 41.8804 47.3987 41.6937 47.3987H35.0007C34.814 47.3987 34.6273 47.3897 34.4414 47.3709C34.2555 47.3529 34.0712 47.325 33.8878 47.2882C33.7052 47.2522 33.5242 47.2063 33.3448 47.1523C33.1663 47.0974 32.9911 47.0343 32.8183 46.9631C32.6455 46.8918 32.4768 46.8116 32.3122 46.7231C32.1476 46.6355 31.9879 46.5397 31.8323 46.4357C31.6767 46.3317 31.5276 46.2203 31.3827 46.1024C31.2386 45.9837 31.1002 45.8584 30.9683 45.7265C30.8365 45.5939 30.7112 45.4555 30.5924 45.3113C30.4737 45.1672 30.3623 45.0173 30.2591 44.8617C30.1551 44.707 30.0593 44.5465 29.9709 44.3819C29.8824 44.2173 29.803 44.0486 29.7309 43.8758C29.6597 43.7038 29.5966 43.5277 29.5426 43.3492C29.4877 43.1707 29.4427 42.9897 29.4058 42.8063C29.369 42.6228 29.3419 42.4386 29.3231 42.2527C29.3051 42.0668 29.2953 41.8809 29.2953 41.6933V29.7347C29.2953 29.6765 29.3067 29.62 29.3288 29.5668C29.351 29.5128 29.3829 29.4653 29.4238 29.4243C29.4648 29.3834 29.5123 29.3514 29.5663 29.3293C29.6196 29.3072 29.6761 29.2957 29.7342 29.2957H41.6937C41.8804 29.2957 42.0663 29.3048 42.2522 29.3236C42.4381 29.3424 42.6232 29.3695 42.8058 29.4063C42.9892 29.4432 43.1702 29.4882 43.3488 29.5431C43.5273 29.5971 43.7033 29.6602 43.8761 29.7314C44.0481 29.8035 44.2168 29.8829 44.3814 29.9714C44.546 30.059 44.7065 30.1556 44.8613 30.2588C45.0169 30.3628 45.1668 30.4742 45.3109 30.5929C45.4558 30.7108 45.5934 30.8361 45.7261 30.9688C45.8579 31.1006 45.9832 31.239 46.102 31.3832C46.2199 31.5273 46.3313 31.6772 46.4353 31.8328C46.5393 31.9884 46.6351 32.148 46.7235 32.3126C46.8111 32.4772 46.8914 32.6459 46.9626 32.8187C47.0347 32.9907 47.0969 33.1668 47.1518 33.3453C47.2059 33.5238 47.2517 33.7048 47.2878 33.8882C47.3246 34.0717 47.3524 34.2559 47.3705 34.4418C47.3893 34.6277 47.3983 34.8144 47.3991 35.0011V41.6933Z" fill="white"/>
</g>
<path d="M8.55652 17.2432V6.76758H10.6267V11.0456H10.856L14.3512 6.76758H16.4738V6.94774L12.6184 11.7106L16.8735 17.063V17.2432H14.5314L10.856 12.7227H10.6267V17.2432H8.55652Z" fill="white"/>
<path d="M16.0913 32.6055V34.3449H13.0678V43.0811H11.0042V34.3449H7.98071V32.6055H16.0913Z" fill="white"/>
<path d="M39.3937 17.2432H37.3235V6.76758H39.3937V17.2432Z" fill="white"/>
<path d="M43.5717 43.0811H41.3934L40.604 40.6669H36.5913L35.8051 43.0811H33.6759L37.2955 32.6055H39.9521L43.5717 43.0811ZM38.4977 34.7903L37.1514 38.9242H40.0307L38.6779 34.7903H38.4977Z" fill="white"/>
<path d="M88.5481 22.8594V22.8374C88.5481 22.8374 88.5579 22.8447 88.5774 22.8594H88.5481ZM79.0559 21.3799H79.7664C79.825 21.7461 79.8542 22.1636 79.8542 22.6323C79.8542 23.1011 79.8347 23.6504 79.7957 24.2803C79.7566 24.9102 79.7346 25.3081 79.7297 25.4741L82.7693 21.6362L83.2454 21.0796C84.9446 21.6899 86.7122 22.2808 88.5481 22.8521V22.9033C87.9622 23.5283 87.2517 24.2583 86.4167 25.0933C85.5818 25.9282 85.03 26.4824 84.7615 26.7559L89.5662 30.5205L85.5012 32.1978L84.7249 32.5933L83.4578 31.5532C82.823 31.021 82.1003 30.3887 81.2898 29.6562C80.4841 28.9238 79.9373 28.4062 79.6492 28.1035L79.532 31.4434V31.9561C76.9929 32.0342 75.1936 32.0732 74.134 32.0732C74.1047 31.6533 74.0901 31.3188 74.0901 31.0698C74.0901 31.0698 74.1389 29.4536 74.2366 26.2212C74.3391 24.0288 74.3904 22.7568 74.3904 22.4053C74.3904 22.0537 74.405 21.7656 74.4343 21.541C74.6541 21.5117 75.3303 21.4775 76.4631 21.4385C77.5959 21.3994 78.4602 21.3799 79.0559 21.3799ZM95.4204 21.4019L96.6948 21.3872C96.7143 21.5093 96.7241 21.6387 96.7241 21.7754L96.6875 22.7568L96.4897 31.9268L95.0908 31.9634C95.0908 31.9634 93.8139 31.9756 91.2602 32C91.2456 31.8584 91.2382 31.6777 91.2382 31.458C91.2382 31.458 91.3212 28.1377 91.4873 21.4971C92.5664 21.4336 93.8774 21.4019 95.4204 21.4019ZM107.178 31.9707C107.178 31.9707 105.508 32.0171 102.168 32.1099L102.322 27.1001C102.361 25.8892 102.398 24.9565 102.432 24.3022H98.4328C98.4425 24.0972 98.4792 23.6602 98.5426 22.9912C98.6061 22.3223 98.6647 21.8169 98.7184 21.4751C103.245 21.4165 106.389 21.3872 108.152 21.3872C109.92 21.3872 111.128 21.3945 111.778 21.4092C111.626 22.708 111.453 23.6724 111.257 24.3022H107.442L107.398 25.8843C107.246 29.4341 107.171 31.3359 107.171 31.5898C107.171 31.8389 107.173 31.9658 107.178 31.9707ZM120.195 28.0449C119.663 26.3311 119.314 25.1567 119.148 24.522C118.874 25.3813 118.603 26.1577 118.335 26.8511C118.066 27.5444 117.912 27.9424 117.873 28.0449H120.195ZM116.775 30.7329L116.225 32.1099C115.976 32.144 115.73 32.1611 115.486 32.1611C115.242 32.1611 113.992 32.1074 111.736 32C112.297 30.8232 113.86 27.332 116.423 21.5264C116.731 21.5166 117.417 21.4897 118.481 21.4458C119.551 21.397 120.481 21.3726 121.272 21.3726C122.063 21.3726 122.607 21.4214 122.905 21.519C122.934 21.6167 124.216 24.6099 126.75 30.4985L127.366 31.9341C124.26 32.1245 122.676 32.2197 122.612 32.2197C122.554 32.2197 122.239 32.2051 121.667 32.1758C121.448 31.7803 121.26 31.3188 121.103 30.7915C120.791 30.7524 119.348 30.7329 116.775 30.7329ZM140.165 28.77L137.485 28.7261L137.331 31.9341C135.158 32.022 133.791 32.0659 133.229 32.0659C132.668 32.0659 132.35 32.0562 132.277 32.0366C132.292 31.8608 132.304 31.5996 132.314 31.2529L132.336 30.0225C132.36 29.3389 132.429 26.4873 132.541 21.4678C135.085 21.3213 137.687 21.248 140.348 21.248C142.199 21.248 143.622 21.5068 144.618 22.0244C145.908 22.6982 146.55 23.731 146.545 25.1226C146.545 27.5542 144.418 28.77 140.165 28.77ZM141.315 25.0713C141.315 24.6172 141.157 24.3438 140.839 24.251C140.527 24.1582 140.095 24.1118 139.543 24.1118C138.996 24.1118 138.373 24.1484 137.675 24.2217C137.607 24.9883 137.573 25.6548 137.573 26.2212C137.651 26.2505 138.163 26.2651 139.111 26.2651C140.58 26.2651 141.315 25.8672 141.315 25.0713ZM160.141 32.0439H149.835C149.02 32.0439 148.4 32.0293 147.975 32L148.004 30.2202L148.063 27.8252C148.073 27.6885 148.114 26.7437 148.188 24.9907C148.266 23.2329 148.324 22.0659 148.363 21.4897C149.101 21.4067 150.014 21.3652 151.103 21.3652C152.196 21.3652 153.1 21.3701 153.812 21.3799L153.644 25.042C153.634 25.5254 153.573 26.9658 153.461 29.3633L159.108 29.2314C159.674 29.2314 160.136 29.2583 160.492 29.312C160.492 29.6245 160.453 30.0322 160.375 30.5352L160.141 32.0439ZM169.496 28.0449C168.964 26.3311 168.614 25.1567 168.448 24.522C168.175 25.3813 167.904 26.1577 167.635 26.8511C167.367 27.5444 167.213 27.9424 167.174 28.0449H169.496ZM166.075 30.7329L165.526 32.1099C165.277 32.144 165.03 32.1611 164.786 32.1611C164.542 32.1611 163.292 32.1074 161.036 32C161.598 30.8232 163.16 27.332 165.724 21.5264C166.031 21.5166 166.717 21.4897 167.782 21.4458C168.851 21.397 169.781 21.3726 170.572 21.3726C171.363 21.3726 171.908 21.4214 172.206 21.519C172.235 21.6167 173.517 24.6099 176.051 30.4985L176.666 31.9341C173.561 32.1245 171.976 32.2197 171.913 32.2197C171.854 32.2197 171.539 32.2051 170.968 32.1758C170.748 31.7803 170.56 31.3188 170.404 30.7915C170.092 30.7524 168.649 30.7329 166.075 30.7329ZM185.838 31.9707C185.838 31.9707 184.168 32.0171 180.829 32.1099L180.982 27.1001C181.021 25.8892 181.058 24.9565 181.092 24.3022H177.093C177.103 24.0972 177.14 23.6602 177.203 22.9912C177.267 22.3223 177.325 21.8169 177.379 21.4751C181.905 21.4165 185.05 21.3872 186.812 21.3872C188.58 21.3872 189.788 21.3945 190.438 21.4092C190.287 22.708 190.113 23.6724 189.918 24.3022H186.102L186.058 25.8843C185.907 29.4341 185.831 31.3359 185.831 31.5898C185.831 31.8389 185.833 31.9658 185.838 31.9707ZM197.039 32C197.039 32 195.259 32.0146 191.7 32.0439C191.705 31.7803 191.719 31.3677 191.744 30.8062C191.773 30.2446 191.79 29.8516 191.795 29.627L191.942 21.4604H199.031L203.704 21.3872C204.129 21.3872 204.459 21.4165 204.693 21.4751C204.693 21.6021 204.669 21.8218 204.62 22.1343C204.576 22.4419 204.547 22.6689 204.532 22.8154L204.393 24.0605C204.017 24.1143 203.638 24.146 203.257 24.1558C203.257 24.1558 201.29 24.1802 197.354 24.229C197.325 24.561 197.3 25.1152 197.281 25.8916C199.708 25.8672 201.089 25.855 201.426 25.855C201.768 25.855 202.081 25.8843 202.364 25.9429C202.364 26.2896 202.254 27.0171 202.034 28.1255C201.365 28.1938 200.633 28.2305 199.837 28.2354L197.178 28.25L197.039 32ZM213.396 29.356C214.256 29.356 214.912 29.124 215.367 28.6602C215.826 28.1963 216.055 27.5103 216.055 26.6021C216.055 25.689 215.823 25.0591 215.359 24.7124C214.895 24.3657 214.256 24.1924 213.44 24.1924C212.625 24.1924 211.978 24.4194 211.499 24.8735C211.026 25.3228 210.789 25.9771 210.789 26.8364C210.789 28.5161 211.658 29.356 213.396 29.356ZM204.922 26.9536C204.922 25.0884 205.677 23.6553 207.185 22.6543C208.699 21.6533 210.794 21.1528 213.47 21.1528C216.145 21.1528 218.213 21.6167 219.673 22.5444C221.133 23.4722 221.863 24.7856 221.863 26.4849C221.863 28.3257 221.089 29.7612 219.541 30.7915C217.993 31.8169 215.879 32.3296 213.199 32.3296C210.518 32.3296 208.467 31.8535 207.046 30.9014C205.63 29.9443 204.922 28.6284 204.922 26.9536ZM233.203 25.0127C233.203 24.4463 232.612 24.1631 231.431 24.1631C231.05 24.1631 230.488 24.1777 229.746 24.207L229.622 26.2725C229.827 26.248 230.154 26.2163 230.603 26.1772C231.057 26.1382 231.472 26.0918 231.848 26.0381C232.224 25.9795 232.544 25.8745 232.808 25.7231C233.071 25.5669 233.203 25.3301 233.203 25.0127ZM233.452 32.6299C233.272 32.293 232.913 31.5728 232.376 30.4692C231.843 29.3657 231.487 28.5991 231.306 28.1694L229.512 28.2939L229.365 31.9341C229.365 31.9731 229.348 31.9951 229.314 32C227.83 32.0244 226.721 32.0488 225.989 32.0732L224.275 32.1318C224.275 31.4189 224.324 29.7979 224.421 27.2686L224.465 26.0601L224.685 21.4897C224.69 21.4946 224.719 21.4922 224.773 21.4824C225.613 21.3652 227.131 21.3066 229.329 21.3066C231.526 21.3066 232.908 21.3115 233.474 21.3213C234.045 21.3408 234.607 21.3945 235.159 21.4824C237.327 21.8291 238.411 22.7642 238.411 24.2876C238.411 25.1421 238.149 25.8159 237.627 26.3091C237.109 26.7974 236.499 27.1587 235.796 27.3931C236.108 27.7495 236.707 28.5332 237.59 29.7441C238.479 30.9502 239.006 31.6558 239.172 31.8608L233.452 32.6299ZM258.298 31.978L253.742 32.0659C253.557 30.2056 253.445 28.9189 253.406 28.2061L253.34 27.0488L250.307 31.8462C249.057 31.8462 248.342 31.8413 248.161 31.8315C247.185 29.8979 246.46 28.4038 245.986 27.3491L245.451 32.0293C244.958 32.0439 244.245 32.0513 243.313 32.0513C242.385 32.0513 241.455 32.0244 240.522 31.9707L240.617 30.7329C240.696 29.9272 240.874 26.8413 241.152 21.4751H241.189C243.342 21.4751 245.168 21.4507 246.667 21.4019L246.931 21.9658L249.289 26.2944L252.175 21.3506L257.544 21.3359C257.578 21.8535 257.732 23.9922 258.005 27.752L258.247 31.0771L258.298 31.978Z" fill="white"/>
</svg>
