<svg width="25" height="24" viewBox="0 0 25 24" fill="none" xmlns="http://www.w3.org/2000/svg">
<path d="M13.6666 14.5C13.3241 14.7345 12.9147 14.8515 12.5 14.8333C12.0852 14.8515 11.6758 14.7345 11.3333 14.5L2.49998 9.74999V18.1666C2.49998 18.8297 2.76338 19.4656 3.23222 19.9344C3.70106 20.4033 4.33694 20.6666 4.99998 20.6666H20C20.663 20.6666 21.2989 20.4033 21.7677 19.9344C22.2366 19.4656 22.5 18.8297 22.5 18.1666V9.74999L13.6666 14.5Z" fill="#00204D" fill-opacity="0.7" style="mix-blend-mode:multiply"/>
<path d="M20 4H4.99999C4.33695 4 3.70107 4.26339 3.23223 4.73223C2.76339 5.20107 2.5 5.83696 2.5 6.5V7.33333C2.4992 7.4836 2.53712 7.63154 2.6101 7.7629C2.68308 7.89426 2.78865 8.00462 2.91666 8.08333L12.0833 13.0833C12.2113 13.1507 12.356 13.1796 12.5 13.1667C12.644 13.1796 12.7887 13.1507 12.9167 13.0833L22.0833 8.08333C22.2113 8.00462 22.3169 7.89426 22.3899 7.7629C22.4629 7.63154 22.5008 7.4836 22.5 7.33333V6.5C22.5 5.83696 22.2366 5.20107 21.7677 4.73223C21.2989 4.26339 20.663 4 20 4Z" fill="#00204D" fill-opacity="0.7" style="mix-blend-mode:multiply"/>
</svg>
