<svg width="20" height="17" viewBox="0 0 20 17" fill="none" xmlns="http://www.w3.org/2000/svg">
<path fill-rule="evenodd" clip-rule="evenodd" d="M2.5 0C1.11929 0 0 1.11929 0 2.5V14.1667C0 15.5474 1.11929 16.6667 2.5 16.6667H17.5C18.8807 16.6667 20 15.5474 20 14.1667V2.5C20 1.11929 18.8807 0 17.5 0H2.5ZM10.0001 10.2929L1.66667 2.71697V14.1667C1.66667 14.6269 2.03976 15 2.5 15H17.5C17.9602 15 18.3333 14.6269 18.3333 14.1667V2.71717L10.0001 10.2929ZM10.0001 8.04048L17.0112 1.66667H2.98901L10.0001 8.04048Z" fill="#00204D" fill-opacity="0.9" style="mix-blend-mode:multiply"/>
</svg>
