<svg width="20" height="20" viewBox="0 0 20 20" fill="none" xmlns="http://www.w3.org/2000/svg">
<path fill-rule="evenodd" clip-rule="evenodd" d="M13.5347 1.66602H6.46592C5.79511 1.66601 5.24147 1.666 4.79048 1.70284C4.32206 1.74112 3.89148 1.82325 3.48703 2.02933C2.85982 2.34891 2.34989 2.85884 2.03031 3.48605C1.82424 3.8905 1.7421 4.32108 1.70383 4.7895C1.66698 5.24049 1.66699 5.79413 1.667 6.46494L1.667 16.9751C1.66696 17.1712 1.66692 17.371 1.68179 17.5348C1.69602 17.6914 1.73369 17.987 1.94007 18.2456C2.17756 18.5431 2.53767 18.7162 2.91835 18.7158C3.24917 18.7154 3.50353 18.5601 3.63473 18.4734C3.77189 18.3827 3.92791 18.2579 4.08097 18.1354L6.09192 16.5266C6.52408 16.1809 6.65238 16.0833 6.7857 16.0152C6.91943 15.9468 7.06178 15.8969 7.20888 15.8667C7.35554 15.8366 7.5167 15.8327 8.07012 15.8327H13.5348C14.2056 15.8327 14.7592 15.8327 15.2102 15.7959C15.6786 15.7576 16.1092 15.6754 16.5136 15.4694C17.1408 15.1498 17.6508 14.6399 17.9704 14.0127C18.1764 13.6082 18.2586 13.1776 18.2968 12.7092C18.3337 12.2582 18.3337 11.7046 18.3337 11.0338V6.46491C18.3337 5.79411 18.3337 5.24049 18.2968 4.7895C18.2586 4.32108 18.1764 3.8905 17.9704 3.48605C17.6508 2.85884 17.1408 2.34891 16.5136 2.02933C16.1092 1.82325 15.6786 1.74112 15.2102 1.70284C14.7592 1.666 14.2056 1.66601 13.5347 1.66602ZM5.83366 6.24935C5.37342 6.24935 5.00033 6.62245 5.00033 7.08268C5.00033 7.54292 5.37342 7.91602 5.83366 7.91602H10.0003C10.4606 7.91602 10.8337 7.54292 10.8337 7.08268C10.8337 6.62245 10.4606 6.24935 10.0003 6.24935H5.83366ZM5.83366 9.16602C5.37342 9.16602 5.00033 9.53911 5.00033 9.99935C5.00033 10.4596 5.37342 10.8327 5.83366 10.8327H12.5003C12.9606 10.8327 13.3337 10.4596 13.3337 9.99935C13.3337 9.53911 12.9606 9.16602 12.5003 9.16602H5.83366Z" fill="#F59E0B" style="mix-blend-mode:multiply"/>
</svg>
