<svg width="23" height="22" viewBox="0 0 23 22" fill="none" xmlns="http://www.w3.org/2000/svg">
<path d="M11.2497 1.83301C9.43668 1.83301 7.6644 2.37062 6.15695 3.37787C4.6495 4.38512 3.47459 5.81675 2.78078 7.49174C2.08698 9.16673 1.90545 11.0098 2.25915 12.788C2.61284 14.5662 3.48588 16.1995 4.76787 17.4815C6.04985 18.7635 7.68319 19.6365 9.46135 19.9902C11.2395 20.3439 13.0826 20.1624 14.7576 19.4686C16.4326 18.7748 17.8642 17.5998 18.8715 16.0924C19.8787 14.5849 20.4163 12.8127 20.4163 10.9997C20.4093 8.57069 19.4413 6.24321 17.7237 4.52565C16.0061 2.8081 13.6787 1.84006 11.2497 1.83301V1.83301ZM15.833 11.7636H12.0136V15.583H10.4858V11.7636H6.66634V10.2358H10.4858V6.41634H12.0136V10.2358H15.833V11.7636Z" fill="#6F2CED"/>
</svg>
