<svg width="23" height="22" viewBox="0 0 23 22" fill="none" xmlns="http://www.w3.org/2000/svg">
<path d="M11.2502 6.41634C11.672 6.41634 12.0141 6.75835 12.0141 7.18023V10.2358H15.0696C15.4915 10.2358 15.8335 10.5778 15.8335 10.9997C15.8335 11.4216 15.4915 11.7636 15.0696 11.7636H12.0141V14.8191C12.0141 15.241 11.672 15.583 11.2502 15.583C10.8283 15.583 10.4863 15.241 10.4863 14.8191V11.7636H7.43072C7.00883 11.7636 6.66683 11.4216 6.66683 10.9997C6.66683 10.5778 7.00883 10.2358 7.43072 10.2358H10.4863V7.18023C10.4863 6.75835 10.8283 6.41634 11.2502 6.41634Z" fill="#00204D" fill-opacity="0.7" style="mix-blend-mode:multiply"/>
<path fill-rule="evenodd" clip-rule="evenodd" d="M11.2502 1.83301C6.18755 1.83301 2.0835 5.93706 2.0835 10.9997C2.0835 16.0623 6.18755 20.1663 11.2502 20.1663C16.3128 20.1663 20.4168 16.0623 20.4168 10.9997C20.4168 5.93706 16.3128 1.83301 11.2502 1.83301ZM3.61127 10.9997C3.61127 6.78083 7.03132 3.36079 11.2502 3.36079C15.469 3.36079 18.889 6.78083 18.889 10.9997C18.889 15.2185 15.469 18.6386 11.2502 18.6386C7.03132 18.6386 3.61127 15.2185 3.61127 10.9997Z" fill="#00204D" fill-opacity="0.7" style="mix-blend-mode:multiply"/>
</svg>
