<svg width="24" height="24" viewBox="0 0 24 24" fill="none" xmlns="http://www.w3.org/2000/svg">
<g clip-path="url(#clip0_7245_10399)">
<path d="M16.999 7C16.999 9.76142 14.7604 12 11.999 12C9.2376 12 6.99902 9.76142 6.99902 7C6.99902 4.23858 9.2376 2 11.999 2C14.7604 2 16.999 4.23858 16.999 7Z" fill="#DB2777"/>
<path d="M3.66602 19.222C3.66602 17.177 6.37435 13.667 11.9993 13.667C17.6243 13.667 20.3327 17.177 20.3327 19.222V20.3337C20.3327 20.7757 20.1571 21.1996 19.8445 21.5122C19.532 21.8247 19.108 22.0003 18.666 22.0003H5.33268C4.89065 22.0003 4.46673 21.8247 4.15417 21.5122C3.84161 21.1996 3.66602 20.7757 3.66602 20.3337V19.222Z" fill="#DB2777"/>
</g>
<defs>
<clipPath id="clip0_7245_10399">
<rect width="24" height="24" rx="4" fill="white"/>
</clipPath>
</defs>
</svg>
