<svg width="57" height="56" viewBox="0 0 57 56" fill="none" xmlns="http://www.w3.org/2000/svg">
<rect x="0.5" width="56" height="56" rx="28" fill="#F2F5F8"/>
<path d="M28.5001 13.416C20.4586 13.416 13.9167 19.9579 13.9167 27.9993C13.9167 36.0408 20.4586 42.5827 28.5001 42.5827C36.5416 42.5827 43.0834 36.0408 43.0834 27.9993C43.0834 19.9579 36.5416 13.416 28.5001 13.416ZM30.4992 19.4924L29.7154 30.4299H27.2848L26.5459 19.4924H30.4992ZM28.5001 37.7216C27.1572 37.7216 26.0695 36.6339 26.0695 35.291C26.0695 33.9481 27.1572 32.8605 28.5001 32.8605C29.843 32.8605 30.9306 33.9481 30.9306 35.291C30.9306 36.6339 29.843 37.7216 28.5001 37.7216Z" fill="#62248F"/>
</svg>
