<svg width="16" height="16" viewBox="0 0 16 16" fill="none" xmlns="http://www.w3.org/2000/svg">
<path d="M14.0885 4.07923H5.98639C5.66679 4.07923 5.40767 3.8201 5.40767 3.5005C5.40767 3.1809 5.66679 2.92178 5.98639 2.92178H14.0885C14.4081 2.92178 14.6673 3.1809 14.6673 3.5005C14.6673 3.8201 14.4081 4.07923 14.0885 4.07923Z" fill="#00204D" fill-opacity="0.7" style="mix-blend-mode:multiply"/>
<path d="M14.0885 8.70903H5.98639C5.66679 8.70903 5.40767 8.44991 5.40767 8.13031C5.40767 7.8107 5.66679 7.55158 5.98639 7.55158H14.0885C14.4081 7.55158 14.6673 7.8107 14.6673 8.13031C14.6673 8.44991 14.4081 8.70903 14.0885 8.70903Z" fill="#00204D" fill-opacity="0.7" style="mix-blend-mode:multiply"/>
<path d="M14.0885 13.3388H5.98639C5.66679 13.3388 5.40767 13.08 5.40767 12.7601C5.40767 12.4402 5.66679 12.1814 5.98639 12.1814H14.0885C14.4081 12.1814 14.6673 12.4402 14.6673 12.7601C14.6673 13.08 14.4081 13.3388 14.0885 13.3388Z" fill="#00204D" fill-opacity="0.7" style="mix-blend-mode:multiply"/>
<path d="M1.68043 5.001V4.58929L2.1286 4.55283C2.20151 4.54775 2.21196 4.52684 2.21196 4.44884V2.63043C2.21196 2.56798 2.19641 2.53662 2.14414 2.52108L1.69088 2.42726L1.74824 2H2.99866V4.44885C2.99866 4.53221 3.00375 4.54775 3.08202 4.55284L3.50928 4.58929V5.00101L1.68043 5.001Z" fill="#00204D" fill-opacity="0.7" style="mix-blend-mode:multiply"/>
<path d="M1.40958 9.66995V9.18532L2.10783 8.50289C2.634 7.99227 2.85808 7.784 2.85808 7.48701C2.85808 7.29401 2.76427 7.15357 2.48819 7.15357C2.20136 7.15357 2.08155 7.24739 2.08155 7.61728L1.37312 7.55455C1.37821 6.7263 2.00865 6.59066 2.55572 6.59066C3.36334 6.59066 3.64987 6.93457 3.64987 7.42428C3.64987 7.91427 3.31134 8.23727 2.93099 8.60179L2.34209 9.16469H3.10817C3.16016 9.16469 3.18108 9.15423 3.19153 9.10196L3.26444 8.69052H3.8166V9.66994L1.40958 9.66995Z" fill="#00204D" fill-opacity="0.7" style="mix-blend-mode:multiply"/>
<path d="M3.16793 12.7029C3.61101 12.7707 3.85573 13.0363 3.85573 13.5051C3.85573 14.1929 3.34003 14.5159 2.59486 14.5159C2.06869 14.5159 1.59989 14.3286 1.33398 14.0367L1.75079 13.5783C1.94888 13.771 2.16759 13.9219 2.53241 13.9219C2.82431 13.9219 3.0744 13.8179 3.0744 13.4531C3.0744 13.1352 2.8763 13.005 2.55332 13.005C2.42305 13.005 2.32414 13.0154 2.1676 13.0414V12.5206L2.42305 12.4893C2.79804 12.4424 3.00121 12.2601 3.00121 11.9266C3.00121 11.7285 2.91276 11.5672 2.62086 11.5672C2.33969 11.5672 2.20433 11.661 2.20433 12.0309L1.49053 11.9682C1.49053 11.145 2.11051 11.0043 2.65759 11.0043C3.45983 11.0043 3.76728 11.3117 3.76728 11.8693C3.76728 12.307 3.49629 12.5831 3.16793 12.682V12.7029Z" fill="#00204D" fill-opacity="0.7" style="mix-blend-mode:multiply"/>
</svg>
