<svg width="18" height="18" viewBox="0 0 18 18" fill="none" xmlns="http://www.w3.org/2000/svg">
<path fill-rule="evenodd" clip-rule="evenodd" d="M0.976949 17.205C1.0911 17.2813 1.22531 17.3221 1.36261 17.3221C1.54674 17.3221 1.72332 17.2489 1.8535 17.1187L17.1285 1.84366C17.255 1.71271 17.325 1.53733 17.3234 1.35528C17.3218 1.17323 17.2488 0.999086 17.12 0.870353C16.9913 0.741621 16.8172 0.6686 16.6351 0.667018C16.4531 0.665436 16.2777 0.73542 16.1467 0.861896L13.0469 3.96177C11.836 3.20066 10.4385 2.77686 9.00013 2.74141C5.03696 2.74141 2.12638 6.25605 1.05366 7.76828C0.801876 8.12602 0.666748 8.55281 0.666748 8.99028C0.666748 9.42774 0.801876 9.85453 1.05366 10.2123C1.83586 11.3273 2.76788 12.3278 3.82259 13.186L0.871731 16.1369C0.774658 16.234 0.708555 16.3577 0.681777 16.4924C0.654998 16.627 0.668748 16.7666 0.721287 16.8935C0.773826 17.0203 0.862796 17.1288 0.976949 17.205ZM6.10326 10.9054C5.98119 10.7208 5.87676 10.5245 5.79165 10.3191C5.61715 9.8979 5.52732 9.44645 5.52729 8.99052C5.52722 8.06974 5.89294 7.18665 6.54398 6.53551C7.19502 5.88438 8.07806 5.51854 8.99884 5.51847C9.68503 5.51842 10.3503 5.72151 10.9142 6.09444L6.10326 10.9054Z" fill="#00204D" fill-opacity="0.7" style="mix-blend-mode:multiply"/>
<path d="M16.9458 7.76759C16.4276 7.0379 15.8488 6.35319 15.2156 5.72074L12.4237 8.5126C12.4507 8.67054 12.4667 8.83015 12.4716 8.99029C12.4716 9.91101 12.1059 10.794 11.4548 11.4451C10.8038 12.0961 9.92077 12.4619 9.00005 12.4619C8.83991 12.4569 8.6803 12.4409 8.52236 12.414L6.26096 14.6754C7.12792 15.042 8.05879 15.2336 9.00005 15.2392C12.9632 15.2392 15.8773 11.7245 16.9465 10.2123C17.1984 9.8544 17.3335 9.42744 17.3333 8.98983C17.3332 8.55222 17.1979 8.12534 16.9458 7.76759Z" fill="#00204D" fill-opacity="0.7" style="mix-blend-mode:multiply"/>
</svg>
