<svg width="25" height="24" viewBox="0 0 25 24" fill="none" xmlns="http://www.w3.org/2000/svg">
<path d="M16.6667 4C15.9126 4 15.2251 4.26 14.6667 4.68167C15.3959 5.655 15.8334 6.85917 15.8334 8.16667V9C15.8334 9.79417 15.6726 10.5517 15.3834 11.2425C15.7792 11.4075 16.2117 11.5 16.6667 11.5C18.5076 11.5 20.0001 10.0075 20.0001 8.16667V7.33333C20.0001 5.4925 18.5076 4 16.6667 4Z" fill="#00204D" fill-opacity="0.7" style="mix-blend-mode:multiply"/>
<path d="M10 13.1667C7.69917 13.1667 5.83333 11.3008 5.83333 9V8.16667C5.83333 5.86583 7.69917 4 10 4C12.3008 4 14.1667 5.86583 14.1667 8.16667V9C14.1667 11.3008 12.3008 13.1667 10 13.1667Z" fill="#00204D" fill-opacity="0.7" style="mix-blend-mode:multiply"/>
<path d="M21.5325 14.3375C20.4625 13.8458 18.6284 13.1667 16.6667 13.1667C15.6709 13.1667 14.7084 13.3425 13.8609 13.5792C14.1742 13.6442 14.4884 13.71 14.8025 13.79C17.2284 14.4083 18.9442 16.5192 19.1292 19H21.6667C22.1267 19 22.5 18.6267 22.5 18.1667V15.8508C22.5 15.1992 22.125 14.6092 21.5325 14.3375Z" fill="#00204D" fill-opacity="0.7" style="mix-blend-mode:multiply"/>
<path d="M16.6667 20.6667H3.33333C2.87333 20.6667 2.5 20.2933 2.5 19.8333V19.4375C2.5 17.5417 3.7725 15.8733 5.60917 15.405C6.8375 15.0917 8.35083 14.8333 10 14.8333C11.6492 14.8333 13.1625 15.0917 14.3908 15.405C16.2275 15.8733 17.5 17.5417 17.5 19.4375V19.8333C17.5 20.2933 17.1267 20.6667 16.6667 20.6667Z" fill="#00204D" fill-opacity="0.7" style="mix-blend-mode:multiply"/>
</svg>
