<svg width="20" height="20" viewBox="0 0 20 20" fill="none" xmlns="http://www.w3.org/2000/svg">
<path d="M14.1665 5.83366C14.1665 8.13485 12.301 10.0003 9.99984 10.0003C7.69865 10.0003 5.83317 8.13485 5.83317 5.83366C5.83317 3.53247 7.69865 1.66699 9.99984 1.66699C12.301 1.66699 14.1665 3.53247 14.1665 5.83366Z" fill="#00204D" fill-opacity="0.7" style="mix-blend-mode:multiply"/>
<path d="M3.05566 16.0187C3.05566 14.3145 5.31261 11.3895 10.0001 11.3895C14.6876 11.3895 16.9446 14.3145 16.9446 16.0187V16.945C16.9446 17.3134 16.7982 17.6667 16.5378 17.9271C16.2773 18.1876 15.924 18.3339 15.5557 18.3339H4.44455C4.0762 18.3339 3.72293 18.1876 3.46246 17.9271C3.20199 17.6667 3.05566 17.3134 3.05566 16.945V16.0187Z" fill="#00204D" fill-opacity="0.7" style="mix-blend-mode:multiply"/>
</svg>
