<svg width="15" height="16" viewBox="0 0 15 16" fill="none" xmlns="http://www.w3.org/2000/svg">
<path fill-rule="evenodd" clip-rule="evenodd" d="M4.52181 8.17328C3.78902 8.30171 3.15174 8.48255 2.65911 8.64865C1.81164 8.93533 1.25 9.73256 1.25 10.6208V12.6875C1.25 12.9751 1.48337 13.2083 1.77102 13.2083H5.9375C6.22515 13.2083 6.45833 12.9751 6.45833 12.6875C6.45833 12.3999 6.2247 12.1667 5.93706 12.1667H2.29167V10.6208C2.29167 10.1727 2.57415 9.77716 2.99217 9.63564C3.81626 9.35779 5.06235 9.04167 6.45833 9.04167C7.38907 9.04167 8.17661 8.49913 8.70965 7.81882C9.24426 7.13651 9.58333 6.24439 9.58333 5.39583V4.875C9.58333 3.14933 8.184 1.75 6.45833 1.75C4.73266 1.75 3.33333 3.14933 3.33333 4.875V5.39583C3.33333 6.24439 3.67241 7.13651 4.20702 7.81882C4.30378 7.94232 4.40894 8.06128 4.52181 8.17328ZM4.375 4.875C4.375 3.72463 5.30796 2.79167 6.45833 2.79167C7.60871 2.79167 8.54167 3.72463 8.54167 4.875V5.39583C8.54167 5.9853 8.29767 6.65568 7.8897 7.17636C7.48016 7.69905 6.96561 8 6.45833 8C5.95105 8 5.43651 7.69905 5.02697 7.17636C4.619 6.65568 4.375 5.9853 4.375 5.39583V4.875Z" fill="#FC6B03"/>
<path d="M10.625 9.5625C10.9126 9.5625 11.1458 9.79568 11.1458 10.0833V10.6042H11.6667C11.9543 10.6042 12.1875 10.8374 12.1875 11.125C12.1875 11.4126 11.9543 11.6458 11.6667 11.6458H10.625C10.3374 11.6458 10.1042 11.4126 10.1042 11.125V10.0833C10.1042 9.79568 10.3374 9.5625 10.625 9.5625Z" fill="#FC6B03"/>
<path fill-rule="evenodd" clip-rule="evenodd" d="M10.625 8C8.89911 8 7.5 9.39911 7.5 11.125C7.5 12.8509 8.89911 14.25 10.625 14.25C12.3509 14.25 13.75 12.8509 13.75 11.125C13.75 9.39911 12.3509 8 10.625 8ZM8.54167 11.125C8.54167 9.97441 9.47441 9.04167 10.625 9.04167C11.7756 9.04167 12.7083 9.97441 12.7083 11.125C12.7083 12.2756 11.7756 13.2083 10.625 13.2083C9.47441 13.2083 8.54167 12.2756 8.54167 11.125Z" fill="#FC6B03"/>
</svg>
