<svg width="20" height="20" viewBox="0 0 20 20" fill="none" xmlns="http://www.w3.org/2000/svg">
<path fill-rule="evenodd" clip-rule="evenodd" d="M4.9698 0.0579048C5.37394 -0.0489294 5.80302 -0.00701058 6.17885 0.176023C6.55468 0.359056 6.85224 0.671022 7.01732 1.05508L9.018 5.71848C9.15399 6.03656 9.19229 6.38791 9.12803 6.72783C9.06377 7.06774 8.89985 7.38086 8.65712 7.62735L7.24681 9.05838C7.73503 9.78685 8.28603 10.4718 8.89375 11.1052C9.52563 11.7134 10.2097 12.2642 10.9378 12.7514L12.3691 11.3395C12.6165 11.0959 12.9316 10.9312 13.2729 10.8675C13.6136 10.804 13.9654 10.8435 14.2835 10.9809C14.2841 10.9812 14.2847 10.9814 14.2853 10.9817L18.9457 12.9797C19.3299 13.1449 19.6418 13.4428 19.8246 13.8189C20.0072 14.1945 20.0488 14.6233 19.9419 15.027M19.9415 15.0284L18.9744 18.69C18.9741 18.6912 18.9738 18.6924 18.9734 18.6937C18.8744 19.0761 18.6482 19.4135 18.332 19.6504C18.0147 19.8881 17.6259 20.0104 17.2297 19.9971L17.2107 19.9962C12.7245 19.7513 8.47971 17.8861 5.26518 14.7471L5.24984 14.7318C2.1119 11.5178 0.247071 7.27425 0.00170281 2.78917C0.00127382 2.78133 0.000946484 2.77349 0.000720801 2.76564C-0.010631 2.37074 0.112385 1.98369 0.349638 1.66781C0.586363 1.35264 0.92283 1.12694 1.30419 1.02746L4.9698 0.0579048M5.37227 1.83214L1.82181 2.77125C2.06088 6.78293 3.73645 10.5754 6.54319 13.4539C9.42248 16.2618 13.2165 17.9378 17.2296 18.1762L18.1677 14.6244L13.6093 12.6701L11.6996 14.5539C11.4037 14.8457 10.9477 14.8998 10.5918 14.6852C9.51838 14.038 8.52123 13.2721 7.61913 12.4019C7.61094 12.394 7.60289 12.3859 7.595 12.3777C6.72675 11.4748 5.96149 10.4782 5.31329 9.40624C5.09811 9.05039 5.15182 8.5939 5.44372 8.29772L7.3265 6.38728L5.37227 1.83214Z" fill="#00204D" fill-opacity="0.9" style="mix-blend-mode:multiply"/>
</svg>
