<svg width="24" height="24" viewBox="0 0 24 24" fill="none" xmlns="http://www.w3.org/2000/svg">
<path d="M22.817 7.64202C22.2894 6.4749 21.5608 5.42202 20.6514 4.5129C18.6518 2.51322 15.9928 1.41162 13.1644 1.41162C7.72263 1.41162 3.22815 5.53818 2.64183 10.8261L1.88487 10.0691C1.51023 9.69402 0.902314 9.69426 0.527434 10.0691C0.152314 10.444 0.152314 11.0519 0.527434 11.4268L2.96103 13.8607C3.14103 14.0407 3.38535 14.1419 3.63975 14.1419C3.89415 14.1419 4.13847 14.0409 4.31847 13.8609L6.75231 11.4271C7.12743 11.0519 7.12743 10.4443 6.75231 10.0694C6.37767 9.6945 5.76927 9.6945 5.39487 10.0694L4.56855 10.8957C5.11335 6.63594 8.75919 3.33186 13.1646 3.33186C15.4799 3.33186 17.6567 4.23354 19.294 5.87082C20.039 6.61578 20.6358 7.47786 21.0676 8.43306C21.5754 9.55674 21.8327 10.757 21.8327 12.0004C21.8327 16.7803 17.9442 20.669 13.1646 20.669C10.8496 20.669 8.67327 19.7678 7.03623 18.1312C6.66111 17.7563 6.05343 17.7566 5.67855 18.1315C5.30367 18.5063 5.30367 19.1143 5.67879 19.4891C7.67871 21.4881 10.3372 22.589 13.1646 22.589C19.0029 22.589 23.7527 17.8389 23.7527 12.0004C23.7527 10.4822 23.4378 9.01602 22.817 7.64202Z" fill="url(#paint0_linear_6747_40754)"/>
<path d="M15.6001 16.9205C15.3546 16.9205 15.1086 16.8266 14.9214 16.6394L12.459 14.177C12.279 13.997 12.1777 13.7527 12.1777 13.4981V7.20023C12.1777 6.67007 12.6076 6.24023 13.1377 6.24023C13.6679 6.24023 14.0977 6.67007 14.0977 7.20023V13.1004L16.2789 15.2815C16.654 15.6566 16.654 16.2643 16.2789 16.6392C16.0917 16.8266 15.8457 16.9205 15.6001 16.9205Z" fill="url(#paint1_linear_6747_40754)"/>
<defs>
<linearGradient id="paint0_linear_6747_40754" x1="11.9994" y1="1.41162" x2="11.9994" y2="22.589" gradientUnits="userSpaceOnUse">
<stop stop-color="#CA1E66"/>
<stop offset="1" stop-color="#E9519F"/>
</linearGradient>
<linearGradient id="paint1_linear_6747_40754" x1="14.369" y1="6.24023" x2="14.369" y2="16.9205" gradientUnits="userSpaceOnUse">
<stop stop-color="#CA1E66"/>
<stop offset="1" stop-color="#E9519F"/>
</linearGradient>
</defs>
</svg>
