<svg class="svg-icon" style="width: 1em; height: 1em;vertical-align: middle;fill: currentColor;overflow: hidden;" viewBox="0 0 1024 1024" version="1.1" xmlns="http://www.w3.org/2000/svg"><path d="M864 902.4h-512C192 902.4 64 774.4 64 614.4s128-288 288-288h512c19.2 0 32 12.8 32 32s-12.8 32-32 32h-512C224 390.4 128 492.8 128 614.4s102.4 224 224 224h512c19.2 0 32 12.8 32 32s-19.2 32-32 32z" fill="#333333" /><path d="M736 582.4c-6.4 0-19.2 0-25.6-6.4-12.8-12.8-12.8-32 0-44.8l198.4-198.4c12.8-12.8 32-12.8 44.8 0s12.8 32 0 44.8L755.2 576c-6.4 0-12.8 6.4-19.2 6.4z" fill="#333333" /><path d="M928 384c-6.4 0-19.2 0-25.6-6.4L704 179.2c-12.8-12.8-12.8-32 0-44.8s32-12.8 44.8 0l198.4 198.4c12.8 12.8 12.8 32 0 44.8 0 0-6.4 6.4-19.2 6.4z" fill="#333333" /></svg>