<svg width="37" height="37" viewBox="0 0 37 37" fill="none" xmlns="http://www.w3.org/2000/svg">
<rect x="0.5" y="0.5" width="36" height="36" rx="8" fill="#FCEEED"/>
<path fill-rule="evenodd" clip-rule="evenodd" d="M18.5 10.375C14.0127 10.375 10.375 14.0127 10.375 18.5C10.375 22.9873 14.0127 26.625 18.5 26.625C22.9873 26.625 26.625 22.9873 26.625 18.5C26.625 14.0127 22.9873 10.375 18.5 10.375ZM9.125 18.5C9.125 13.3223 13.3223 9.125 18.5 9.125C23.6777 9.125 27.875 13.3223 27.875 18.5C27.875 23.6777 23.6777 27.875 18.5 27.875C13.3223 27.875 9.125 23.6777 9.125 18.5Z" fill="#E14337"/>
<path fill-rule="evenodd" clip-rule="evenodd" d="M25.1272 11.8707C25.3713 12.1148 25.3714 12.5105 25.1273 12.7546L12.7554 25.1279C12.5114 25.372 12.1157 25.372 11.8716 25.128C11.6275 24.8839 11.6274 24.4882 11.8715 24.2441L24.2434 11.8708C24.4874 11.6267 24.8831 11.6267 25.1272 11.8707Z" fill="#E14337"/>
</svg>
