<svg width="20" height="20" viewBox="0 0 20 20" fill="none" xmlns="http://www.w3.org/2000/svg">
<g clip-path="url(#clip0_14671_10590)">
<path d="M18.1848 14.3262C18.1922 14.3188 18.1995 14.3113 18.2067 14.3036C18.2685 14.2371 18.3162 14.1621 18.3497 14.0825C18.3878 13.9921 18.4089 13.8927 18.4089 13.7883L18.4089 13.786C18.4084 13.5929 18.3344 13.4 18.187 13.2526L15.1567 10.2223C14.8609 9.92645 14.3812 9.92645 14.0854 10.2223C13.7895 10.5182 13.7895 10.9978 14.0854 11.2937L15.8224 13.0307H6.28772C5.86933 13.0307 5.53015 13.3699 5.53015 13.7883C5.53015 14.2067 5.86933 14.5459 6.28772 14.5459H15.8224L14.0854 16.2829C13.7895 16.5788 13.7895 17.0584 14.0854 17.3543C14.3812 17.6501 14.8609 17.6501 15.1567 17.3543L18.1848 14.3262Z" fill="#00204D" fill-opacity="0.7" style="mix-blend-mode:multiply"/>
<path d="M15.3783 6.21252C15.3783 5.79412 15.0392 5.45494 14.6208 5.45494H4.32841L6.06546 3.71789C6.36132 3.42204 6.36132 2.94237 6.06546 2.64652C5.76961 2.35067 5.28994 2.35067 4.99409 2.64652L1.96379 5.67682C1.66794 5.97267 1.66794 6.45234 1.96379 6.7482L4.99409 9.7785C5.28994 10.0744 5.76961 10.0744 6.06546 9.7785C6.36132 9.48265 6.36132 9.00298 6.06546 8.70712L4.32843 6.97009H14.6208C15.0392 6.97009 15.3783 6.63092 15.3783 6.21252Z" fill="#00204D" fill-opacity="0.7" style="mix-blend-mode:multiply"/>
</g>
<defs>
<clipPath id="clip0_14671_10590">
<rect width="20" height="20" rx="4" fill="white"/>
</clipPath>
</defs>
</svg>
