<svg width="23" height="18" viewBox="0 0 23 18" fill="none" xmlns="http://www.w3.org/2000/svg">
<path d="M8.33594 8.89844L9.00391 10.6914C9.42578 11.8164 9.46094 13.0469 9.14453 14.1719L9.07422 14.3125L0.988281 11.3594C0.601562 11.2188 0.320312 10.8672 0.25 10.4453C0.214844 10.0234 0.390625 9.60156 0.742188 9.35547L1.05859 9.17969C2.25391 8.37109 3.20312 7.21094 3.69531 5.83984L4.1875 4.43359C5.10156 2.04297 7.77344 0.8125 10.1641 1.65625C10.3398 1.72656 10.5156 1.79688 10.6562 1.86719C8.40625 3.37891 7.38672 6.26172 8.33594 8.89844ZM11.0078 7.94922L11.6406 9.74219C12.2031 11.2539 12.3086 12.9062 11.957 14.4531L20.3945 11.3945C19.0938 10.4102 18.1094 9.10938 17.582 7.59766L16.9141 5.76953C16.3164 4.15234 14.4883 3.30859 12.8711 3.90625C11.2188 4.50391 10.4102 6.29688 11.0078 7.94922ZM10.1992 14.4883H10.2344C10.6211 13.1172 10.5508 11.6406 10.0586 10.3047L9.39062 8.51172C8.47656 6.01562 9.77734 3.23828 12.2734 2.32422C14.8047 1.41016 17.582 2.71094 18.4961 5.20703L19.1641 7C19.6562 8.33594 20.5352 9.49609 21.7305 10.3047L22.2227 10.6211C22.5742 10.8672 22.75 11.2539 22.7148 11.6758C22.6797 12.0977 22.3633 12.4492 21.9766 12.625L11.5352 16.4219C11.1133 16.5625 10.6914 16.457 10.375 16.1758C10.0586 15.8945 9.95312 15.4375 10.0586 15.0508L10.1992 14.4883ZM17.125 17.125C16.3867 17.125 15.7188 16.7734 15.332 16.2461L19.4102 14.7344C19.4102 14.8047 19.4102 14.8398 19.4102 14.875C19.4102 16.1406 18.3906 17.125 17.125 17.125ZM3.55469 13.5039L7.66797 15.0156C7.28125 15.6133 6.57812 16 5.80469 16C4.53906 16 3.51953 15.0156 3.51953 13.75C3.51953 13.6797 3.55469 13.5742 3.55469 13.5039Z" fill="url(#paint0_radial_16726_100389)"/>
<defs>
<radialGradient id="paint0_radial_16726_100389" cx="0" cy="0" r="1" gradientUnits="userSpaceOnUse" gradientTransform="translate(23.0719 -3.69981e-06) rotate(142.04) scale(29.2628 133.628)">
<stop stop-color="#D856FF"/>
<stop offset="1" stop-color="#2F45FF"/>
</radialGradient>
</defs>
</svg>
