<svg width="18" height="17" viewBox="0 0 18 17" fill="none" xmlns="http://www.w3.org/2000/svg">
<path d="M16.8299 15.7911L12.6139 11.563C13.7628 10.1539 14.3277 8.35578 14.1917 6.54065C14.0557 4.72553 13.2292 3.03225 11.8833 1.81108C10.5373 0.589907 8.77477 -0.0657396 6.96028 -0.020242C5.14579 0.0252555 3.41815 0.768416 2.13471 2.05552C0.851276 3.34263 0.110233 5.0752 0.0648652 6.89487C0.0194973 8.71455 0.673276 10.4821 1.89097 11.8319C3.10867 13.1817 4.79711 14.0106 6.60707 14.1469C8.41702 14.2833 10.21 13.7168 11.6152 12.5646L15.8311 16.7927C15.9644 16.9217 16.1428 16.9931 16.328 16.9915C16.5132 16.9899 16.6903 16.9154 16.8213 16.784C16.9522 16.6527 17.0265 16.4751 17.0281 16.2893C17.0297 16.1036 16.9585 15.9247 16.8299 15.7911ZM7.14841 12.7502C6.03085 12.7502 4.93838 12.4179 4.00915 11.7952C3.07993 11.1725 2.35569 10.2875 1.92801 9.25208C1.50034 8.21664 1.38844 7.07726 1.60646 5.97803C1.82449 4.87881 2.36265 3.8691 3.15289 3.07661C3.94313 2.28411 4.94996 1.74441 6.04605 1.52576C7.14215 1.30711 8.27828 1.41933 9.31077 1.84823C10.3433 2.27712 11.2258 3.00344 11.8467 3.93531C12.4675 4.86719 12.7989 5.96278 12.7989 7.08355C12.7973 8.58592 12.2014 10.0263 11.1421 11.0886C10.0828 12.151 8.64651 12.7485 7.14841 12.7502Z" fill="#00204D" fill-opacity="0.25" style="mix-blend-mode:multiply"/>
</svg>
