<svg width="25" height="25" viewBox="0 0 25 25" fill="none" xmlns="http://www.w3.org/2000/svg">
<g clip-path="url(#clip0_15384_36487)">
<path d="M14.88 22.5033C14.7031 22.5033 14.5296 22.454 14.379 22.361C14.2284 22.2681 14.1066 22.1351 14.0272 21.9769L11.2005 16.3207C11.1242 16.1678 11.0904 15.9973 11.1024 15.8268C11.1143 15.6564 11.1718 15.4923 11.2687 15.3515L15.8329 9.16893L9.65029 13.7313C9.50974 13.8282 9.34576 13.8857 9.17546 13.8977C9.00515 13.9097 8.83474 13.8758 8.68199 13.7995L3.02401 10.9728C2.85846 10.8894 2.72085 10.7594 2.62803 10.599C2.53521 10.4385 2.49122 10.2544 2.50145 10.0693C2.51168 9.88422 2.57569 9.70612 2.68562 9.55685C2.79556 9.40758 2.94665 9.29362 3.12038 9.22894L21.2181 2.55901C21.3888 2.49593 21.574 2.48311 21.7518 2.52206C21.9296 2.56102 22.0925 2.65012 22.2212 2.77882C22.3499 2.90751 22.439 3.0704 22.4779 3.24818C22.5169 3.42596 22.5041 3.61118 22.441 3.78189L15.772 21.8805C15.7078 22.0549 15.5939 22.2066 15.4444 22.3169C15.295 22.4273 15.1165 22.4915 14.931 22.5015L14.88 22.5033Z" fill="#62248F"/>
</g>
<defs>
<clipPath id="clip0_15384_36487">
<rect width="24" height="24" fill="white" transform="translate(0.5 0.5)"/>
</clipPath>
</defs>
</svg>
