<svg width="24" height="24" viewBox="0 0 24 24" fill="none" xmlns="http://www.w3.org/2000/svg">
<path d="M10.5 12C8.19916 12 6.33333 9.30083 6.33333 7V6.16667C6.33333 3.86583 8.19916 2 10.5 2C12.8008 2 14.6667 3.86583 14.6667 6.16667V7C14.6667 9.30083 12.8008 12 10.5 12Z" fill="#DB2777"/>
<path d="M12.1667 17.8337C12.1667 15.9953 13.6617 14.5003 15.5 14.5003C15.6364 14.5003 15.7714 14.5189 15.9069 14.5375L15.94 14.542C14.5775 14.112 12.6533 13.667 10.5 13.667C8.14667 13.667 6.05917 14.1987 4.68833 14.6612C3.675 15.0037 3 15.9578 3 17.027V20.3337H13.3183C12.6183 19.722 12.1667 18.8337 12.1667 17.8337Z" fill="#DB2777"/>
<path d="M18.8658 18.8812C19.105 18.7487 19.375 18.667 19.6667 18.667C20.5858 18.667 21.3333 19.4145 21.3333 20.3337C21.3333 21.2528 20.5858 22.0003 19.6667 22.0003C18.7475 22.0003 18 21.2528 18 20.3337C18 20.3291 18.0006 20.3247 18.0012 20.3203C18.0019 20.3159 18.0025 20.3116 18.0025 20.307L16.3008 19.2862C16.0617 19.4187 15.7917 19.5003 15.5 19.5003C14.5808 19.5003 13.8333 18.7528 13.8333 17.8337C13.8333 16.9145 14.5808 16.167 15.5 16.167C15.7917 16.167 16.0617 16.2487 16.3008 16.3812L18.0025 15.3603C18.0025 15.3557 18.0019 15.3514 18.0012 15.347C18.0006 15.3426 18 15.3382 18 15.3337C18 14.4145 18.7475 13.667 19.6667 13.667C20.5858 13.667 21.3333 14.4145 21.3333 15.3337C21.3333 16.2528 20.5858 17.0003 19.6667 17.0003C19.375 17.0003 19.105 16.9187 18.8658 16.7862L17.1642 17.807C17.1642 17.8116 17.1648 17.816 17.1654 17.8203C17.166 17.8247 17.1667 17.8291 17.1667 17.8337C17.1667 17.8382 17.166 17.8426 17.1654 17.847C17.1648 17.8514 17.1642 17.8557 17.1642 17.8603L18.8658 18.8812Z" fill="#DB2777"/>
</svg>
