<svg width="83" height="53" viewBox="0 0 83 53" fill="none" xmlns="http://www.w3.org/2000/svg">
<path d="M57.3883 28.0762C54.5865 28.0762 52.1765 29.7501 51.2108 32.1008C51.1605 32.2204 50.9897 32.719 50.9897 32.719L47.0879 48.0749H56.0476C59.1265 48.0749 61.7324 46.0574 62.4685 43.3353C62.4685 43.3353 62.4685 43.3353 62.4685 43.3379L66.3452 28.0787H57.3883V28.0762Z" fill="#16B14B"/>
<path d="M42.4699 23.6318C39.4693 23.6318 36.9362 25.4788 36.1497 27.9974C36.0909 28.1857 36.0433 28.379 36.0041 28.5749L29.9219 52.5194H38.8759C41.9437 52.5194 44.5244 50.5885 45.2465 47.9783H45.2493L51.4324 23.6318H42.4699Z" fill="#F27227"/>
<path d="M25.2976 28.0762C22.3922 28.0762 19.9095 29.8723 19.0194 32.3603C18.9998 32.4163 18.9802 32.4723 18.9634 32.5282L18.8123 33.0625L15 48.0723H24.178C26.921 48.0723 29.275 46.4187 30.1875 44.1011L30.5514 42.6713L34.2573 28.0762H25.2976Z" fill="#1169B0"/>
<path d="M23.6241 33.0625L23.6213 33.0752H23.4813C22.8431 33.0752 22.2385 33.2813 21.6871 33.6909C21.1553 34.0852 20.8054 34.566 20.6851 34.9578H20.6795L18.625 43.0733L18.7426 43.0707C19.3891 43.0707 19.9993 42.8621 20.5535 42.45C21.1105 42.0379 21.466 41.5316 21.6116 40.949L22.0622 39.1885H26.1488C26.7869 39.1885 27.4027 38.9723 27.9625 38.5627C28.5195 38.1531 28.875 37.6519 29.0178 37.0694L29.043 36.9625H22.6304L23.0559 35.2885L28.6091 35.2809C29.2473 35.2809 29.8519 35.0748 30.4033 34.6703C30.9519 34.2633 31.2962 33.7519 31.4501 33.177L31.4781 33.0701L23.6241 33.0625Z" fill="white"/>
<path d="M46.2959 33.5564C45.9432 33.2359 45.4814 33.0731 44.9271 33.0731L37.0899 33.0654L34.5596 43.0635H34.5624L34.5596 43.0762L34.6771 43.0737C35.3237 43.0737 35.9339 42.8651 36.4881 42.4529C37.0451 42.0408 37.4006 41.5345 37.5461 40.9519L37.9996 39.1711L43.4269 39.1762C44.0622 39.1762 44.6332 39.1101 45.1847 38.7056C45.7333 38.3011 46.1251 37.66 46.2819 37.0697L46.7577 35.2177C46.7913 35.0701 46.8109 34.9175 46.8165 34.7623C46.8221 34.2815 46.6485 33.877 46.2959 33.5564ZM43.8495 36.9604L38.5622 36.9553L38.9904 35.2787L44.2778 35.2838L43.8495 36.9604Z" fill="white"/>
<path d="M62.2421 33.5611C61.895 33.238 61.4359 33.0752 60.8761 33.0752H57.4221H57.2038H52.6022L52.5854 33.1464C52.5491 33.3042 52.5267 33.4492 52.5267 33.5865C52.5183 34.075 52.689 34.4846 53.0361 34.8077C53.3832 35.1282 53.8422 35.2911 54.402 35.2911H56.1318L54.1613 43.0733L54.2788 43.0707C54.9254 43.0707 55.5356 42.8621 56.0898 42.45C56.6468 42.0378 57.0023 41.5316 57.1478 40.949L58.5921 35.2911H62.6731L62.6899 35.2198C62.7263 35.0723 62.7431 34.9196 62.7459 34.7644C62.7627 34.2862 62.5919 33.8817 62.2421 33.5611Z" fill="white"/>
<path d="M63.8516 46.3477C63.8516 45.3988 64.7025 44.6279 65.7465 44.6279C66.7933 44.6279 67.6414 45.4013 67.6414 46.3477C67.6414 47.2966 66.7905 48.0726 65.7465 48.0726C64.6997 48.0726 63.8516 47.2992 63.8516 46.3477ZM67.1796 46.3477C67.1796 45.5438 66.5386 44.9587 65.7437 44.9587C64.9516 44.9587 64.3106 45.5412 64.3106 46.3477C64.3106 47.1542 64.9516 47.7367 65.7437 47.7367C66.5386 47.7393 67.1796 47.1567 67.1796 46.3477ZM65.016 45.3657H65.8137C66.3287 45.3657 66.6086 45.5285 66.6086 45.9381C66.6086 46.2714 66.3959 46.4342 66.046 46.4622L66.6226 47.3144H66.2139L65.6597 46.4749H65.419V47.3144H65.0188V45.3657H65.016ZM65.4162 46.2027H65.7689C66.0012 46.2027 66.2083 46.1722 66.2083 45.9127C66.2083 45.6812 65.9788 45.6455 65.7745 45.6455H65.419V46.2027H65.4162Z" fill="#1169B0"/>
<path d="M5.59375 10.5371H2.55469V9.31055H5.59375C6.18229 9.31055 6.65885 9.2168 7.02344 9.0293C7.38802 8.8418 7.65365 8.58138 7.82031 8.24805C7.99219 7.91471 8.07812 7.53451 8.07812 7.10742C8.07812 6.7168 7.99219 6.34961 7.82031 6.00586C7.65365 5.66211 7.38802 5.38607 7.02344 5.17773C6.65885 4.96419 6.18229 4.85742 5.59375 4.85742H2.90625V14.998H1.39844V3.62305H5.59375C6.45312 3.62305 7.17969 3.77148 7.77344 4.06836C8.36719 4.36523 8.81771 4.77669 9.125 5.30273C9.43229 5.82357 9.58594 6.41992 9.58594 7.0918C9.58594 7.82096 9.43229 8.44336 9.125 8.95898C8.81771 9.47461 8.36719 9.86784 7.77344 10.1387C7.17969 10.4043 6.45312 10.5371 5.59375 10.5371ZM10.7812 10.8652V10.6855C10.7812 10.0762 10.8698 9.51107 11.0469 8.99023C11.224 8.46419 11.4792 8.00846 11.8125 7.62305C12.1458 7.23242 12.5495 6.93034 13.0234 6.7168C13.4974 6.49805 14.0286 6.38867 14.6172 6.38867C15.2109 6.38867 15.7448 6.49805 16.2188 6.7168C16.6979 6.93034 17.1042 7.23242 17.4375 7.62305C17.776 8.00846 18.0339 8.46419 18.2109 8.99023C18.388 9.51107 18.4766 10.0762 18.4766 10.6855V10.8652C18.4766 11.4746 18.388 12.0397 18.2109 12.5605C18.0339 13.0814 17.776 13.5371 17.4375 13.9277C17.1042 14.3132 16.7005 14.6152 16.2266 14.834C15.7578 15.0475 15.2266 15.1543 14.6328 15.1543C14.0391 15.1543 13.5052 15.0475 13.0312 14.834C12.5573 14.6152 12.151 14.3132 11.8125 13.9277C11.4792 13.5371 11.224 13.0814 11.0469 12.5605C10.8698 12.0397 10.7812 11.4746 10.7812 10.8652ZM12.2266 10.6855V10.8652C12.2266 11.2871 12.276 11.6855 12.375 12.0605C12.474 12.4303 12.6224 12.7585 12.8203 13.0449C13.0234 13.3314 13.276 13.5579 13.5781 13.7246C13.8802 13.8861 14.2318 13.9668 14.6328 13.9668C15.0286 13.9668 15.375 13.8861 15.6719 13.7246C15.974 13.5579 16.224 13.3314 16.4219 13.0449C16.6198 12.7585 16.7682 12.4303 16.8672 12.0605C16.9714 11.6855 17.0234 11.2871 17.0234 10.8652V10.6855C17.0234 10.2689 16.9714 9.87565 16.8672 9.50586C16.7682 9.13086 16.6172 8.80013 16.4141 8.51367C16.2161 8.22201 15.9661 7.99284 15.6641 7.82617C15.3672 7.65951 15.0182 7.57617 14.6172 7.57617C14.2214 7.57617 13.8724 7.65951 13.5703 7.82617C13.2734 7.99284 13.0234 8.22201 12.8203 8.51367C12.6224 8.80013 12.474 9.13086 12.375 9.50586C12.276 9.87565 12.2266 10.2689 12.2266 10.6855ZM22.4297 13.498L24.6016 6.54492H25.5547L25.3672 7.92773L23.1562 14.998H22.2266L22.4297 13.498ZM20.9688 6.54492L22.8203 13.5762L22.9531 14.998H21.9766L19.5234 6.54492H20.9688ZM27.6328 13.5215L29.3984 6.54492H30.8359L28.3828 14.998H27.4141L27.6328 13.5215ZM25.7656 6.54492L27.8906 13.3809L28.1328 14.998H27.2109L24.9375 7.91211L24.75 6.54492H25.7656ZM35.8281 15.1543C35.2396 15.1543 34.7057 15.0553 34.2266 14.8574C33.7526 14.6543 33.3438 14.3704 33 14.0059C32.6615 13.6413 32.401 13.209 32.2188 12.709C32.0365 12.209 31.9453 11.6621 31.9453 11.0684V10.7402C31.9453 10.0527 32.0469 9.44076 32.25 8.9043C32.4531 8.36263 32.7292 7.9043 33.0781 7.5293C33.4271 7.1543 33.8229 6.87044 34.2656 6.67773C34.7083 6.48503 35.1667 6.38867 35.6406 6.38867C36.2448 6.38867 36.7656 6.49284 37.2031 6.70117C37.6458 6.90951 38.0078 7.20117 38.2891 7.57617C38.5703 7.94596 38.7786 8.38346 38.9141 8.88867C39.0495 9.38867 39.1172 9.93555 39.1172 10.5293V11.1777H32.8047V9.99805H37.6719V9.88867C37.651 9.51367 37.5729 9.14909 37.4375 8.79492C37.3073 8.44076 37.099 8.14909 36.8125 7.91992C36.526 7.69076 36.1354 7.57617 35.6406 7.57617C35.3125 7.57617 35.0104 7.64648 34.7344 7.78711C34.4583 7.92253 34.2214 8.12565 34.0234 8.39648C33.8255 8.66732 33.6719 8.99805 33.5625 9.38867C33.4531 9.7793 33.3984 10.2298 33.3984 10.7402V11.0684C33.3984 11.4694 33.4531 11.847 33.5625 12.2012C33.6771 12.5501 33.8411 12.8574 34.0547 13.123C34.2734 13.3887 34.5365 13.597 34.8438 13.748C35.1562 13.8991 35.5104 13.9746 35.9062 13.9746C36.4167 13.9746 36.849 13.8704 37.2031 13.6621C37.5573 13.4538 37.8672 13.1751 38.1328 12.8262L39.0078 13.5215C38.8255 13.7975 38.5938 14.0605 38.3125 14.3105C38.0312 14.5605 37.6849 14.7637 37.2734 14.9199C36.8672 15.0762 36.3854 15.1543 35.8281 15.1543ZM42.25 7.87305V14.998H40.8047V6.54492H42.2109L42.25 7.87305ZM44.8906 6.49805L44.8828 7.8418C44.763 7.81576 44.6484 7.80013 44.5391 7.79492C44.4349 7.78451 44.3151 7.7793 44.1797 7.7793C43.8464 7.7793 43.5521 7.83138 43.2969 7.93555C43.0417 8.03971 42.8255 8.18555 42.6484 8.37305C42.4714 8.56055 42.3307 8.78451 42.2266 9.04492C42.1276 9.30013 42.0625 9.58138 42.0312 9.88867L41.625 10.123C41.625 9.61263 41.6745 9.13346 41.7734 8.68555C41.8776 8.23763 42.0365 7.8418 42.25 7.49805C42.4635 7.14909 42.7344 6.87826 43.0625 6.68555C43.3958 6.48763 43.7917 6.38867 44.25 6.38867C44.3542 6.38867 44.474 6.40169 44.6094 6.42773C44.7448 6.44857 44.8385 6.47201 44.8906 6.49805ZM49.5781 15.1543C48.9896 15.1543 48.4557 15.0553 47.9766 14.8574C47.5026 14.6543 47.0938 14.3704 46.75 14.0059C46.4115 13.6413 46.151 13.209 45.9688 12.709C45.7865 12.209 45.6953 11.6621 45.6953 11.0684V10.7402C45.6953 10.0527 45.7969 9.44076 46 8.9043C46.2031 8.36263 46.4792 7.9043 46.8281 7.5293C47.1771 7.1543 47.5729 6.87044 48.0156 6.67773C48.4583 6.48503 48.9167 6.38867 49.3906 6.38867C49.9948 6.38867 50.5156 6.49284 50.9531 6.70117C51.3958 6.90951 51.7578 7.20117 52.0391 7.57617C52.3203 7.94596 52.5286 8.38346 52.6641 8.88867C52.7995 9.38867 52.8672 9.93555 52.8672 10.5293V11.1777H46.5547V9.99805H51.4219V9.88867C51.401 9.51367 51.3229 9.14909 51.1875 8.79492C51.0573 8.44076 50.849 8.14909 50.5625 7.91992C50.276 7.69076 49.8854 7.57617 49.3906 7.57617C49.0625 7.57617 48.7604 7.64648 48.4844 7.78711C48.2083 7.92253 47.9714 8.12565 47.7734 8.39648C47.5755 8.66732 47.4219 8.99805 47.3125 9.38867C47.2031 9.7793 47.1484 10.2298 47.1484 10.7402V11.0684C47.1484 11.4694 47.2031 11.847 47.3125 12.2012C47.4271 12.5501 47.5911 12.8574 47.8047 13.123C48.0234 13.3887 48.2865 13.597 48.5938 13.748C48.9062 13.8991 49.2604 13.9746 49.6562 13.9746C50.1667 13.9746 50.599 13.8704 50.9531 13.6621C51.3073 13.4538 51.6172 13.1751 51.8828 12.8262L52.7578 13.5215C52.5755 13.7975 52.3438 14.0605 52.0625 14.3105C51.7812 14.5605 51.4349 14.7637 51.0234 14.9199C50.6172 15.0762 50.1354 15.1543 49.5781 15.1543ZM59.8828 13.3574V2.99805H61.3359V14.998H60.0078L59.8828 13.3574ZM54.1953 10.8652V10.7012C54.1953 10.0553 54.2734 9.4694 54.4297 8.94336C54.5911 8.41211 54.8177 7.95638 55.1094 7.57617C55.4062 7.19596 55.7578 6.9043 56.1641 6.70117C56.5755 6.49284 57.0339 6.38867 57.5391 6.38867C58.0703 6.38867 58.5339 6.48242 58.9297 6.66992C59.3307 6.85221 59.6693 7.12044 59.9453 7.47461C60.2266 7.82357 60.4479 8.24544 60.6094 8.74023C60.7708 9.23503 60.8828 9.79492 60.9453 10.4199V11.1387C60.888 11.7585 60.776 12.3158 60.6094 12.8105C60.4479 13.3053 60.2266 13.7272 59.9453 14.0762C59.6693 14.4251 59.3307 14.6934 58.9297 14.8809C58.5286 15.0632 58.0599 15.1543 57.5234 15.1543C57.0286 15.1543 56.5755 15.0475 56.1641 14.834C55.7578 14.6204 55.4062 14.321 55.1094 13.9355C54.8177 13.5501 54.5911 13.097 54.4297 12.5762C54.2734 12.0501 54.1953 11.4798 54.1953 10.8652ZM55.6484 10.7012V10.8652C55.6484 11.2871 55.6901 11.6829 55.7734 12.0527C55.862 12.4225 55.9974 12.748 56.1797 13.0293C56.362 13.3105 56.5938 13.5319 56.875 13.6934C57.1562 13.8496 57.4922 13.9277 57.8828 13.9277C58.362 13.9277 58.7552 13.8262 59.0625 13.623C59.375 13.4199 59.625 13.1517 59.8125 12.8184C60 12.485 60.1458 12.123 60.25 11.7324V9.84961C60.1875 9.56315 60.0964 9.28711 59.9766 9.02148C59.862 8.75065 59.7109 8.51107 59.5234 8.30273C59.3411 8.08919 59.1146 7.91992 58.8438 7.79492C58.5781 7.66992 58.263 7.60742 57.8984 7.60742C57.5026 7.60742 57.1615 7.69076 56.875 7.85742C56.5938 8.01888 56.362 8.24284 56.1797 8.5293C55.9974 8.81055 55.862 9.13867 55.7734 9.51367C55.6901 9.88346 55.6484 10.2793 55.6484 10.7012ZM67.5469 2.99805H69V13.3574L68.875 14.998H67.5469V2.99805ZM74.7109 10.7012V10.8652C74.7109 11.4798 74.638 12.0501 74.4922 12.5762C74.3464 13.097 74.1328 13.5501 73.8516 13.9355C73.5703 14.321 73.2266 14.6204 72.8203 14.834C72.4141 15.0475 71.9479 15.1543 71.4219 15.1543C70.8854 15.1543 70.4141 15.0632 70.0078 14.8809C69.6068 14.6934 69.2682 14.4251 68.9922 14.0762C68.7161 13.7272 68.4948 13.3053 68.3281 12.8105C68.1667 12.3158 68.0547 11.7585 67.9922 11.1387V10.4199C68.0547 9.79492 68.1667 9.23503 68.3281 8.74023C68.4948 8.24544 68.7161 7.82357 68.9922 7.47461C69.2682 7.12044 69.6068 6.85221 70.0078 6.66992C70.4089 6.48242 70.875 6.38867 71.4062 6.38867C71.9375 6.38867 72.4089 6.49284 72.8203 6.70117C73.2318 6.9043 73.5755 7.19596 73.8516 7.57617C74.1328 7.95638 74.3464 8.41211 74.4922 8.94336C74.638 9.4694 74.7109 10.0553 74.7109 10.7012ZM73.2578 10.8652V10.7012C73.2578 10.2793 73.2188 9.88346 73.1406 9.51367C73.0625 9.13867 72.9375 8.81055 72.7656 8.5293C72.5938 8.24284 72.3672 8.01888 72.0859 7.85742C71.8047 7.69076 71.4583 7.60742 71.0469 7.60742C70.6823 7.60742 70.3646 7.66992 70.0938 7.79492C69.8281 7.91992 69.6016 8.08919 69.4141 8.30273C69.2266 8.51107 69.0729 8.75065 68.9531 9.02148C68.8385 9.28711 68.7526 9.56315 68.6953 9.84961V11.7324C68.7786 12.097 68.9141 12.4486 69.1016 12.7871C69.2943 13.1204 69.5495 13.3939 69.8672 13.6074C70.1901 13.821 70.5885 13.9277 71.0625 13.9277C71.4531 13.9277 71.7865 13.8496 72.0625 13.6934C72.3438 13.5319 72.5703 13.3105 72.7422 13.0293C72.9193 12.748 73.0495 12.4225 73.1328 12.0527C73.2161 11.6829 73.2578 11.2871 73.2578 10.8652ZM78.8203 14.123L81.1719 6.54492H82.7188L79.3281 16.3027C79.25 16.5111 79.1458 16.735 79.0156 16.9746C78.8906 17.2194 78.7292 17.4512 78.5312 17.6699C78.3333 17.8887 78.0938 18.0658 77.8125 18.2012C77.5365 18.3418 77.2057 18.4121 76.8203 18.4121C76.7057 18.4121 76.5599 18.3965 76.3828 18.3652C76.2057 18.334 76.0807 18.3079 76.0078 18.2871L76 17.1152C76.0417 17.1204 76.1068 17.1257 76.1953 17.1309C76.2891 17.1413 76.3542 17.1465 76.3906 17.1465C76.7188 17.1465 76.9974 17.1022 77.2266 17.0137C77.4557 16.9303 77.6484 16.7871 77.8047 16.584C77.9661 16.3861 78.1042 16.1126 78.2188 15.7637L78.8203 14.123ZM77.0938 6.54492L79.2891 13.1074L79.6641 14.6309L78.625 15.1621L75.5156 6.54492H77.0938Z" fill="#262626"/>
</svg>
