<svg width="20" height="20" viewBox="0 0 20 20" fill="none" xmlns="http://www.w3.org/2000/svg">
<path d="M18.186 14.3243C18.1935 14.3169 18.2008 14.3094 18.2079 14.3017C18.2697 14.2351 18.3174 14.1601 18.3509 14.0806C18.3891 13.9901 18.4102 13.8907 18.4102 13.7863L18.4102 13.7841C18.4096 13.5909 18.3356 13.398 18.1883 13.2507L15.158 10.2204C14.8621 9.9245 14.3824 9.9245 14.0866 10.2204C13.7907 10.5162 13.7907 10.9959 14.0866 11.2917L15.8236 13.0288H6.28894C5.87055 13.0288 5.53137 13.368 5.53137 13.7863C5.53137 14.2047 5.87055 14.5439 6.28894 14.5439H15.8236L14.0866 16.281C13.7907 16.5768 13.7907 17.0565 14.0866 17.3523C14.3824 17.6482 14.8621 17.6482 15.158 17.3523L18.186 14.3243Z" fill="url(#paint0_radial_17425_54081)"/>
<path d="M15.3796 6.21056C15.3796 5.79217 15.0404 5.45299 14.622 5.45299H4.32964L6.06668 3.71594C6.36254 3.42009 6.36254 2.94042 6.06668 2.64457C5.77083 2.34871 5.29116 2.34871 4.99531 2.64457L1.96501 5.67487C1.66916 5.97072 1.66916 6.45039 1.96501 6.74624L4.99531 9.77655C5.29116 10.0724 5.77083 10.0724 6.06668 9.77655C6.36254 9.48069 6.36254 9.00102 6.06668 8.70517L4.32965 6.96814H14.622C15.0404 6.96814 15.3796 6.62896 15.3796 6.21056Z" fill="url(#paint1_radial_17425_54081)"/>
<defs>
<radialGradient id="paint0_radial_17425_54081" cx="0" cy="0" r="1" gradientUnits="userSpaceOnUse" gradientTransform="translate(18.4102 2.37533) rotate(137.638) scale(22.5565 105.744)">
<stop stop-color="#D856FF"/>
<stop offset="1" stop-color="#2F45FF"/>
</radialGradient>
<radialGradient id="paint1_radial_17425_54081" cx="0" cy="0" r="1" gradientUnits="userSpaceOnUse" gradientTransform="translate(18.4102 2.37533) rotate(137.638) scale(22.5565 105.744)">
<stop stop-color="#D856FF"/>
<stop offset="1" stop-color="#2F45FF"/>
</radialGradient>
</defs>
</svg>
