<svg width="17" height="16" viewBox="0 0 17 16" fill="none" xmlns="http://www.w3.org/2000/svg">
<path d="M3.98333 13.1195C4.01466 13.5394 4.20322 13.932 4.51135 14.2189C4.81949 14.5058 5.22452 14.666 5.64555 14.6673H11.3544C11.7755 14.666 12.1805 14.5058 12.4886 14.2189C12.7968 13.932 12.9853 13.5394 13.0167 13.1195L13.5411 5.77843H3.45888L3.98333 13.1195Z" fill="#00204D" fill-opacity="0.7" style="mix-blend-mode:multiply"/>
<path d="M14.6111 3.55621H11.2778V1.88954C11.2778 1.7422 11.2192 1.60089 11.115 1.4967C11.0109 1.39252 10.8695 1.33398 10.7222 1.33398H6.27776C6.13041 1.33398 5.98911 1.39252 5.88492 1.4967C5.78073 1.60089 5.7222 1.7422 5.7222 1.88954V3.55621H2.38887C2.24153 3.55621 2.10022 3.61474 1.99603 3.71893C1.89184 3.82311 1.83331 3.96442 1.83331 4.11176C1.83331 4.2591 1.89184 4.40041 1.99603 4.5046C2.10022 4.60879 2.24153 4.66732 2.38887 4.66732H14.6111C14.7584 4.66732 14.8997 4.60879 15.0039 4.5046C15.1081 4.40041 15.1666 4.2591 15.1666 4.11176C15.1666 3.96442 15.1081 3.82311 15.0039 3.71893C14.8997 3.61474 14.7584 3.55621 14.6111 3.55621ZM6.83331 2.4451H10.1666V3.55621H6.83331V2.4451Z" fill="#00204D" fill-opacity="0.7" style="mix-blend-mode:multiply"/>
</svg>
