<svg width="21" height="20" viewBox="0 0 21 20" fill="none" xmlns="http://www.w3.org/2000/svg">
<path fill-rule="evenodd" clip-rule="evenodd" d="M8.2832 0.25C7.86899 0.25 7.5332 0.585786 7.5332 1V5.43333C7.5332 5.84755 7.86899 6.18333 8.2832 6.18333H12.7165C13.1308 6.18333 13.4665 5.84755 13.4665 5.43333V1C13.4665 0.585786 13.1308 0.25 12.7165 0.25H8.2832ZM9.0332 4.68333V1.75H11.9665V4.68333H9.0332Z" fill="#00204D" fill-opacity="0.9" style="mix-blend-mode:multiply"/>
<path d="M11.25 7.33301C11.25 6.91879 10.9142 6.58301 10.5 6.58301C10.0858 6.58301 9.75 6.91879 9.75 7.33301V9.11621H3.2168C2.80258 9.11621 2.4668 9.452 2.4668 9.86621V12.3995C2.4668 12.8138 2.80258 13.1495 3.2168 13.1495C3.63101 13.1495 3.9668 12.8138 3.9668 12.3995V10.6162H9.75V12.3997C9.75 12.8139 10.0858 13.1497 10.5 13.1497C10.9142 13.1497 11.25 12.8139 11.25 12.3997V10.6162H17.0335V12.3995C17.0335 12.8138 17.3692 13.1495 17.7835 13.1495C18.1977 13.1495 18.5335 12.8138 18.5335 12.3995V9.86621C18.5335 9.452 18.1977 9.11621 17.7835 9.11621H11.25V7.33301Z" fill="#00204D" fill-opacity="0.9" style="mix-blend-mode:multiply"/>
<path fill-rule="evenodd" clip-rule="evenodd" d="M3.21667 13.5498C1.57822 13.5498 0.25 14.878 0.25 16.5165C0.25 18.1549 1.57822 19.4831 3.21667 19.4831C4.85511 19.4831 6.18333 18.1549 6.18333 16.5165C6.18333 14.878 4.85511 13.5498 3.21667 13.5498ZM1.75 16.5165C1.75 15.7065 2.40665 15.0498 3.21667 15.0498C4.02668 15.0498 4.68333 15.7065 4.68333 16.5165C4.68333 17.3265 4.02668 17.9831 3.21667 17.9831C2.40665 17.9831 1.75 17.3265 1.75 16.5165Z" fill="#00204D" fill-opacity="0.9" style="mix-blend-mode:multiply"/>
<path fill-rule="evenodd" clip-rule="evenodd" d="M7.5332 16.5165C7.5332 14.878 8.86143 13.5498 10.4999 13.5498C12.1383 13.5498 13.4665 14.878 13.4665 16.5165C13.4665 18.1549 12.1383 19.4831 10.4999 19.4831C8.86143 19.4831 7.5332 18.1549 7.5332 16.5165ZM10.4999 15.0498C9.68985 15.0498 9.0332 15.7065 9.0332 16.5165C9.0332 17.3265 9.68985 17.9831 10.4999 17.9831C11.3099 17.9831 11.9665 17.3265 11.9665 16.5165C11.9665 15.7065 11.3099 15.0498 10.4999 15.0498Z" fill="#00204D" fill-opacity="0.9" style="mix-blend-mode:multiply"/>
<path fill-rule="evenodd" clip-rule="evenodd" d="M17.7831 13.5498C16.1446 13.5498 14.8164 14.878 14.8164 16.5165C14.8164 18.1549 16.1446 19.4831 17.7831 19.4831C19.4215 19.4831 20.7497 18.1549 20.7497 16.5165C20.7497 14.878 19.4215 13.5498 17.7831 13.5498ZM16.3164 16.5165C16.3164 15.7065 16.9731 15.0498 17.7831 15.0498C18.5931 15.0498 19.2497 15.7065 19.2497 16.5165C19.2497 17.3265 18.5931 17.9831 17.7831 17.9831C16.9731 17.9831 16.3164 17.3265 16.3164 16.5165Z" fill="#00204D" fill-opacity="0.9" style="mix-blend-mode:multiply"/>
</svg>
