<svg viewBox="0 0 1024 1024" version="1.1" xmlns="http://www.w3.org/2000/svg">
  <path d="M853.333333 682.666667a42.666667 42.666667 0 0 1 42.368 37.674666L896 725.333333v85.333334a128 128 0 0 1-120.490667 127.786666L768 938.666667H256a128 128 0 0 1-127.786667-120.490667L128 810.666667v-85.333334a42.666667 42.666667 0 0 1 85.034667-4.992L213.333333 725.333333v85.333334a42.666667 42.666667 0 0 0 37.674667 42.368L256 853.333333h512a42.666667 42.666667 0 0 0 42.368-37.674666L810.666667 810.666667v-85.333334a42.666667 42.666667 0 0 1 42.666666-42.666666zM481.834667 140.501333a42.666667 42.666667 0 0 1 56.32-3.541333l4.010666 3.541333 213.333334 213.333334a42.666667 42.666667 0 0 1-56.32 63.872l-4.010667-3.541334L512 231.04 328.832 414.165333a42.666667 42.666667 0 0 1-56.32 3.541334l-4.010667-3.541334a42.666667 42.666667 0 0 1-3.541333-56.32l3.541333-4.010666 213.333334-213.333334z" />
  <path d="M512 128a42.666667 42.666667 0 0 1 42.368 37.674667L554.666667 170.666667v512a42.666667 42.666667 0 0 1-85.034667 4.992L469.333333 682.666667V170.666667a42.666667 42.666667 0 0 1 42.666667-42.666667z" />
</svg>