<svg xmlns="http://www.w3.org/2000/svg" width="16" height="16" viewBox="0 0 16 16" fill="none">
    <path fill-rule="evenodd" clip-rule="evenodd" d="M2.55123 7.3302C2.48216 7.42934 2.44513 7.54727 2.44513 7.66811C2.44513 7.78896 2.48217 7.90689 2.55124 8.00603C2.97148 8.60083 3.69197 9.50018 4.64044 10.2463C5.59073 10.9939 6.72995 11.5571 8.00065 11.5571C9.27136 11.5571 10.4106 10.9939 11.3609 10.2463C12.3093 9.50018 13.0298 8.60084 13.4501 8.00604C13.5191 7.9069 13.5562 7.78896 13.5562 7.66811C13.5562 7.54726 13.5191 7.42933 13.4501 7.3302C13.0298 6.7354 12.3093 5.83604 11.3609 5.08988C10.4106 4.3423 9.27136 3.77911 8.00065 3.77911C6.72995 3.77911 5.59073 4.3423 4.64044 5.08988C3.69196 5.83605 2.97146 6.73541 2.55123 7.3302ZM3.95343 4.21658C5.01709 3.37981 6.39294 2.66797 8.00065 2.66797C9.60836 2.66797 10.9842 3.37981 12.0479 4.21658C13.1127 5.05427 13.9047 6.04787 14.3585 6.69034L14.36 6.69243C14.56 6.97846 14.6673 7.31907 14.6673 7.66811C14.6673 8.01715 14.56 8.35776 14.36 8.64378L14.3585 8.64587C13.9047 9.28834 13.1127 10.2819 12.0479 11.1196C10.9842 11.9564 9.60836 12.6682 8.00065 12.6682C6.39294 12.6682 5.01709 11.9564 3.95343 11.1196C2.8886 10.2819 2.09661 9.28834 1.64281 8.64587L1.64133 8.64378C1.44128 8.35776 1.33398 8.01715 1.33398 7.66811C1.33398 7.31907 1.44128 6.97846 1.64134 6.69244L1.64281 6.69034C2.0966 6.04787 2.8886 5.05427 3.95343 4.21658Z" fill="#00204D" fill-opacity="0.7" style="mix-blend-mode:multiply"/>
    <path fill-rule="evenodd" clip-rule="evenodd" d="M8.0007 6.00139C7.0802 6.00139 6.33399 6.74761 6.33399 7.66811C6.33399 8.58861 7.0802 9.33482 8.0007 9.33482C8.9212 9.33482 9.66741 8.58861 9.66741 7.66811C9.66741 6.74761 8.9212 6.00139 8.0007 6.00139ZM5.22285 7.66811C5.22285 6.13394 6.46653 4.89025 8.0007 4.89025C9.53487 4.89025 10.7786 6.13394 10.7786 7.66811C10.7786 9.20228 9.53487 10.446 8.0007 10.446C6.46653 10.446 5.22285 9.20228 5.22285 7.66811Z" fill="#00204D" fill-opacity="0.7" style="mix-blend-mode:multiply"/>
</svg>
