<svg width="25" height="24" viewBox="0 0 25 24" fill="none" xmlns="http://www.w3.org/2000/svg">
<path fill-rule="evenodd" clip-rule="evenodd" d="M4.32595 10.9934C4.22236 11.1421 4.1668 11.3189 4.1668 11.5002C4.1668 11.6815 4.22236 11.8584 4.32597 12.0071C4.95633 12.8993 6.03707 14.2483 7.45978 15.3675C8.8852 16.4889 10.594 17.3337 12.5001 17.3337C14.4061 17.3337 16.115 16.4889 17.5404 15.3675C18.9631 14.2483 20.0438 12.8993 20.6742 12.0071C20.7778 11.8584 20.8334 11.6815 20.8334 11.5002C20.8334 11.3189 20.7778 11.142 20.6742 10.9933C20.0439 10.1011 18.9631 8.75211 17.5404 7.63287C16.115 6.5115 14.4061 5.66671 12.5001 5.66671C10.594 5.66671 8.8852 6.5115 7.45978 7.63287C6.03705 8.75212 4.95631 10.1012 4.32595 10.9934ZM6.42926 6.32292C8.02475 5.06776 10.0885 4 12.5001 4C14.9117 4 16.9754 5.06776 18.5709 6.32292C20.1682 7.57945 21.3562 9.06986 22.0369 10.0336L22.0391 10.0367C22.3391 10.4657 22.5001 10.9766 22.5001 11.5002C22.5001 12.0238 22.3391 12.5347 22.0391 12.9637L22.0369 12.9669C21.3562 13.9306 20.1682 15.421 18.5709 16.6775C16.9754 17.9327 14.9117 19.0004 12.5001 19.0004C10.0885 19.0004 8.02475 17.9327 6.42926 16.6775C4.83202 15.421 3.64403 13.9306 2.96333 12.9669L2.96112 12.9637C2.66103 12.5347 2.50009 12.0238 2.50009 11.5002C2.50009 10.9766 2.66104 10.4657 2.96112 10.0367L2.96332 10.0336C3.64402 9.06985 4.83202 7.57945 6.42926 6.32292Z" fill="#00204D" fill-opacity="0.7" style="mix-blend-mode:multiply"/>
<path fill-rule="evenodd" clip-rule="evenodd" d="M12.5002 9.00014C11.1194 9.00014 10.0001 10.1195 10.0001 11.5002C10.0001 12.881 11.1194 14.0003 12.5002 14.0003C13.8809 14.0003 15.0002 12.881 15.0002 11.5002C15.0002 10.1195 13.8809 9.00014 12.5002 9.00014ZM8.33338 11.5002C8.33338 9.19896 10.1989 7.33343 12.5002 7.33343C14.8014 7.33343 16.6669 9.19896 16.6669 11.5002C16.6669 13.8015 14.8014 15.667 12.5002 15.667C10.1989 15.667 8.33338 13.8015 8.33338 11.5002Z" fill="#00204D" fill-opacity="0.7" style="mix-blend-mode:multiply"/>
</svg>
