<svg width="23" height="22" viewBox="0 0 23 22" fill="none" xmlns="http://www.w3.org/2000/svg">
<path d="M12.063 7.94751C12.063 7.52563 11.723 7.18362 11.3036 7.18362C11.2792 7.18362 11.255 7.18478 11.2312 7.18705C11.2197 7.18653 11.2081 7.18627 11.1965 7.18627C10.777 7.18627 10.437 7.52827 10.437 7.95016V12.5335C10.437 12.9554 10.777 13.2974 11.1965 13.2974C11.2209 13.2974 11.2451 13.2962 11.2689 13.2939C11.2804 13.2945 11.292 13.2947 11.3036 13.2947C11.723 13.2947 12.063 12.9527 12.063 12.5308V7.94751Z" fill="#00204D" fill-opacity="0.7" style="mix-blend-mode:multiply"/>
<path d="M11.3035 16.3503C11.9327 16.3503 12.4427 15.8373 12.4427 15.2044C12.4427 14.5716 11.9327 14.0586 11.3035 14.0586C11.276 14.0586 11.2486 14.0596 11.2216 14.0615C11.2133 14.0613 11.2049 14.0613 11.1965 14.0613C10.5674 14.0613 10.0574 14.5743 10.0574 15.2071C10.0574 15.8399 10.5674 16.3529 11.1965 16.3529C11.2241 16.3529 11.2514 16.3519 11.2785 16.35C11.2868 16.3502 11.2952 16.3503 11.3035 16.3503Z" fill="#00204D" fill-opacity="0.7" style="mix-blend-mode:multiply"/>
<path fill-rule="evenodd" clip-rule="evenodd" d="M11.193 1.83667C11.2303 1.83488 11.2676 1.83398 11.305 1.83398C11.732 1.83398 12.151 1.95108 12.5168 2.17269C12.8826 2.3943 13.1815 2.71203 13.3812 3.0917L20.1477 15.9587C20.3358 16.3182 20.4281 16.7207 20.4155 17.1268C20.403 17.5329 20.2861 17.9288 20.0762 18.2759C19.8663 18.6231 19.5706 18.9096 19.2179 19.1076C18.866 19.3052 18.4692 19.4079 18.0661 19.4058H17.9612L17.96 19.4085H4.43389C4.03084 19.4106 3.63407 19.3079 3.28209 19.1103C2.92938 18.9123 2.63368 18.6258 2.4238 18.2786C2.21393 17.9315 2.09703 17.5356 2.0845 17.1295C2.07197 16.7234 2.16425 16.3209 2.35232 15.9613L9.11884 3.09439C9.31855 2.71471 9.61739 2.39698 9.98321 2.17538C10.3485 1.95412 10.7667 1.83704 11.193 1.83667ZM18.0347 17.878C18.1518 17.8685 18.2658 17.8337 18.3688 17.7756C18.4922 17.7061 18.5956 17.6057 18.6689 17.4841C18.7423 17.3625 18.7831 17.2238 18.7874 17.0817C18.7917 16.9397 18.7592 16.7984 18.6936 16.6727L11.9287 3.80883C11.8581 3.67469 11.7525 3.56243 11.6232 3.48414C11.504 3.41187 11.3687 3.37105 11.2299 3.36518C11.1053 3.37657 10.9845 3.41618 10.8768 3.48145C10.7475 3.55975 10.6419 3.672 10.5714 3.80614L3.80646 16.67C3.74084 16.7958 3.70829 16.937 3.7126 17.079C3.71692 17.2212 3.75774 17.3598 3.83111 17.4814C3.90447 17.603 4.00787 17.7035 4.13126 17.773C4.25464 17.8425 4.39381 17.8787 4.53522 17.878L4.53855 17.878L18.0347 17.878Z" fill="#00204D" fill-opacity="0.7" style="mix-blend-mode:multiply"/>
</svg>
