<svg width="23" height="22" viewBox="0 0 23 22" fill="none" xmlns="http://www.w3.org/2000/svg">
<path d="M20.1451 15.9586L13.3376 3.08935C13.1364 2.71028 12.8357 2.39316 12.468 2.172C12.1002 1.95083 11.6791 1.83398 11.25 1.83398C10.8208 1.83398 10.3998 1.95083 10.032 2.172C9.66422 2.39316 9.36361 2.71028 9.16241 3.08935L2.35487 15.9586C2.16554 16.3177 2.07234 16.7197 2.08434 17.1255C2.09634 17.5312 2.21312 17.927 2.42333 18.2743C2.63354 18.6215 2.93003 18.9085 3.28397 19.1073C3.63791 19.3061 4.03727 19.4099 4.4432 19.4086H18.0568C18.4627 19.4099 18.862 19.3061 19.216 19.1073C19.5699 18.9085 19.8664 18.6215 20.0766 18.2743C20.2868 17.927 20.4036 17.5312 20.4156 17.1255C20.4276 16.7197 20.3344 16.3177 20.1451 15.9586ZM11.25 17.1163C11.0233 17.1163 10.8017 17.0491 10.6132 16.9231C10.4247 16.7972 10.2778 16.6182 10.191 16.4087C10.1043 16.1993 10.0816 15.9688 10.1258 15.7465C10.17 15.5242 10.2792 15.3199 10.4395 15.1596C10.5998 14.9993 10.804 14.8902 11.0264 14.8459C11.2487 14.8017 11.4792 14.8244 11.6886 14.9112C11.898 14.9979 12.077 15.1448 12.203 15.3333C12.3289 15.5218 12.3962 15.7434 12.3962 15.9701C12.3962 16.2741 12.2754 16.5656 12.0605 16.7806C11.8455 16.9955 11.554 17.1163 11.25 17.1163ZM12.0141 13.2957H10.4859L10.1038 7.18273H12.3962L12.0141 13.2957Z" fill="#62248F"/>
</svg>
