<svg width="20" height="21" viewBox="0 0 20 21" fill="none" xmlns="http://www.w3.org/2000/svg">
<g clip-path="url(#clip0_16317_42752)">
<path d="M8.1898 6.81468H2.39262C2.20043 6.81468 2.01611 6.73834 1.88021 6.60244C1.74432 6.46654 1.66797 6.28222 1.66797 6.09003V3.19144C1.66797 2.99926 1.74432 2.81494 1.88021 2.67904C2.01611 2.54314 2.20043 2.4668 2.39262 2.4668H8.1898C8.38199 2.4668 8.5663 2.54314 8.7022 2.67904C8.8381 2.81494 8.91445 2.99926 8.91445 3.19144V6.09003C8.91445 6.28222 8.8381 6.46654 8.7022 6.60244C8.5663 6.73834 8.38199 6.81468 8.1898 6.81468Z" fill="#00204D" fill-opacity="0.7" style="mix-blend-mode:multiply"/>
<path d="M8.1898 18.409H2.39262C2.20043 18.409 2.01611 18.3327 1.88021 18.1968C1.74432 18.0609 1.66797 17.8766 1.66797 17.6844V14.7858C1.66797 14.5936 1.74432 14.4093 1.88021 14.2734C2.01611 14.1375 2.20043 14.0612 2.39262 14.0612H8.1898C8.38199 14.0612 8.5663 14.1375 8.7022 14.2734C8.8381 14.4093 8.91445 14.5936 8.91445 14.7858V17.6844C8.91445 17.8766 8.8381 18.0609 8.7022 18.1968C8.5663 18.3327 8.38199 18.409 8.1898 18.409Z" fill="#00204D" fill-opacity="0.7" style="mix-blend-mode:multiply"/>
<path d="M6.01585 7.53933H4.56656V13.3365H6.01585V7.53933Z" fill="#00204D" fill-opacity="0.7" style="mix-blend-mode:multiply"/>
<path d="M14.7116 6.81468H13.2623V5.36539H9.63909V3.91609H13.987C14.1792 3.91609 14.3635 3.99244 14.4994 4.12834C14.6353 4.26423 14.7116 4.44855 14.7116 4.64074V6.81468Z" fill="#00204D" fill-opacity="0.7" style="mix-blend-mode:multiply"/>
<path d="M13.987 16.9597H9.63909V15.5105H13.2623V14.0612H14.7116V16.2351C14.7116 16.4273 14.6353 16.6116 14.4994 16.7475C14.3635 16.8834 14.1792 16.9597 13.987 16.9597Z" fill="#00204D" fill-opacity="0.7" style="mix-blend-mode:multiply"/>
<path d="M13.987 13.3365C13.8555 13.3365 13.7265 13.3006 13.6138 13.2329L9.99055 11.0589C9.88341 10.9945 9.79476 10.9035 9.73321 10.7947C9.67167 10.6858 9.63932 10.5629 9.63932 10.4379C9.63932 10.3129 9.67167 10.19 9.73321 10.0812C9.79476 9.97237 9.88341 9.88132 9.99055 9.8169L13.6138 7.64295C13.7265 7.57524 13.8555 7.53947 13.987 7.53947C14.1185 7.53947 14.2475 7.57524 14.3602 7.64295L17.9834 9.8169C18.0906 9.88132 18.1792 9.97237 18.2407 10.0812C18.3023 10.19 18.3346 10.3129 18.3346 10.4379C18.3346 10.5629 18.3023 10.6858 18.2407 10.7947C18.1792 10.9035 18.0906 10.9945 17.9834 11.0589L14.3602 13.2329C14.2475 13.3006 14.1185 13.3365 13.987 13.3365Z" fill="#00204D" fill-opacity="0.7" style="mix-blend-mode:multiply"/>
</g>
<defs>
<clipPath id="clip0_16317_42752">
<rect y="0.800781" width="20" height="20" rx="4" fill="white"/>
</clipPath>
</defs>
</svg>
